<svg width="129" height="128" viewBox="0 0 129 128" fill="none" xmlns="http://www.w3.org/2000/svg">
<path d="M64.9562 112C63.4451 112 62.1562 111.467 61.0895 110.4C60.0229 109.333 59.4895 108.044 59.4895 106.533C59.4895 105.911 59.6229 105.267 59.8895 104.6C60.1562 103.933 60.5562 103.333 61.0895 102.8L85.7562 78.1333L82.9562 75.3333L58.2895 100C57.7562 100.533 57.1784 100.933 56.5562 101.2C55.934 101.467 55.2673 101.6 54.5562 101.6C53.0451 101.6 51.7784 101.089 50.7562 100.067C49.734 99.0444 49.2229 97.7778 49.2229 96.2667C49.2229 95.3778 49.3562 94.6444 49.6229 94.0667C49.8895 93.4889 50.2451 92.9778 50.6895 92.5333L75.3562 67.8667L72.5562 65.0667L47.8895 89.6C47.3562 90.1333 46.7784 90.5333 46.1562 90.8C45.534 91.0667 44.8229 91.2 44.0229 91.2C42.6006 91.2 41.3562 90.6667 40.2895 89.6C39.2229 88.5333 38.6895 87.2889 38.6895 85.8667C38.6895 85.1556 38.8229 84.4889 39.0895 83.8667C39.3562 83.2444 39.7562 82.6667 40.2895 82.1333L64.9562 57.4667L62.1562 54.6667L37.6229 79.3333C37.1784 79.7778 36.6451 80.1333 36.0229 80.4C35.4006 80.6667 34.6451 80.8 33.7562 80.8C32.2451 80.8 30.9784 80.3111 29.9562 79.3333C28.934 78.3556 28.4229 77.1111 28.4229 75.6C28.4229 74.8889 28.5562 74.2222 28.8229 73.6C29.0895 72.9778 29.4895 72.4 30.0229 71.8667L59.7562 42.1333L76.6895 59.0667C77.6673 60.0444 78.7562 60.8667 79.9562 61.5333C81.1562 62.2 82.6006 62.5333 84.2895 62.5333C87.134 62.5333 89.534 61.6222 91.4895 59.8C93.4451 57.9778 94.4229 55.5111 94.4229 52.4C94.4229 51.1556 94.1784 49.9333 93.6895 48.7333C93.2006 47.5333 92.3784 46.3556 91.2229 45.2L67.3562 21.3333L68.1562 20.4C69.6673 18.9778 71.3562 17.8889 73.2229 17.1333C75.0895 16.3778 76.9562 16 78.8229 16C81.134 16 83.2673 16.3778 85.2229 17.1333C87.1784 17.8889 88.9562 19.0667 90.5562 20.6667L113.09 43.3333C114.69 44.9333 115.867 46.7111 116.623 48.6667C117.378 50.6222 117.756 52.8889 117.756 55.4667C117.756 57.2444 117.356 59.0444 116.556 60.8667C115.756 62.6889 114.601 64.3556 113.09 65.8667L68.6895 110.4C67.9784 111.111 67.3562 111.556 66.8229 111.733C66.2895 111.911 65.6673 112 64.9562 112Z" fill="#00569C"/>
<path d="M22.9561 73.0667L15.7561 65.8667C14.245 64.4444 13.0895 62.7556 12.2895 60.8C11.4895 58.8444 11.0895 56.8 11.0895 54.6667C11.0895 52.3556 11.5339 50.2222 12.4228 48.2667C13.3117 46.3111 14.4228 44.6667 15.7561 43.3333L38.2895 20.6667C39.7117 19.2444 41.4006 18.1111 43.3561 17.2667C45.3117 16.4222 47.2228 16 49.0895 16C51.4895 16 53.6228 16.3333 55.4895 17C57.3561 17.6667 59.1784 18.8889 60.9561 20.6667L88.2895 48C89.0895 48.8 89.645 49.5556 89.9561 50.2667C90.2673 50.9778 90.4228 51.6889 90.4228 52.4C90.4228 54.1778 89.845 55.6444 88.6895 56.8C87.5339 57.9556 86.0673 58.5333 84.2895 58.5333C83.4895 58.5333 82.6673 58.3333 81.8228 57.9333C80.9784 57.5333 80.1562 56.9333 79.3561 56.1333L59.6228 36.4L22.9561 73.0667Z" fill="#4785B8"/>
</svg>
