<svg width="129" height="128" viewBox="0 0 129 128" fill="none" xmlns="http://www.w3.org/2000/svg">
<path fill-rule="evenodd" clip-rule="evenodd" d="M38.0875 14.1497C38.8619 12.0565 40.8577 10.6667 43.0896 10.6667H80.4229C82.6548 10.6667 84.6506 12.0565 85.425 14.1497C86.1993 16.2429 85.5884 18.597 83.8938 20.0494L67.8732 33.7814L85.5252 91.7805C86.0987 93.6649 85.5869 95.7119 84.1941 97.1047L65.5275 115.771C63.4447 117.854 60.0678 117.854 57.985 115.771L39.3183 97.1047C37.9256 95.7119 37.4138 93.6649 37.9873 91.7805L55.6392 33.7814L39.6187 20.0494C37.9241 18.597 37.3132 16.2429 38.0875 14.1497Z" fill="#4785B8"/>
<path d="M61.7511 117.333C60.388 117.332 59.0252 116.811 57.9851 115.771L39.3185 97.1047C37.9257 95.7119 37.4139 93.6649 37.9874 91.7805L55.6362 33.7917H67.8765L85.5253 91.7805C86.0988 93.6649 85.587 95.7119 84.1943 97.1047L65.5276 115.771C64.4875 116.811 63.1248 117.332 61.7616 117.333H61.7511Z" fill="#00569C"/>
</svg>
