<svg width="129" height="128" viewBox="0 0 129 128" fill="none" xmlns="http://www.w3.org/2000/svg">
<path fill-rule="evenodd" clip-rule="evenodd" d="M57.2039 65.2385C58.2453 66.2799 59.9337 66.2799 60.9751 65.2385L80.0993 46.1143C81.1407 45.0729 82.8292 45.0729 83.8706 46.1143L87.6418 49.8855C88.6832 50.9269 88.6832 52.6154 87.6418 53.6568L60.9751 80.3234C59.9337 81.3648 58.2453 81.3648 57.2039 80.3234L41.2039 64.3234C40.1625 63.282 40.1625 61.5936 41.2039 60.5522L44.9751 56.781C46.0165 55.7396 47.705 55.7396 48.7464 56.781L57.2039 65.2385Z" fill="#4785B8"/>
<path fill-rule="evenodd" clip-rule="evenodd" d="M22.9393 105.484C18.0102 100.554 16.596 93.0356 18.1419 83.1702C10.0729 77.2873 5.75623 70.9708 5.75623 63.9999C5.75623 57.0291 10.0729 50.7125 18.1419 44.8297C16.596 34.9643 18.0102 27.4455 22.9393 22.5163C27.8684 17.5872 35.3872 16.1731 45.2527 17.7189C51.1355 9.64993 57.452 5.33325 64.4229 5.33325C71.3937 5.33325 77.7103 9.64993 83.5931 17.7189C93.4585 16.1731 100.977 17.5872 105.906 22.5163C110.836 27.4455 112.25 34.9643 110.704 44.8297C118.773 50.7125 123.09 57.0291 123.09 63.9999C123.09 70.9708 118.773 77.2873 110.704 83.1702C112.25 93.0356 110.836 100.554 105.906 105.484C100.977 110.413 93.4585 111.827 83.5931 110.281C77.7103 118.35 71.3937 122.667 64.4229 122.667C57.452 122.667 51.1355 118.35 45.2527 110.281C35.3872 111.827 27.8684 110.413 22.9393 105.484ZM97.0698 51.7711L59.0895 89.7514L31.7758 62.4377L46.8607 47.3528L59.0895 59.5815L81.9849 36.6861L97.0698 51.7711Z" fill="#00569C"/>
</svg>
