<svg width="75" height="74" viewBox="0 0 75 74" fill="none" xmlns="http://www.w3.org/2000/svg">
<path fill-rule="evenodd" clip-rule="evenodd" d="M7.60599 33.6666C9.14315 19.7612 20.1842 8.72018 34.0896 7.18301V0.333252H40.7562V7.18301C54.6616 8.72018 65.7026 19.7612 67.2398 33.6666H74.0896V40.3333H67.2398C65.7026 54.2386 54.6616 65.2797 40.7562 66.8168V73.6666H34.0896V66.8168C20.1842 65.2797 9.14315 54.2386 7.60599 40.3333H0.756226V33.6666H7.60599ZM14.3259 33.6666H20.7562V40.3333H14.3259C15.7876 50.5522 23.8706 58.6353 34.0896 60.097V53.6666H40.7562V60.097C50.9752 58.6353 59.0582 50.5522 60.5199 40.3333H54.0896V33.6666H60.5199C59.0582 23.4476 50.9752 15.3646 40.7562 13.9029V20.3333H34.0896V13.9029C23.8706 15.3646 15.7876 23.4476 14.3259 33.6666ZM37.4229 43.6666C33.741 43.6666 30.7562 40.6818 30.7562 36.9999C30.7562 33.318 33.741 30.3333 37.4229 30.3333C41.1048 30.3333 44.0896 33.318 44.0896 36.9999C44.0896 40.6818 41.1048 43.6666 37.4229 43.6666Z" fill="white"/>
</svg>
