<svg width="553" height="435" viewBox="0 0 553 435" fill="none" xmlns="http://www.w3.org/2000/svg">
<g clip-path="url(#clip0_162_33757)">
<path d="M55.2175 298.355L110.795 232.149H220.064L286.84 297.207L285.491 298.075H285.972V433.396H55.2937V298.075L55.2175 298.355Z" fill="#3F3D56"/>
<path d="M88.6569 269.572H101.255V225.95H88.6569V269.572Z" fill="#3F3D56"/>
<path d="M109.929 231.281L178.439 311.624V433.396H55.2943V296.34L109.929 231.281Z" fill="#00569C"/>
<path d="M162.608 327.568H137.459V353.289H162.608V327.568Z" fill="#3F3D56"/>
<path d="M162.608 362.567H137.459V388.289H162.608V362.567Z" fill="#3F3D56"/>
<path d="M162.608 327.568H137.459V353.289H162.608V327.568Z" fill="white"/>
<path d="M162.608 362.567H137.459V388.289H162.608V362.567Z" fill="white"/>
<path d="M127.827 327.568H102.677V353.289H127.827V327.568Z" fill="#3F3D56"/>
<path d="M127.827 362.567H102.677V388.289H127.827V362.567Z" fill="#3F3D56"/>
<path d="M127.827 327.568H102.677V353.289H127.827V327.568Z" fill="white"/>
<path d="M127.827 362.567H102.677V388.289H127.827V362.567Z" fill="white"/>
<path d="M93.0435 327.568H67.8943V353.289H93.0435V327.568Z" fill="#3F3D56"/>
<path d="M93.0435 362.567H67.8943V388.289H93.0435V362.567Z" fill="#3F3D56"/>
<path d="M93.0435 327.568H67.8943V353.289H93.0435V327.568Z" fill="white"/>
<path d="M93.0435 362.567H67.8943V388.289H93.0435V362.567Z" fill="white"/>
<path d="M337.861 76.0347H326.395V104.707H337.861V76.0347Z" fill="#00569C"/>
<path d="M337.042 102.249H239.582V434.029H337.042V102.249Z" fill="#00569C"/>
<path d="M376.353 102.249H337.042V434.029H376.353V102.249Z" fill="#3F3D56"/>
<path d="M271.932 130.922H257.19V145.667H271.932V130.922Z" fill="white"/>
<path d="M295.683 130.922H280.941V145.667H295.683V130.922Z" fill="white"/>
<path d="M319.433 130.922H304.692V145.667H319.433V130.922Z" fill="white"/>
<path d="M272.341 164.509H257.6V179.255H272.341V164.509Z" fill="white"/>
<path d="M296.092 164.509H281.35V179.255H296.092V164.509Z" fill="white"/>
<path d="M319.843 164.509H305.101V179.255H319.843V164.509Z" fill="white"/>
<path d="M272.751 198.096H258.009V212.842H272.751V198.096Z" fill="white"/>
<path d="M296.502 198.096H281.76V212.842H296.502V198.096Z" fill="white"/>
<path d="M320.252 198.096H305.51V212.842H320.252V198.096Z" fill="white"/>
<path d="M273.16 231.684H258.419V246.43H273.16V231.684Z" fill="white"/>
<path d="M296.911 231.684H282.169V246.43H296.911V231.684Z" fill="white"/>
<path d="M320.662 231.684H305.92V246.43H320.662V231.684Z" fill="white"/>
<path d="M273.57 265.272H258.828V280.017H273.57V265.272Z" fill="white"/>
<path d="M297.321 265.272H282.579V280.017H297.321V265.272Z" fill="white"/>
<path d="M321.071 265.272H306.329V280.017H321.071V265.272Z" fill="white"/>
<path d="M273.979 298.859H259.238V313.605H273.979V298.859Z" fill="white"/>
<path d="M297.73 298.859H282.988V313.605H297.73V298.859Z" fill="white"/>
<path d="M321.481 298.859H306.739V313.605H321.481V298.859Z" fill="white"/>
<path d="M274.389 332.447H259.647V347.193H274.389V332.447Z" fill="white"/>
<path d="M298.14 332.447H283.398V347.193H298.14V332.447Z" fill="white"/>
<path d="M321.89 332.447H307.148V347.193H321.89V332.447Z" fill="white"/>
<path d="M274.798 366.035H260.057V380.78H274.798V366.035Z" fill="white"/>
<path d="M298.549 366.035H283.807V380.78H298.549V366.035Z" fill="white"/>
<path d="M298.549 405.356H283.807V433.21H298.549V405.356Z" fill="white"/>
<path d="M322.3 366.035H307.558V380.78H322.3V366.035Z" fill="white"/>
<path d="M343.594 76.0347H337.042V103.888H343.594V76.0347Z" fill="#3F3D56"/>
<path d="M460.708 221.854H449.242V238.847H460.708V221.854Z" fill="#00569C"/>
<path d="M459.89 237.391H362.43V434.029H459.89V237.391Z" fill="#00569C"/>
<path d="M499.2 237.391H459.889V434.029H499.2V237.391Z" fill="#3F3D56"/>
<path d="M396.418 265.272H381.677V280.017H396.418V265.272Z" fill="white"/>
<path d="M420.169 265.272H405.427V280.017H420.169V265.272Z" fill="white"/>
<path d="M443.918 265.272H429.177V280.017H443.918V265.272Z" fill="white"/>
<path d="M396.828 298.859H382.086V313.605H396.828V298.859Z" fill="white"/>
<path d="M420.579 298.859H405.837V313.605H420.579V298.859Z" fill="white"/>
<path d="M444.328 298.859H429.586V313.605H444.328V298.859Z" fill="white"/>
<path d="M397.237 332.447H382.496V347.193H397.237V332.447Z" fill="white"/>
<path d="M420.988 332.447H406.246V347.193H420.988V332.447Z" fill="white"/>
<path d="M444.737 332.447H429.996V347.193H444.737V332.447Z" fill="white"/>
<path d="M397.647 366.035H382.905V380.78H397.647V366.035Z" fill="white"/>
<path d="M421.398 366.035H406.656V380.78H421.398V366.035Z" fill="white"/>
<path d="M421.398 405.356H406.656V433.21H421.398V405.356Z" fill="white"/>
<path d="M445.147 366.035H430.405V380.78H445.147V366.035Z" fill="white"/>
<path d="M466.441 221.854H459.889V238.362H466.441V221.854Z" fill="#3F3D56"/>
<path d="M529.503 433.21H18.4525V434.848H529.503V433.21Z" fill="#3F3D56"/>
<path d="M425.832 73.852L433.371 67.8203C427.514 67.174 425.108 70.3691 424.123 72.8981C419.547 70.9975 414.566 73.4883 414.566 73.4883L429.651 78.9661C428.89 76.9329 427.565 75.1589 425.832 73.852Z" fill="#3F3D56"/>
<path d="M47.458 104.163L54.9974 98.1311C49.1404 97.4847 46.7339 100.68 45.749 103.209C41.1733 101.308 36.192 103.799 36.192 103.799L51.2769 109.277C50.5159 107.244 49.1912 105.47 47.458 104.163Z" fill="#3F3D56"/>
<path d="M501.457 137.038L508.997 131.006C503.14 130.36 500.733 133.555 499.748 136.084C495.173 134.183 490.191 136.674 490.191 136.674L505.276 142.152C504.515 140.119 503.191 138.345 501.457 137.038Z" fill="#3F3D56"/>
<path d="M109.7 87.7785L117.239 81.7468C111.382 81.1005 108.976 84.2956 107.991 86.8246C103.415 84.924 98.4337 87.4148 98.4337 87.4148L113.519 92.8926C112.758 90.8594 111.433 89.0854 109.7 87.7785Z" fill="#3F3D56"/>
<path d="M123.624 153.315L131.164 147.284C125.307 146.637 122.9 149.832 121.915 152.361C117.339 150.461 112.358 152.952 112.358 152.952L127.443 158.429C126.682 156.396 125.357 154.622 123.624 153.315Z" fill="#3F3D56"/>
<path d="M416.823 187.722L424.362 181.69C418.505 181.044 416.099 184.239 415.114 186.768C410.538 184.868 405.557 187.358 405.557 187.358L420.642 192.836C419.881 190.803 418.556 189.029 416.823 187.722Z" fill="#3F3D56"/>
<path d="M67.5936 423.379C65.5894 423.379 63.6205 423.907 61.8856 424.911C60.1236 423.317 57.937 422.269 55.5911 421.894C53.2453 421.52 50.8411 421.834 48.6704 422.799C46.4998 423.765 44.656 425.34 43.3629 427.333C42.0698 429.327 41.383 431.653 41.3859 434.029H79.0182C78.813 431.138 77.5204 428.432 75.4006 426.456C73.2808 424.48 70.4912 423.38 67.5936 423.379Z" fill="#3F3D56"/>
<path d="M261.695 423.379C259.69 423.379 257.721 423.907 255.987 424.911C254.225 423.317 252.038 422.269 249.692 421.894C247.346 421.52 244.942 421.834 242.771 422.799C240.601 423.765 238.757 425.34 237.464 427.333C236.171 429.327 235.484 431.653 235.487 434.029H273.119C272.914 431.138 271.621 428.432 269.502 426.456C267.382 424.48 264.592 423.38 261.695 423.379Z" fill="#3F3D56"/>
<path d="M388.638 423.379C386.634 423.379 384.665 423.907 382.93 424.911C381.168 423.317 378.982 422.269 376.636 421.894C374.29 421.52 371.886 421.834 369.715 422.799C367.544 423.765 365.701 425.34 364.407 427.333C363.114 429.327 362.428 431.653 362.43 434.029H400.063C399.858 431.138 398.565 428.432 396.445 426.456C394.325 424.48 391.536 423.38 388.638 423.379Z" fill="#3F3D56"/>
<path opacity="0.08" d="M551.624 412.205C554.821 420.549 548.623 429.227 539.468 429.227L422.623 429.227C418.604 429.227 414.751 427.483 412.134 424.479L224.421 209.002C218.541 202.252 221.024 192.117 229.339 188.932L422.913 114.783C429.917 112.101 437.985 115.649 440.641 122.58L551.624 412.205Z" fill="#00569C"/>
<path opacity="0.08" d="M191.498 190.146C194.126 190.69 196.882 190.461 199.404 189.488L348.74 131.913C351.423 130.879 353.704 129.057 355.248 126.715L425.721 19.8544C432.622 9.39046 421.826 -3.17598 409.777 1.29517L46.6275 136.05C34.166 140.675 35.2388 157.79 48.1578 160.465L191.498 190.146Z" fill="#00569C"/>
<path opacity="0.08" d="M387.615 412.11C395.176 420.615 388.967 434.098 377.56 433.946L12.2119 429.079C3.84696 428.968 -2.23528 421.155 -0.299598 413.007L54.0685 184.167C55.7575 177.058 62.9234 172.67 70.0046 174.408L202.033 206.823C204.599 207.453 206.91 208.845 208.663 210.817L387.615 412.11Z" fill="#00569C"/>
</g>
<defs>
<clipPath id="clip0_162_33757">
<rect width="552" height="435" fill="white" transform="translate(0.845825)"/>
</clipPath>
</defs>
</svg>
