<svg width="1440" height="763" viewBox="0 0 1440 763" fill="none" xmlns="http://www.w3.org/2000/svg">
<g clip-path="url(#clip0_365_33079)">
<rect width="1440" height="763" fill="white"/>
<rect x="-0.00341797" y="-0.30957" width="1440" height="763.621" fill="url(#paint0_linear_365_33079)"/>
<g opacity="0.08">
<path d="M-79.9676 -68.0468C-80.2234 -75.3486 -75.5005 -81.8961 -68.491 -83.9572L89.2123 -130.328C97.6835 -132.819 106.571 -127.977 109.071 -119.509L194.052 168.349C197.205 179.029 188.755 189.584 177.643 188.844L-57.1293 173.198C-65.3195 172.652 -71.7681 165.997 -72.0555 157.793L-79.9676 -68.0468Z" fill="white"/>
<path d="M1029.04 -160.238C1028.79 -167.54 1033.51 -174.088 1040.52 -176.149L1286.05 -248.346C1294.52 -250.837 1303.41 -245.995 1305.91 -237.526L1436.49 204.771C1439.64 215.452 1431.19 226.006 1420.08 225.266L1056.08 201.008C1047.89 200.462 1041.45 193.807 1041.16 185.604L1029.04 -160.238Z" fill="white"/>
<path d="M1416.21 779.506C1412.44 785.765 1404.91 788.677 1397.91 786.581L1290.07 754.284C1281.61 751.75 1276.8 742.844 1279.33 734.383L1339.07 534.078C1342.26 523.406 1355.1 519.17 1364.01 525.851L1493.62 623.061C1500.19 627.986 1501.96 637.081 1497.73 644.113L1416.21 779.506Z" fill="white"/>
<path d="M319.12 724.412C315.205 728.31 309.556 729.912 304.178 728.651L251.627 716.329C240.989 713.834 235.926 701.647 241.664 692.349L278.065 633.36C282.391 626.35 291.334 623.77 298.729 627.399L357.527 656.25C367.39 661.089 369.553 674.201 361.767 681.952L319.12 724.412Z" fill="white"/>
<path d="M654.019 113.387C655.608 115.644 655.921 118.562 654.847 121.105L646.053 141.925C643.937 146.933 637.549 148.418 633.442 144.855L612.603 126.782C609.491 124.083 608.938 119.462 611.324 116.104L627.181 93.7924C630.379 89.2928 637.065 89.3076 640.243 93.8213L654.019 113.387Z" fill="white"/>
</g>
</g>
<defs>
<linearGradient id="paint0_linear_365_33079" x1="-0.00342873" y1="342.125" x2="1673.64" y2="342.125" gradientUnits="userSpaceOnUse">
<stop offset="0.197917" stop-color="#00569C"/>
<stop offset="1" stop-color="#00569C" stop-opacity="0.1"/>
</linearGradient>
<clipPath id="clip0_365_33079">
<rect width="1440" height="763" fill="white"/>
</clipPath>
</defs>
</svg>
