<svg width="129" height="128" viewBox="0 0 129 128" fill="none" xmlns="http://www.w3.org/2000/svg">
<path d="M75.0895 23.9999C75.0895 29.891 70.3139 34.6666 64.4228 34.6666C58.5318 34.6666 53.7562 29.891 53.7562 23.9999C53.7562 18.1089 58.5318 13.3333 64.4228 13.3333C70.3139 13.3333 75.0895 18.1089 75.0895 23.9999Z" fill="#4785B8"/>
<path fill-rule="evenodd" clip-rule="evenodd" d="M27.7562 29.3333L11.0895 69.5999C11.1784 73.5999 12.8895 76.9999 16.2229 79.7999C19.5562 82.5999 23.6229 83.9999 28.4229 83.9999C33.2229 83.9999 37.2895 82.5999 40.6229 79.7999C43.9562 76.9999 45.6673 73.5999 45.7562 69.5999L29.0895 29.3333H27.7562ZM38.4229 69.3333H18.4229L28.4229 44.7999L38.4229 69.3333Z" fill="#4785B8"/>
<path fill-rule="evenodd" clip-rule="evenodd" d="M99.7562 29.3333L83.0895 69.5999C83.1784 73.5999 84.8895 76.9999 88.2229 79.7999C91.5562 82.5999 95.6229 83.9999 100.423 83.9999C105.223 83.9999 109.29 82.5999 112.623 79.7999C115.956 76.9999 117.667 73.5999 117.756 69.5999L101.09 29.3333H99.7562ZM100.423 44.7999L110.423 69.3333H90.4229L100.423 44.7999Z" fill="#4785B8"/>
<path fill-rule="evenodd" clip-rule="evenodd" d="M13.0895 104C11.985 104 11.0895 104.896 11.0895 106V110C11.0895 111.105 11.985 112 13.0895 112H115.756C116.861 112 117.756 111.105 117.756 110V106C117.756 104.896 116.861 104 115.756 104H68.4229V39.4667C70.734 38.6667 72.8007 37.3556 74.6229 35.5334C76.4451 33.7112 77.7562 31.6445 78.5562 29.3334H110.423C111.527 29.3334 112.423 28.438 112.423 27.3334V23.3334C112.423 22.2288 111.527 21.3334 110.423 21.3334H78.5562C77.4895 18.2223 75.6673 15.6667 73.0895 13.6667C70.5118 11.6667 67.6229 10.6667 64.4229 10.6667C61.2229 10.6667 58.334 11.6667 55.7562 13.6667C53.1784 15.6667 51.3562 18.2223 50.2895 21.3334H18.4229C17.3183 21.3334 16.4229 22.2288 16.4229 23.3334V27.3334C16.4229 28.438 17.3183 29.3334 18.4229 29.3334H50.2895C51.0895 31.6445 52.4006 33.7112 54.2229 35.5334C56.0451 37.3556 58.1118 38.6667 60.4229 39.4667V104H13.0895ZM69.1562 30.0001C67.8673 31.3334 66.2895 32.0001 64.4229 32.0001C62.6451 32.0001 61.0895 31.3334 59.7562 30.0001C58.4229 28.6667 57.7562 27.1112 57.7562 25.3334C57.7562 23.4667 58.4229 21.889 59.7562 20.6001C61.0895 19.3112 62.6451 18.6667 64.4229 18.6667C66.2895 18.6667 67.8673 19.3112 69.1562 20.6001C70.4451 21.889 71.0895 23.4667 71.0895 25.3334C71.0895 27.1112 70.4451 28.6667 69.1562 30.0001Z" fill="#00569C"/>
</svg>
