<svg width="1440" height="512" viewBox="0 0 1440 512" fill="none" xmlns="http://www.w3.org/2000/svg">
<g clip-path="url(#clip0_512_39610)">
<rect width="1440" height="512" fill="#6FCF97"/>
<path opacity="0.64" d="M577.45 334.152L353.894 -49.8108C348.359 -59.3178 338.328 -65.315 327.334 -65.6909L-31.4066 -77.9555C-49.4978 -78.574 -64.5 -64.0759 -64.5 -45.9742V505.724C-64.5 520.035 -54.9968 532.607 -41.2275 536.51L361.094 650.561C374.45 654.348 388.724 649.09 396.433 637.545L576.408 368.024C583.196 357.859 583.6 344.715 577.45 334.152Z" fill="url(#paint0_linear_512_39610)"/>
<path d="M661.228 185.913L637.132 118.233H652.396L667.948 164.505L684.364 118.233H695.116L711.052 165.273L727.18 118.233H741.58L717.292 185.913H705.196L689.356 140.985L673.324 185.913H661.228ZM758.629 186.969C755.109 186.969 752.005 186.297 749.317 184.953C746.629 183.609 744.485 181.785 742.885 179.481C741.349 177.177 740.581 174.585 740.581 171.705C740.581 168.313 741.477 165.593 743.269 163.545C745.061 161.497 747.973 160.057 752.005 159.225C756.037 158.329 761.381 157.881 768.037 157.881H771.493V156.249C771.493 153.433 770.853 151.449 769.573 150.297C768.293 149.081 766.117 148.473 763.045 148.473C760.485 148.473 757.765 148.889 754.885 149.721C752.069 150.489 749.253 151.673 746.437 153.273L742.501 143.577C744.165 142.489 746.181 141.497 748.549 140.601C750.981 139.705 753.509 139.033 756.133 138.585C758.757 138.073 761.253 137.817 763.621 137.817C770.917 137.817 776.357 139.481 779.941 142.809C783.525 146.073 785.317 151.161 785.317 158.073V185.913H771.781V178.809C770.821 181.305 769.189 183.289 766.885 184.761C764.645 186.233 761.893 186.969 758.629 186.969ZM761.893 177.273C764.581 177.273 766.853 176.345 768.709 174.489C770.565 172.633 771.493 170.233 771.493 167.289V165.369H768.133C763.205 165.369 759.717 165.817 757.669 166.713C755.621 167.545 754.597 169.017 754.597 171.129C754.597 172.921 755.205 174.393 756.421 175.545C757.701 176.697 759.525 177.273 761.893 177.273ZM814.179 186.969C810.019 186.969 806.147 186.489 802.562 185.529C798.979 184.569 796.003 183.257 793.635 181.593L797.091 172.185C799.459 173.657 802.147 174.841 805.155 175.737C808.227 176.569 811.267 176.985 814.275 176.985C816.963 176.985 818.947 176.569 820.227 175.737C821.507 174.841 822.147 173.689 822.147 172.281C822.147 170.041 820.515 168.633 817.251 168.057L807.171 166.233C803.139 165.529 800.067 164.089 797.955 161.913C795.843 159.737 794.787 156.889 794.787 153.369C794.787 150.169 795.683 147.417 797.475 145.113C799.267 142.809 801.731 141.017 804.867 139.737C808.003 138.457 811.619 137.817 815.715 137.817C819.107 137.817 822.403 138.265 825.603 139.161C828.803 139.993 831.555 141.337 833.859 143.193L830.211 152.505C828.291 151.097 825.987 149.945 823.299 149.049C820.675 148.153 818.211 147.705 815.906 147.705C813.027 147.705 810.947 148.185 809.667 149.145C808.387 150.041 807.747 151.193 807.747 152.601C807.747 154.841 809.251 156.249 812.259 156.825L822.339 158.649C826.499 159.353 829.667 160.761 831.843 162.873C834.019 164.921 835.107 167.737 835.107 171.321C835.107 176.249 833.187 180.089 829.347 182.841C825.507 185.593 820.451 186.969 814.179 186.969ZM843.381 185.913V118.233H857.877V145.209C859.541 142.777 861.685 140.953 864.309 139.737C866.933 138.457 869.845 137.817 873.045 137.817C884.117 137.817 889.653 144.409 889.653 157.593V185.913H875.157V158.265C875.157 155.001 874.549 152.665 873.333 151.257C872.117 149.785 870.325 149.049 867.957 149.049C864.885 149.049 862.421 150.009 860.565 151.929C858.773 153.849 857.877 156.409 857.877 159.609V185.913H843.381ZM642.316 281.913V214.233H673.228C680.78 214.233 686.604 216.153 690.7 219.993C694.796 223.769 696.844 229.049 696.844 235.833C696.844 242.617 694.796 247.929 690.7 251.769C686.604 255.609 680.78 257.529 673.228 257.529H657.196V281.913H642.316ZM657.196 246.009H670.732C678.604 246.009 682.54 242.617 682.54 235.833C682.54 229.177 678.604 225.849 670.732 225.849H657.196V246.009ZM703.881 281.913V234.777H718.089V242.937C720.329 237.433 725.129 234.393 732.489 233.817L736.713 233.529L737.577 245.721L729.417 246.585C722.249 247.289 718.665 250.937 718.665 257.529V281.913H703.881ZM765.255 282.969C760.199 282.969 755.783 281.977 752.007 279.993C748.295 277.945 745.415 275.097 743.367 271.449C741.319 267.737 740.295 263.353 740.295 258.297C740.295 253.305 741.319 248.985 743.367 245.337C745.415 241.625 748.295 238.777 752.007 236.793C755.783 234.809 760.199 233.817 765.255 233.817C770.311 233.817 774.695 234.809 778.407 236.793C782.183 238.777 785.095 241.625 787.143 245.337C789.255 248.985 790.311 253.305 790.311 258.297C790.311 263.353 789.255 267.737 787.143 271.449C785.095 275.097 782.183 277.945 778.407 279.993C774.695 281.977 770.311 282.969 765.255 282.969ZM765.255 272.121C768.327 272.121 770.823 271.001 772.743 268.761C774.727 266.521 775.719 263.033 775.719 258.297C775.719 253.625 774.727 250.201 772.743 248.025C770.823 245.785 768.327 244.665 765.255 244.665C762.183 244.665 759.687 245.785 757.767 248.025C755.847 250.201 754.887 253.625 754.887 258.297C754.887 263.033 755.847 266.521 757.767 268.761C759.687 271.001 762.183 272.121 765.255 272.121ZM821.786 300.249C817.243 300.249 812.987 299.769 809.019 298.809C805.115 297.849 801.691 296.345 798.747 294.297L802.683 284.409C805.243 286.009 808.123 287.225 811.323 288.057C814.587 288.953 817.659 289.401 820.539 289.401C828.731 289.401 832.827 285.625 832.827 278.073V272.697C831.547 275.129 829.531 277.081 826.779 278.553C824.027 280.025 821.019 280.761 817.755 280.761C813.531 280.761 809.851 279.801 806.715 277.881C803.579 275.897 801.147 273.145 799.419 269.625C797.691 266.105 796.827 261.977 796.827 257.241C796.827 252.569 797.691 248.473 799.419 244.953C801.147 241.433 803.579 238.713 806.715 236.793C809.851 234.809 813.531 233.817 817.755 233.817C821.147 233.817 824.187 234.553 826.875 236.025C829.563 237.497 831.547 239.449 832.827 241.881V234.777H846.939V276.441C846.939 284.377 844.795 290.329 840.507 294.297C836.219 298.265 829.979 300.249 821.786 300.249ZM822.075 269.913C825.275 269.913 827.835 268.793 829.755 266.553C831.739 264.313 832.731 261.209 832.731 257.241C832.731 253.273 831.739 250.201 829.755 248.025C827.835 245.785 825.275 244.665 822.075 244.665C818.811 244.665 816.219 245.785 814.299 248.025C812.379 250.201 811.419 253.273 811.419 257.241C811.419 261.209 812.379 264.313 814.299 266.553C816.219 268.793 818.811 269.913 822.075 269.913ZM858.193 281.913V234.777H872.401V242.937C874.641 237.433 879.441 234.393 886.801 233.817L891.025 233.529L891.889 245.721L883.729 246.585C876.561 247.289 872.977 250.937 872.977 257.529V281.913H858.193ZM913.223 282.969C909.703 282.969 906.599 282.297 903.911 280.953C901.223 279.609 899.079 277.785 897.479 275.481C895.943 273.177 895.175 270.585 895.175 267.705C895.175 264.313 896.071 261.593 897.863 259.545C899.655 257.497 902.567 256.057 906.599 255.225C910.631 254.329 915.975 253.881 922.631 253.881H926.087V252.249C926.087 249.433 925.447 247.449 924.167 246.297C922.887 245.081 920.711 244.473 917.639 244.473C915.079 244.473 912.359 244.889 909.479 245.721C906.663 246.489 903.847 247.673 901.031 249.273L897.095 239.577C898.759 238.489 900.775 237.497 903.143 236.601C905.575 235.705 908.103 235.033 910.727 234.585C913.351 234.073 915.847 233.817 918.215 233.817C925.511 233.817 930.951 235.481 934.535 238.809C938.119 242.073 939.911 247.161 939.911 254.073V281.913H926.375V274.809C925.415 277.305 923.783 279.289 921.479 280.761C919.239 282.233 916.487 282.969 913.223 282.969ZM916.487 273.273C919.175 273.273 921.447 272.345 923.303 270.489C925.159 268.633 926.087 266.233 926.087 263.289V261.369H922.727C917.799 261.369 914.311 261.817 912.263 262.713C910.215 263.545 909.191 265.017 909.191 267.129C909.191 268.921 909.799 270.393 911.015 271.545C912.295 272.697 914.119 273.273 916.487 273.273ZM950.916 281.913V234.777H965.124V241.593C966.532 239.161 968.452 237.273 970.884 235.929C973.38 234.521 976.26 233.817 979.524 233.817C982.852 233.817 985.668 234.553 987.972 236.025C990.34 237.497 992.132 239.737 993.348 242.745C994.82 239.929 996.932 237.753 999.684 236.217C1002.5 234.617 1005.6 233.817 1009 233.817C1014.37 233.817 1018.37 235.449 1021 238.713C1023.62 241.913 1024.93 246.873 1024.93 253.593V281.913H1010.44V254.073C1010.44 250.937 1009.92 248.665 1008.9 247.257C1007.94 245.785 1006.28 245.049 1003.91 245.049C1001.16 245.049 999.012 246.009 997.476 247.929C995.94 249.849 995.172 252.569 995.172 256.089V281.913H980.676V254.073C980.676 250.937 980.164 248.665 979.14 247.257C978.116 245.785 976.452 245.049 974.148 245.049C971.396 245.049 969.252 246.009 967.716 247.929C966.18 249.849 965.412 252.569 965.412 256.089V281.913H950.916Z" fill="white"/>
<path d="M441.912 288.686C314.984 241.105 160.178 287.492 70.7987 382.379C70.2906 382.912 69.7826 383.452 69.2906 383.992H67.9277C68.3955 383.452 68.8793 382.912 69.3551 382.379C160.589 280.275 313.339 239.581 441.912 288.686Z" fill="#3F3D56"/>
<path d="M476.598 304.468C465.378 298.485 453.794 293.213 441.912 288.686C453.825 293.139 465.414 298.412 476.598 304.468Z" fill="#3F3D56"/>
<path d="M409.096 375.291C410.462 380.341 415.141 383.469 415.141 383.469C415.141 383.469 417.606 378.409 416.24 373.359C414.873 368.309 410.194 365.182 410.194 365.182C410.194 365.182 407.73 370.242 409.096 375.291Z" fill="#3F3D56"/>
<path d="M411.105 374.206C414.853 377.855 415.311 383.464 415.311 383.464C415.311 383.464 409.691 383.158 405.943 379.509C402.194 375.859 401.736 370.25 401.736 370.25C401.736 370.25 407.356 370.557 411.105 374.206Z" fill="#219653"/>
<path d="M32.7094 305.077V312.867L32.3223 313.286V304.996C32.4513 305.02 32.5804 305.053 32.7094 305.077Z" fill="#3F3D56"/>
<path d="M57.5319 382.375C57.419 382.561 57.2981 382.746 57.1771 382.931H32.3223V305.464L32.7094 305.077L36.0078 308.827V303.343H46.4916V320.746L57.0803 332.77L57.1771 332.883C57.3061 333.286 57.4271 333.69 57.5481 334.093C57.5489 334.099 57.5517 334.105 57.5561 334.109C59.1442 339.191 60.4473 344.358 61.4594 349.585C63.7658 361.915 63.419 373.222 57.5319 382.375Z" fill="#CCCCCC"/>
<path d="M41.0479 347.897H34.375V353.458H41.0479V347.897Z" fill="#3F3D56"/>
<path d="M41.0479 357.907H34.375V363.468H41.0479V357.907Z" fill="#3F3D56"/>
<path d="M246.602 337.332L243.266 331.772L274.406 305.08C297.428 293.999 325.179 297.196 354.482 305.08V312.864L325.566 344.005L292.2 350.678L246.602 337.332Z" fill="#3F3D56"/>
<path d="M368.267 320.743C373.797 314.592 374.565 308.743 368.267 303.342H357.783V308.829L354.483 305.079L327.791 331.771L323.342 336.219L317.781 358.463L327.791 382.93H378.95V332.883L368.267 320.743Z" fill="#CCCCCC"/>
<path d="M243.266 331.771H327.79V382.93H243.266C233.041 371.867 238.353 351.702 243.266 331.771Z" fill="#F2F2F2"/>
<path d="M316.115 347.897H298.32V363.468H316.115V347.897Z" fill="#3F3D56"/>
<path d="M291.088 347.341H275.518V382.93H291.088V347.341Z" fill="#CCCCCC"/>
<path d="M257.723 352.903V347.342H251.051V352.903H257.167H257.723Z" fill="#3F3D56"/>
<path d="M257.167 357.351H251.051V362.912H257.723V357.351H257.167Z" fill="#3F3D56"/>
<path d="M268.847 347.341H262.174V352.902H268.847V347.341Z" fill="#3F3D56"/>
<path d="M268.847 357.351H262.174V362.912H268.847V357.351Z" fill="#3F3D56"/>
<path d="M351.701 353.459V347.897H345.027V353.459H351.144H351.701Z" fill="#3F3D56"/>
<path d="M351.144 357.907H345.027V363.468H351.701V357.907H351.144Z" fill="#3F3D56"/>
<path d="M362.823 347.897H356.15V353.458H362.823V347.897Z" fill="#3F3D56"/>
<path d="M362.823 357.907H356.15V363.468H362.823V357.907Z" fill="#3F3D56"/>
<path d="M96.1015 243.911L90.541 239.462L121.681 211.658H200.644V236.126L149.485 270.603L96.1015 243.911Z" fill="#3F3D56"/>
<path d="M215.041 227.255V212.214H204.557V215.898L200.644 211.658L175.064 239.462L165.055 246.136L149.535 359.525L172.941 382.931H227.336C235.67 341.005 242.279 297.935 227.336 240.574L215.041 227.255Z" fill="#CCCCCC"/>
<path d="M90.5387 239.462H175.063V382.931H90.5387C81.2894 327.194 76.7722 275.507 90.5387 239.462Z" fill="#F2F2F2"/>
<path d="M138.92 347.897H123.35V382.93H138.92V347.897Z" fill="#CCCCCC"/>
<path d="M106.669 357.908V352.347H99.9961V357.908H106.113H106.669Z" fill="#3F3D56"/>
<path d="M106.113 362.356H99.9961V367.917H106.669V362.356H106.113Z" fill="#3F3D56"/>
<path d="M117.788 352.346H111.115V357.907H117.788V352.346Z" fill="#3F3D56"/>
<path d="M151.709 362.356H145.592V367.917H152.264V362.356H151.709Z" fill="#3F3D56"/>
<path d="M163.388 352.346H156.715V357.907H163.388V352.346Z" fill="#3F3D56"/>
<path d="M163.388 362.356H156.715V367.917H163.388V362.356Z" fill="#3F3D56"/>
<path d="M198.975 246.691V241.131H192.303V246.691H198.42H198.975Z" fill="#3F3D56"/>
<path d="M198.42 251.141H192.303V256.701H198.975V251.141H198.42Z" fill="#3F3D56"/>
<path d="M210.097 241.13H203.424V246.691H210.097V241.13Z" fill="#3F3D56"/>
<path d="M210.097 251.14H203.424V256.7H210.097V251.14Z" fill="#3F3D56"/>
<path d="M198.975 277.832V272.271H192.303V277.832H198.42H198.975Z" fill="#3F3D56"/>
<path d="M198.42 282.281H192.303V287.841H198.975V282.281H198.42Z" fill="#3F3D56"/>
<path d="M210.097 272.271H203.424V277.831H210.097V272.271Z" fill="#3F3D56"/>
<path d="M210.097 282.28H203.424V287.841H210.097V282.28Z" fill="#3F3D56"/>
<path d="M198.975 308.973V303.412H192.303V308.973H198.42H198.975Z" fill="#3F3D56"/>
<path d="M198.42 313.421H192.303V318.981H198.975V313.421H198.42Z" fill="#3F3D56"/>
<path d="M210.097 303.412H203.424V308.972H210.097V303.412Z" fill="#3F3D56"/>
<path d="M210.097 313.42H203.424V318.981H210.097V313.42Z" fill="#3F3D56"/>
<path d="M198.975 340.113V334.552H192.303V340.113H198.42H198.975Z" fill="#3F3D56"/>
<path d="M198.42 344.562H192.303V350.122H198.975V344.562H198.42Z" fill="#3F3D56"/>
<path d="M210.097 334.552H203.424V340.113H210.097V334.552Z" fill="#3F3D56"/>
<path d="M210.097 344.561H203.424V350.121H210.097V344.561Z" fill="#3F3D56"/>
<path d="M99.9961 246.691H164.501V260.037C143.825 254.331 122.264 254.74 99.9961 260.037V246.691Z" fill="#3F3D56"/>
<path d="M99.9961 273.383C120.129 279.315 141.631 279.315 164.501 273.383V286.729H99.9961V273.383Z" fill="#3F3D56"/>
<path d="M99.9961 300.075H164.501V313.421C142.518 306.401 120.994 306.07 99.9961 313.421V300.075Z" fill="#3F3D56"/>
<path d="M99.9961 326.767C121.033 334.874 142.554 334.537 164.501 326.767V340.113H99.9961V326.767Z" fill="#3F3D56"/>
<path d="M446.678 303.581H492.001V325.419L487.952 326.686L474.485 330.889L453.355 325.994L432.251 321.104L421.106 318.522L415.541 316.463C420.17 310.112 428.589 305.116 446.678 303.581Z" fill="#3F3D56"/>
<path d="M492 316.463V382.931H415.541C415.516 382.89 415.5 382.853 415.476 382.812V382.808C415.458 382.762 415.436 382.717 415.412 382.674C414.218 380.271 413.148 377.875 412.202 375.485C404.178 355.26 405.049 335.57 415.541 316.463H492Z" fill="#F2F2F2"/>
<path d="M463.92 347.897H448.35V382.93H463.92V347.897Z" fill="#CCCCCC"/>
<path d="M431.669 357.908V352.347H424.996V357.908H431.113H431.669Z" fill="#3F3D56"/>
<path d="M431.113 362.356H424.996V367.917H431.669V362.356H431.113Z" fill="#3F3D56"/>
<path d="M442.788 352.346H436.115V357.907H442.788V352.346Z" fill="#3F3D56"/>
<path d="M442.788 362.356H436.115V367.917H442.788V362.356Z" fill="#3F3D56"/>
<path d="M477.264 357.908V352.347H470.592V357.908H476.709H477.264Z" fill="#3F3D56"/>
<path d="M476.709 362.356H470.592V367.917H477.264V362.356H476.709Z" fill="#3F3D56"/>
<path d="M488.388 352.346H481.715V357.907H488.388V352.346Z" fill="#3F3D56"/>
<path d="M488.388 362.356H481.715V367.917H488.388V362.356Z" fill="#3F3D56"/>
<path d="M432.252 277.774H441.837C451.291 277.774 460.358 281.53 467.043 288.215C473.728 294.9 477.484 303.967 477.484 313.421H432.252V277.774Z" fill="#3F3D56"/>
<path d="M141.932 181H151.517C160.971 181 170.038 184.756 176.723 191.441C183.408 198.126 187.163 207.192 187.163 216.646H141.932V181Z" fill="#3F3D56"/>
<path d="M295.156 270.517H304.742C314.196 270.517 323.262 274.272 329.947 280.957C336.632 287.642 340.388 296.709 340.388 306.163H295.156V270.517Z" fill="#3F3D56"/>
<path d="M477.484 326.767H432.252V340.113H477.484V326.767Z" fill="#3F3D56"/>
<path d="M492 382.379H32.3223V383.992H492V382.379Z" fill="#3F3D56"/>
<path d="M74.7164 318.665H73.1035V382.375H74.7164V318.665Z" fill="#3F3D56"/>
<path d="M89.6026 326.785C89.7052 349.062 74.0317 367.195 74.0317 367.195C74.0317 367.195 53.9597 348.822 58.089 326.93C62.2419 304.913 75.185 286.613 73.6599 286.52C73.6599 286.52 89.4999 304.507 89.6026 326.785Z" fill="#219653"/>
<path d="M236.007 318.665H234.395V382.375H236.007V318.665Z" fill="#3F3D56"/>
<path d="M250.893 326.785C252.347 349.015 235.322 367.195 235.322 367.195C235.322 367.195 219.482 349.208 219.379 326.93C219.277 304.652 234.95 286.52 234.95 286.52C233.422 292.627 249.717 308.798 250.893 326.785Z" fill="#219653"/>
<path d="M131.219 215.104L201.278 211.677L230.668 236.208L225.472 240.899L178.932 239.852L131.219 215.104Z" fill="#3F3D56"/>
<path d="M61.3145 328.948L57.5403 332.359L57.0807 332.771L56.121 333.642L32.3226 333.109V304.996C31.5484 304.827 30.7742 304.666 30 304.513L31.9274 304.416L32.3226 304.746L36.0081 307.819L46.4919 316.577L58.2016 326.351L61.3145 328.948Z" fill="#3F3D56"/>
<path d="M284.447 307.846L354.507 304.418L383.896 328.95L378.7 333.641L332.161 332.593L284.447 307.846Z" fill="#3F3D56"/>
<path opacity="0.08" d="M1096.07 311.984C1100.48 312.324 1104.23 315.297 1105.56 319.509L1187.89 578.911C1190.65 587.626 1182.09 595.729 1173.55 592.478L940.46 503.756C937.208 502.519 934.753 499.798 933.851 496.434L883.958 310.261C882.005 302.973 887.875 295.909 895.402 296.49L1096.07 311.984Z" fill="white"/>
<path opacity="0.08" d="M1359.88 229.692C1358.45 232.674 1355.75 234.85 1352.53 235.614L1133.93 287.505C1132.45 287.856 1130.92 287.895 1129.42 287.62L1030.34 269.383C1019.65 267.417 1018.05 252.77 1028.05 248.536L1406.33 88.3957C1415.61 84.4651 1424.83 94.1131 1420.47 103.206L1359.88 229.692Z" fill="white"/>
<path opacity="0.08" d="M1476.08 227.575C1488.19 224.073 1499.56 234.948 1496.61 247.198L1424.68 545.54C1423.08 552.178 1417.54 557.132 1410.76 557.984L1246.43 578.645C1238.48 579.644 1230.98 574.767 1228.66 567.103L1159.01 336.609C1156.36 327.855 1161.38 318.627 1170.16 316.085L1476.08 227.575Z" fill="white"/>
</g>
<defs>
<linearGradient id="paint0_linear_512_39610" x1="-10" y1="274.413" x2="617" y2="274.413" gradientUnits="userSpaceOnUse">
<stop stop-color="white" stop-opacity="0"/>
<stop offset="1" stop-color="white"/>
</linearGradient>
<clipPath id="clip0_512_39610">
<rect width="1440" height="512" fill="white"/>
</clipPath>
</defs>
</svg>
