<svg width="129" height="128" viewBox="0 0 129 128" fill="none" xmlns="http://www.w3.org/2000/svg">
<g filter="url(#filter0_d_162_33998)">
<path d="M39.5015 106.667C38.3969 106.667 37.5015 105.771 37.5015 104.667V94.1332C37.5015 91.0221 38.3015 88.1999 39.9015 85.6665C41.5015 83.1332 43.7237 81.2443 46.5681 79.9999C53.057 77.1554 58.9015 75.111 64.1015 73.8665C69.3015 72.6221 74.657 71.9999 80.1681 71.9999C85.6792 71.9999 91.0126 72.6221 96.1681 73.8665C101.324 75.111 107.146 77.1554 113.635 79.9999C116.479 81.2443 118.724 83.1332 120.368 85.6665C122.013 88.1999 122.835 91.0221 122.835 94.1332V104.667C122.835 105.771 121.939 106.667 120.835 106.667H39.5015ZM80.1681 63.8665C74.3015 63.8665 69.5015 61.9999 65.7681 58.2665C62.0348 54.5332 60.1681 49.7332 60.1681 43.8665C60.1681 37.9999 62.0348 33.1999 65.7681 29.4665C69.5015 25.7332 74.3015 23.8665 80.1681 23.8665C86.0348 23.8665 90.8348 25.7332 94.5681 29.4665C98.3015 33.1999 100.168 37.9999 100.168 43.8665C100.168 49.7332 98.3015 54.5332 94.5681 58.2665C90.8348 61.9999 86.0348 63.8665 80.1681 63.8665Z" fill="#4785B8"/>
<path d="M7.50174 106.667C6.39717 106.667 5.50174 105.771 5.50174 104.667V94.1333C5.50174 91.0222 6.30174 88.2 7.90174 85.6667C9.50174 83.1333 11.724 81.2444 14.5684 80C21.0573 77.1556 26.9017 75.1111 32.1017 73.8667C37.3017 72.6222 42.6573 72 48.1684 72C53.6795 72 59.0129 72.6222 64.1684 73.8667C69.324 75.1111 75.1462 77.1556 81.6351 80C84.4795 81.2444 86.724 83.1333 88.3684 85.6667C90.0129 88.2 90.8351 91.0222 90.8351 94.1333V104.667C90.8351 105.771 89.9396 106.667 88.8351 106.667H7.50174ZM48.1684 63.8667C42.3017 63.8667 37.5017 62 33.7684 58.2667C30.0351 54.5333 28.1684 49.7333 28.1684 43.8667C28.1684 38 30.0351 33.2 33.7684 29.4667C37.5017 25.7333 42.3017 23.8667 48.1684 23.8667C54.0351 23.8667 58.8351 25.7333 62.5684 29.4667C66.3017 33.2 68.1684 38 68.1684 43.8667C68.1684 49.7333 66.3017 54.5333 62.5684 58.2667C58.8351 62 54.0351 63.8667 48.1684 63.8667Z" fill="#00569C"/>
</g>
<defs>
<filter id="filter0_d_162_33998" x="-3.56494" y="0" width="136" height="136" filterUnits="userSpaceOnUse" color-interpolation-filters="sRGB">
<feFlood flood-opacity="0" result="BackgroundImageFix"/>
<feColorMatrix in="SourceAlpha" type="matrix" values="0 0 0 0 0 0 0 0 0 0 0 0 0 0 0 0 0 0 127 0" result="hardAlpha"/>
<feOffset dy="4"/>
<feGaussianBlur stdDeviation="2"/>
<feComposite in2="hardAlpha" operator="out"/>
<feColorMatrix type="matrix" values="0 0 0 0 0 0 0 0 0 0 0 0 0 0 0 0 0 0 0.25 0"/>
<feBlend mode="normal" in2="BackgroundImageFix" result="effect1_dropShadow_162_33998"/>
<feBlend mode="normal" in="SourceGraphic" in2="effect1_dropShadow_162_33998" result="shape"/>
</filter>
</defs>
</svg>
