<svg width="129" height="128" viewBox="0 0 129 128" fill="none" xmlns="http://www.w3.org/2000/svg">
<path d="M64.4229 30.1333C61.7562 30.1333 59.4673 29.1777 57.5562 27.2666C55.6451 25.3555 54.6895 23.0666 54.6895 20.4C54.6895 17.7333 55.6451 15.4444 57.5562 13.5333C59.4673 11.6222 61.7562 10.6666 64.4229 10.6666C67.0895 10.6666 69.3784 11.6222 71.2895 13.5333C73.2006 15.4444 74.1562 17.7333 74.1562 20.4C74.1562 23.0666 73.2006 25.3555 71.2895 27.2666C69.3784 29.1777 67.0895 30.1333 64.4229 30.1333ZM52.8229 117.333C51.3501 117.333 50.1562 116.139 50.1562 114.667V48.7444C50.1562 47.3475 49.078 46.1888 47.6858 46.0742C42.5158 45.6485 37.4948 45.0905 32.6229 44.4C27.9265 43.7343 23.3993 42.9149 19.0414 41.9416C17.5958 41.6187 16.7157 40.1621 17.0749 38.7251L17.785 35.8847C18.1387 34.4699 19.563 33.6037 20.9872 33.9174C27.6785 35.3913 34.3348 36.4633 40.9562 37.1333C48.4229 37.8888 56.2451 38.2666 64.4229 38.2666C72.6006 38.2666 80.4229 37.8888 87.8895 37.1333C94.5109 36.4633 101.167 35.3913 107.859 33.9174C109.283 33.6037 110.707 34.4699 111.061 35.8847L111.771 38.7251C112.13 40.1621 111.25 41.6187 109.804 41.9416C105.446 42.9149 100.919 43.7343 96.2229 44.4C91.3509 45.0905 86.3299 45.6485 81.16 46.0742C79.7678 46.1888 78.6895 47.3475 78.6895 48.7444V114.667C78.6895 116.139 77.4956 117.333 76.0229 117.333H73.3562C71.8834 117.333 70.6895 116.139 70.6895 114.667V85.3333C70.6895 83.8605 69.4956 82.6666 68.0229 82.6666H60.8229C59.3501 82.6666 58.1562 83.8605 58.1562 85.3333V114.667C58.1562 116.139 56.9623 117.333 55.4895 117.333H52.8229Z" fill="#00569C"/>
</svg>
