<svg width="129" height="128" viewBox="0 0 129 128" fill="none" xmlns="http://www.w3.org/2000/svg">
<g filter="url(#filter0_d_162_34001)">
<path d="M8.26856 113.467C7.16399 113.467 6.26855 112.571 6.26855 111.467V62.9334C6.26855 61.8288 7.16399 60.9333 8.26855 60.9333H33.0394C34.144 60.9333 35.0394 61.8288 35.0394 62.9333V111.467C35.0394 112.571 34.144 113.467 33.0394 113.467H8.26856Z" fill="#00569C"/>
<path d="M76.974 119.554C76.6007 119.671 76.2012 119.676 75.8251 119.568L34.9351 107.867V62.9334H47.1088C47.3466 62.9334 47.5825 62.9758 47.8054 63.0586L76.5351 73.7334C81.6017 75.6001 85.0684 77.5779 86.9351 79.6667C88.8017 81.7556 89.7351 83.8667 89.7351 86.0001C89.7351 86.9779 89.4906 87.6667 89.0017 88.0667C88.5128 88.4667 87.9573 88.6667 87.3351 88.6667H69.7351C69.4377 88.6667 69.2049 88.676 69.0296 88.6875C68.7464 88.7062 68.4589 88.6986 68.1895 88.6092C68.0396 88.5594 67.8455 88.4915 67.6017 88.4001L58.6669 85.3154C57.3986 84.8776 56.01 85.5126 55.5118 86.7583C54.9796 88.0888 55.6652 89.5943 57.0181 90.0663L66.0017 93.2001C66.8906 93.5556 67.4684 93.7112 67.7351 93.6667C68.0017 93.6223 69.1573 93.6001 71.2017 93.6001H102.135C106.402 93.6001 109.98 94.6667 112.868 96.8001C115.757 98.9334 117.202 101.556 117.202 104.667V105.465C117.202 106.339 116.634 107.111 115.8 107.373L76.974 119.554Z" fill="#4785B8"/>
<path d="M88.5318 65.7441C87.776 66.4226 86.6277 66.4223 85.872 65.7436C75.1093 56.0765 67.4859 48.3175 63.0017 42.4667C58.335 36.3778 56.0017 30.9334 56.0017 26.1334C56.0017 21.6889 57.535 17.9556 60.6017 14.9334C63.6684 11.9112 67.3795 10.4001 71.735 10.4001C74.5795 10.4001 77.2906 11.0889 79.8684 12.4667C82.4462 13.8445 84.8906 15.8667 87.2017 18.5334C89.4239 15.8667 91.8239 13.8445 94.4017 12.4667C96.9795 11.0889 99.6906 10.4001 102.535 10.4001C106.891 10.4001 110.602 11.9112 113.668 14.9334C116.735 17.9556 118.268 21.6889 118.268 26.1334C118.268 30.9334 115.935 36.4001 111.268 42.5334C106.786 48.4249 99.2069 56.1618 88.5318 65.7441Z" fill="#00569C"/>
</g>
<defs>
<filter id="filter0_d_162_34001" x="-3.06494" y="0" width="136" height="136" filterUnits="userSpaceOnUse" color-interpolation-filters="sRGB">
<feFlood flood-opacity="0" result="BackgroundImageFix"/>
<feColorMatrix in="SourceAlpha" type="matrix" values="0 0 0 0 0 0 0 0 0 0 0 0 0 0 0 0 0 0 127 0" result="hardAlpha"/>
<feOffset dy="4"/>
<feGaussianBlur stdDeviation="2"/>
<feComposite in2="hardAlpha" operator="out"/>
<feColorMatrix type="matrix" values="0 0 0 0 0 0 0 0 0 0 0 0 0 0 0 0 0 0 0.25 0"/>
<feBlend mode="normal" in2="BackgroundImageFix" result="effect1_dropShadow_162_34001"/>
<feBlend mode="normal" in="SourceGraphic" in2="effect1_dropShadow_162_34001" result="shape"/>
</filter>
</defs>
</svg>
