<svg width="61" height="74" viewBox="0 0 61 74" fill="none" xmlns="http://www.w3.org/2000/svg">
<path fill-rule="evenodd" clip-rule="evenodd" d="M27.0895 70.3333H20.4229C16.741 70.3333 13.7562 67.3485 13.7562 63.6666H0.422852V45.3333L13.7562 35.3333V23.6666C13.7562 13.1463 20.1347 0.333252 30.4229 0.333252C40.711 0.333252 47.0895 13.1463 47.0895 23.6666V35.3333L60.4229 45.3333V63.6666H47.0895C47.0895 67.3485 44.1047 70.3333 40.4229 70.3333H33.7562V73.6666H27.0895V70.3333ZM33.7562 63.6666H40.4229V30.3333V23.6666C40.4229 16.3574 35.7646 6.99992 30.4229 6.99992C25.0811 6.99992 20.4229 16.3574 20.4229 23.6666V30.3333V63.6666H27.0895V43.6666H33.7562V63.6666ZM13.7562 43.6666L7.08952 48.6666V56.9999H13.7562V43.6666ZM47.0895 43.6666V56.9999H53.7562V48.6666L47.0895 43.6666ZM30.4229 33.6666C26.741 33.6666 23.7562 30.6818 23.7562 26.9999C23.7562 23.318 26.741 20.3333 30.4229 20.3333C34.1047 20.3333 37.0895 23.318 37.0895 26.9999C37.0895 30.6818 34.1047 33.6666 30.4229 33.6666Z" fill="white"/>
</svg>
