<svg width="553" height="451" viewBox="0 0 553 451" fill="none" xmlns="http://www.w3.org/2000/svg">
<g clip-path="url(#clip0_162_33721)">
<path opacity="0.16" d="M549.282 404.285C556.657 411.437 550.968 423.876 540.728 422.993L432.865 413.693C430.274 413.47 427.847 412.331 426.022 410.482L232.34 214.315C225.529 207.416 230.422 195.733 240.123 195.733L329.798 195.733C332.641 195.733 335.373 196.84 337.413 198.818L549.282 404.285Z" fill="#00569C"/>
<path opacity="0.16" d="M214.891 179.787C216.106 180.236 217.39 180.466 218.685 180.466L374.982 180.466C380.414 180.466 385.022 176.482 385.8 171.112L408.763 12.6114C409.958 4.3617 401.828 -2.12812 394.034 0.853801L95.2431 115.171C85.8255 118.774 85.9013 132.107 95.3593 135.603L214.891 179.787Z" fill="#00569C"/>
<path d="M390.222 410.887C403.856 426.443 392.737 450.809 372.051 450.707L143.547 449.572C133.953 449.524 125.31 443.768 121.568 434.934L9.06286 169.291C0.91956 150.063 19.5183 130.325 39.1958 137.313L194.817 192.57C198.682 193.943 202.13 196.282 204.833 199.367L390.222 410.887Z" fill="#00569C"/>
<path d="M111.707 330.572V232.093C111.725 216.415 117.969 201.385 129.068 190.3C140.168 179.214 155.217 172.978 170.914 172.961H321.44V333.983H115.123C114.217 333.982 113.349 333.623 112.709 332.983C112.069 332.344 111.708 331.476 111.707 330.572Z" fill="white"/>
<path d="M241.509 271.894C253.206 271.894 262.687 262.424 262.687 250.743C262.687 239.061 253.206 229.592 241.509 229.592C229.813 229.592 220.331 239.061 220.331 250.743C220.331 262.424 229.813 271.894 241.509 271.894Z" fill="#F2F2F2"/>
<path d="M176.211 177.831H322.123V185.804H194.838C187.354 185.804 179.944 187.276 173.029 190.136C166.115 192.996 159.833 197.189 154.541 202.474C149.249 207.759 145.051 214.034 142.187 220.939C139.323 227.844 137.849 235.246 137.849 242.72V333.301H121.883C121.177 333.301 120.501 333.021 120.002 332.523C119.502 332.024 119.222 331.348 119.222 330.644V234.747C119.222 227.273 120.696 219.872 123.56 212.966C126.424 206.061 130.622 199.786 135.914 194.501C141.206 189.216 147.488 185.024 154.402 182.163C161.317 179.303 168.727 177.831 176.211 177.831Z" fill="#F2F2F2"/>
<mask id="mask0_162_33721" style="mask-type:alpha" maskUnits="userSpaceOnUse" x="0" y="130" width="406" height="321">
<path d="M401.391 423.631C410.696 434.247 403.099 450.861 388.973 450.791L138.543 449.547C131.986 449.515 126.079 445.583 123.524 439.552L2.30493 153.334C-3.25214 140.213 9.45759 126.754 22.8982 131.526L196.683 193.233C199.324 194.171 201.681 195.77 203.527 197.877L401.391 423.631Z" fill="white"/>
</mask>
<g mask="url(#mask0_162_33721)">
<path d="M204.277 454.068V332.96H239.801V454.068C239.8 454.882 239.476 455.663 238.9 456.238C238.324 456.814 237.542 457.138 236.727 457.139H207.351C206.536 457.138 205.754 456.814 205.178 456.238C204.602 455.663 204.277 454.882 204.277 454.068Z" fill="#3F3D56"/>
</g>
<path d="M111.707 330.572V232.093C111.725 216.415 117.969 201.385 129.068 190.3C140.168 179.214 155.217 172.978 170.914 172.961H321.44V333.983H115.123C114.217 333.982 113.349 333.623 112.709 332.983C112.069 332.344 111.708 331.476 111.707 330.572ZM320.074 174.325H170.914C155.579 174.343 140.877 180.434 130.034 191.264C119.19 202.094 113.091 216.777 113.074 232.093V330.572C113.074 331.115 113.29 331.635 113.675 332.019C114.059 332.402 114.58 332.618 115.123 332.619H320.074V174.325Z" fill="#3F3D56"/>
<path d="M241.509 261.66C238.249 261.656 235.123 260.361 232.818 258.058C230.513 255.756 229.216 252.634 229.212 249.378V161.362C229.212 160.819 228.995 160.299 228.611 159.915C228.227 159.531 227.706 159.315 227.163 159.315H179.341C178.435 159.314 177.567 158.954 176.927 158.314C176.286 157.675 175.926 156.808 175.925 155.903V123.835C175.926 122.931 176.286 122.063 176.927 121.424C177.567 120.784 178.435 120.425 179.341 120.424H250.39C251.296 120.425 252.164 120.784 252.805 121.424C253.445 122.063 253.805 122.931 253.806 123.835V249.378C253.803 252.634 252.506 255.756 250.201 258.058C247.895 260.361 244.77 261.656 241.509 261.66Z" fill="#3F3D56"/>
<path d="M326.905 171.596C337.211 171.574 347.104 175.643 354.407 182.906C361.709 190.169 365.824 200.031 365.846 210.324V322.433H442.361C445.434 322.426 448.385 323.64 450.563 325.806C452.741 327.972 453.968 330.913 453.975 333.983H287.965V210.324C287.986 200.031 292.101 190.169 299.404 182.906C306.707 175.643 316.599 171.574 326.905 171.596Z" fill="#3F3D56"/>
<path d="M317.562 235.437L325.625 268.703L483.356 230.569L475.293 197.302C475.195 196.896 474.997 196.52 474.715 196.21C474.433 195.901 474.078 195.667 473.682 195.532C473.39 195.429 473.08 195.382 472.771 195.395L381.596 148.246C381.061 147.974 380.447 147.901 379.864 148.041C379.281 148.181 378.767 148.525 378.415 149.01L334.473 210.208L317.908 233.285C317.878 233.326 317.857 233.372 317.846 233.422C317.836 233.471 317.836 233.522 317.847 233.571C317.51 234.131 317.407 234.802 317.562 235.437Z" fill="white"/>
<path d="M317.847 233.571C317.855 233.614 317.871 233.655 317.895 233.692C317.919 233.729 317.95 233.761 317.986 233.786C318.029 233.816 318.077 233.836 318.128 233.846C318.179 233.856 318.231 233.856 318.282 233.845C318.364 233.823 318.437 233.773 318.486 233.703L318.543 233.625L319.405 232.42L335.07 210.611L378.998 149.427C379.249 149.08 379.615 148.835 380.032 148.735C380.448 148.635 380.887 148.688 381.267 148.883L471.736 195.666L472.548 196.087C472.581 196.101 472.615 196.113 472.649 196.123C472.71 196.111 472.772 196.105 472.834 196.105C472.919 196.076 472.99 196.017 473.032 195.938C473.054 195.896 473.068 195.851 473.072 195.804C473.077 195.757 473.072 195.71 473.058 195.665C473.044 195.62 473.021 195.578 472.991 195.542C472.961 195.506 472.924 195.476 472.883 195.454L472.771 195.395L381.596 148.246C381.061 147.974 380.447 147.901 379.864 148.041C379.281 148.181 378.767 148.525 378.415 149.01L334.473 210.208L317.908 233.285C317.878 233.326 317.857 233.372 317.846 233.422C317.836 233.471 317.836 233.522 317.847 233.571Z" fill="#3F3D56"/>
<path d="M365.218 236.963L368.73 237.352L394.787 240.235L412.062 242.145L413.082 242.258L434.638 225.443L435.463 224.799L440.555 220.828L458.668 206.7L458.777 205.708L465.219 147.634C465.307 146.835 465.074 146.033 464.571 145.405C464.067 144.776 463.335 144.373 462.535 144.283L376.554 134.771C375.754 134.683 374.951 134.916 374.322 135.419C373.693 135.921 373.289 136.652 373.199 137.452L368.655 178.415L366.135 201.126L363.881 221.444L362.836 230.88L362.531 233.613C362.444 234.413 362.678 235.214 363.182 235.842C363.685 236.47 364.418 236.873 365.218 236.963Z" fill="white"/>
<path fill-rule="evenodd" clip-rule="evenodd" d="M365.218 236.963L413.082 242.258L458.668 206.7L458.777 205.708L465.219 147.634C465.307 146.835 465.074 146.033 464.571 145.405C464.067 144.776 463.335 144.373 462.535 144.283L376.554 134.771C375.754 134.683 374.951 134.916 374.322 135.419C373.693 135.921 373.289 136.652 373.199 137.452L362.531 233.613C362.444 234.413 362.678 235.214 363.182 235.842C363.685 236.47 364.418 236.873 365.218 236.963ZM363.525 233.721C363.525 233.721 363.525 233.722 363.525 233.722C363.467 234.258 363.624 234.795 363.962 235.217C364.299 235.638 364.791 235.909 365.329 235.969M365.33 235.969L368.839 236.358L412.172 241.151L412.788 241.219L434.022 224.655L457.72 206.171L457.783 205.597L464.225 147.525C464.225 147.525 464.225 147.525 464.225 147.525C464.284 146.989 464.128 146.451 463.79 146.03C463.453 145.608 462.961 145.338 462.424 145.277C462.424 145.277 462.424 145.277 462.424 145.277L376.446 135.765C376.445 135.765 376.446 135.765 376.446 135.765C375.908 135.706 375.368 135.863 374.946 136.2C374.524 136.537 374.253 137.027 374.192 137.563C374.192 137.563 374.192 137.564 374.192 137.564L369.649 178.525L363.83 230.99L363.525 233.721" fill="#00569C"/>
<path d="M388.846 186.059L426.09 190.179L439.298 191.639C439.882 191.704 440.472 191.653 441.035 191.49C441.599 191.327 442.124 191.054 442.582 190.688C443.041 190.322 443.422 189.869 443.705 189.356C443.987 188.842 444.166 188.278 444.231 187.696C444.295 187.113 444.245 186.524 444.081 185.961C443.918 185.398 443.645 184.873 443.278 184.416C442.911 183.959 442.458 183.578 441.944 183.295C441.43 183.013 440.865 182.834 440.282 182.77L423.854 180.953L389.833 177.185C388.655 177.055 387.473 177.398 386.548 178.137C385.623 178.877 385.03 179.953 384.899 181.13C384.768 182.306 385.111 183.486 385.851 184.411C386.591 185.335 387.669 185.928 388.846 186.059Z" fill="white"/>
<path fill-rule="evenodd" clip-rule="evenodd" d="M389.833 177.185C388.655 177.055 387.473 177.398 386.548 178.137C385.623 178.877 385.03 179.953 384.899 181.13C384.768 182.306 385.111 183.486 385.851 184.411C386.591 185.335 387.669 185.928 388.846 186.059L439.298 191.639C439.882 191.704 440.472 191.653 441.035 191.49C441.599 191.327 442.124 191.054 442.582 190.688C443.041 190.322 443.422 189.869 443.705 189.356C443.987 188.842 444.166 188.278 444.231 187.696C444.295 187.113 444.245 186.524 444.081 185.961C443.918 185.398 443.645 184.873 443.278 184.416C442.911 183.959 442.458 183.578 441.944 183.295C441.43 183.013 440.865 182.834 440.282 182.77L389.833 177.185ZM426.2 189.185L439.408 190.646C439.861 190.696 440.319 190.656 440.757 190.529C441.194 190.403 441.603 190.191 441.958 189.907C442.313 189.623 442.609 189.271 442.829 188.873C443.048 188.475 443.187 188.037 443.237 187.586C443.287 187.134 443.248 186.677 443.121 186.24C442.994 185.804 442.782 185.396 442.498 185.041C442.213 184.686 441.861 184.391 441.462 184.172C441.063 183.952 440.625 183.814 440.172 183.764L423.744 181.946L389.723 178.179C388.808 178.078 387.891 178.344 387.173 178.918C386.455 179.492 385.994 180.328 385.893 181.24C385.792 182.153 386.057 183.068 386.631 183.786C387.206 184.503 388.042 184.963 388.957 185.065C388.957 185.065 388.956 185.065 388.957 185.065L426.2 189.185Z" fill="#00569C"/>
<path d="M386.725 202.514C386.821 202.531 386.917 202.548 387.015 202.557L430.25 207.341L437.468 208.141C438.646 208.271 439.828 207.929 440.753 207.189C441.679 206.449 442.272 205.372 442.402 204.195C442.532 203.019 442.189 201.838 441.448 200.914C440.707 199.99 439.629 199.398 438.451 199.268L428.013 198.115L393.766 194.325L388.002 193.687C386.85 193.558 385.692 193.883 384.775 194.591C383.857 195.299 383.252 196.336 383.086 197.483C382.92 198.629 383.207 199.795 383.886 200.734C384.565 201.673 385.583 202.311 386.725 202.514V202.514Z" fill="white"/>
<path fill-rule="evenodd" clip-rule="evenodd" d="M388.002 193.687C386.85 193.558 385.692 193.883 384.775 194.591C383.857 195.299 383.252 196.336 383.086 197.483C382.92 198.629 383.207 199.795 383.886 200.734C384.565 201.673 385.583 202.311 386.725 202.514C386.821 202.531 386.917 202.548 387.015 202.557L437.468 208.141C438.646 208.271 439.828 207.929 440.753 207.189C441.679 206.449 442.272 205.372 442.402 204.195C442.532 203.019 442.189 201.838 441.448 200.914C440.707 199.99 439.629 199.398 438.451 199.268L393.766 194.325L388.002 193.687ZM437.578 207.147C438.493 207.248 439.411 206.982 440.129 206.408C440.847 205.833 441.307 204.998 441.408 204.085C441.509 203.173 441.243 202.257 440.668 201.54C440.093 200.823 439.256 200.363 438.341 200.262L393.656 195.318L387.892 194.681C386.997 194.581 386.098 194.833 385.386 195.383C384.674 195.932 384.204 196.737 384.075 197.626C383.947 198.515 384.169 199.419 384.696 200.148C385.223 200.876 386.013 201.372 386.9 201.529L386.959 201.54C387.027 201.551 387.071 201.558 387.111 201.562L387.118 201.563L437.578 207.147Z" fill="#00569C"/>
<path d="M381.832 217.104C382.186 217.691 382.671 218.189 383.249 218.559C383.828 218.929 384.483 219.161 385.166 219.236L402.886 221.196L434.447 224.688L434.454 224.687L435.463 224.799L440.554 220.828C440.586 220.526 440.586 220.222 440.555 219.92C440.448 218.908 439.997 217.961 439.278 217.239C438.559 216.516 437.615 216.061 436.602 215.947L432.217 215.46L414.826 213.538L402.312 212.152L386.149 210.363C385.32 210.271 384.483 210.413 383.731 210.772C382.979 211.131 382.342 211.693 381.893 212.394C381.444 213.095 381.2 213.908 381.19 214.74C381.179 215.572 381.401 216.391 381.832 217.104L381.832 217.104Z" fill="white"/>
<path fill-rule="evenodd" clip-rule="evenodd" d="M381.832 217.104C382.186 217.691 382.671 218.189 383.249 218.559C383.828 218.929 384.483 219.161 385.166 219.236L434.447 224.688L434.454 224.687L435.463 224.799L440.554 220.828C440.586 220.526 440.586 220.222 440.555 219.92C440.448 218.908 439.997 217.961 439.278 217.239C438.559 216.516 437.615 216.061 436.602 215.947L386.149 210.363C385.32 210.271 384.483 210.413 383.731 210.772C382.979 211.131 382.342 211.693 381.893 212.394C381.444 213.095 381.2 213.908 381.19 214.74C381.179 215.572 381.401 216.391 381.832 217.104ZM386.039 211.357C386.039 211.357 386.039 211.357 386.039 211.357C385.395 211.286 384.745 211.396 384.161 211.674C383.578 211.953 383.084 212.389 382.735 212.933C382.387 213.477 382.198 214.108 382.189 214.753C382.181 215.399 382.354 216.034 382.688 216.587L382.7 216.607C382.974 217.054 383.346 217.434 383.788 217.717C384.237 218.004 384.746 218.184 385.276 218.242C385.276 218.242 385.276 218.242 385.276 218.242L402.996 220.202L434.381 223.675L434.389 223.673L435.169 223.76L439.578 220.321C439.576 220.222 439.57 220.123 439.56 220.024C439.477 219.239 439.127 218.505 438.569 217.944C438.011 217.383 437.278 217.029 436.491 216.941C436.491 216.941 436.491 216.941 436.491 216.941L432.108 216.454L414.716 214.532L402.202 213.146L386.039 211.357Z" fill="#00569C"/>
<path d="M406.721 165.946L415.988 166.971L420.081 167.425L426.264 168.109C427.442 168.239 428.623 167.896 429.549 167.156C430.474 166.416 431.067 165.34 431.197 164.163C431.328 162.986 430.985 161.806 430.244 160.882C429.503 159.958 428.425 159.366 427.246 159.235L407.708 157.076C406.53 156.945 405.349 157.287 404.423 158.026C403.498 158.765 402.905 159.842 402.774 161.018C402.643 162.194 402.985 163.374 403.725 164.299C404.466 165.223 405.543 165.816 406.721 165.946V165.946Z" fill="white"/>
<path fill-rule="evenodd" clip-rule="evenodd" d="M406.721 165.946L426.264 168.109C427.442 168.239 428.623 167.896 429.549 167.156C430.474 166.416 431.067 165.34 431.197 164.163C431.328 162.986 430.985 161.806 430.244 160.882C429.503 159.958 428.425 159.366 427.246 159.235L407.708 157.076C406.53 156.945 405.349 157.287 404.423 158.026C403.498 158.765 402.905 159.842 402.774 161.018C402.643 162.194 402.985 163.374 403.725 164.299C404.466 165.223 405.543 165.816 406.721 165.946ZM426.374 167.115C426.374 167.115 426.373 167.115 426.374 167.115C427.288 167.216 428.206 166.95 428.924 166.375C429.642 165.801 430.102 164.965 430.203 164.053C430.304 163.14 430.038 162.225 429.463 161.507C428.888 160.79 428.052 160.33 427.137 160.229L407.598 158.07C406.684 157.968 405.766 158.234 405.048 158.807C404.329 159.381 403.869 160.216 403.768 161.129C403.666 162.041 403.932 162.956 404.506 163.674C405.08 164.391 405.917 164.851 406.831 164.952L416.098 165.977L426.374 167.115Z" fill="#00569C"/>
<path d="M330.949 190.654L342.247 237.264L361.103 240.845L378.546 244.162L397.26 247.718L403.24 248.855C403.59 248.921 403.95 248.912 404.296 248.828C404.643 248.744 404.967 248.588 405.248 248.369L410.045 244.627L413.083 242.258L434.638 225.443L420.933 168.899C420.797 168.336 420.502 167.824 420.083 167.425C419.715 167.072 419.264 166.817 418.771 166.684C418.279 166.551 417.761 166.544 417.265 166.663L333.187 186.991C332.404 187.18 331.729 187.673 331.309 188.36C330.89 189.047 330.76 189.872 330.949 190.654Z" fill="#00569C"/>
<path d="M356.855 227.734C357.134 228.884 357.859 229.876 358.871 230.492C359.882 231.109 361.097 231.299 362.249 231.022L411.583 219.094C412.734 218.814 413.727 218.09 414.344 217.08C414.961 216.07 415.152 214.857 414.875 213.707C414.862 213.65 414.846 213.593 414.827 213.538C414.512 212.429 413.779 211.485 412.782 210.904C411.786 210.322 410.603 210.149 409.481 210.419L360.146 222.347C358.995 222.626 358.002 223.351 357.384 224.361C356.767 225.371 356.577 226.584 356.855 227.734Z" fill="white"/>
<path d="M361.102 240.845L378.545 244.162L415.494 235.229C416.646 234.95 417.64 234.226 418.257 233.216C418.874 232.206 419.064 230.992 418.785 229.841C418.507 228.691 417.782 227.698 416.77 227.082C415.758 226.465 414.543 226.276 413.391 226.554L364.057 238.482C363.026 238.729 362.118 239.337 361.497 240.195C361.347 240.4 361.215 240.618 361.102 240.845Z" fill="white"/>
<path d="M397.26 247.718L403.239 248.855C403.589 248.921 403.95 248.912 404.296 248.828C404.642 248.744 404.967 248.588 405.248 248.369L410.045 244.627L397.26 247.718Z" fill="white"/>
<path d="M366.795 202.741C367.074 203.891 367.799 204.882 368.811 205.499C369.822 206.115 371.037 206.305 372.189 206.028L391.297 201.408C392.448 201.128 393.441 200.404 394.058 199.394C394.675 198.384 394.866 197.171 394.589 196.021C394.44 195.403 394.159 194.824 393.765 194.325C393.237 193.649 392.525 193.14 391.714 192.858C390.904 192.576 390.029 192.533 389.194 192.734L370.086 197.353C368.934 197.632 367.941 198.356 367.323 199.366C366.706 200.377 366.516 201.59 366.795 202.741V202.741Z" fill="white"/>
<path d="M378.544 244.162L397.261 247.719L403.239 248.856C403.589 248.921 403.949 248.912 404.295 248.828C404.641 248.744 404.965 248.588 405.246 248.371L410.047 244.628L408.362 245.035L404.806 247.806C404.605 247.961 404.374 248.073 404.126 248.132C403.879 248.192 403.622 248.199 403.372 248.152L398.946 247.311L380.228 243.754L378.544 244.162ZM434.453 224.689L434.635 225.441L435.465 224.797L434.453 224.689ZM378.544 244.162L397.261 247.719L403.239 248.856C403.589 248.921 403.949 248.912 404.295 248.828C404.641 248.744 404.965 248.588 405.246 248.371L410.047 244.628L408.362 245.035L404.806 247.806C404.605 247.961 404.374 248.073 404.126 248.132C403.879 248.192 403.622 248.199 403.372 248.152L398.946 247.311L380.228 243.754L378.544 244.162ZM378.544 244.162L397.261 247.719L403.239 248.856C403.589 248.921 403.949 248.912 404.295 248.828C404.641 248.744 404.965 248.588 405.246 248.371L410.047 244.628L408.362 245.035L404.806 247.806C404.605 247.961 404.374 248.073 404.126 248.132C403.879 248.192 403.622 248.199 403.372 248.152L398.946 247.311L380.228 243.754L378.544 244.162ZM317.562 235.437L338.683 322.574C338.84 323.218 339.246 323.773 339.812 324.118C340.378 324.463 341.059 324.57 341.704 324.415L494.57 287.456C495.215 287.3 495.771 286.894 496.117 286.328C496.462 285.763 496.569 285.083 496.414 284.439L475.293 197.302C475.195 196.896 474.997 196.52 474.715 196.21C474.433 195.901 474.078 195.667 473.682 195.532C473.39 195.429 473.08 195.383 472.771 195.395C472.41 195.405 472.056 195.498 471.736 195.666C471.589 195.736 471.45 195.823 471.321 195.924L458.776 205.708L440.555 219.922L434.451 224.684L434.453 224.689L434.447 224.691L412.063 242.143L408.362 245.035L404.806 247.806C404.605 247.961 404.374 248.073 404.126 248.132C403.879 248.192 403.622 248.199 403.372 248.152L398.946 247.311L380.228 243.754L361.494 240.196L320.463 232.397C320.113 232.328 319.752 232.336 319.405 232.42C318.939 232.534 318.515 232.779 318.184 233.127C318.057 233.263 317.944 233.412 317.847 233.571C317.51 234.131 317.407 234.802 317.562 235.437ZM378.544 244.162L397.261 247.719L403.239 248.856C403.589 248.921 403.949 248.912 404.295 248.828C404.641 248.744 404.965 248.588 405.246 248.371L410.047 244.628L408.362 245.035L404.806 247.806C404.605 247.961 404.374 248.073 404.126 248.132C403.879 248.192 403.622 248.199 403.372 248.152L398.946 247.311L380.228 243.754L378.544 244.162ZM378.544 244.162L397.261 247.719L403.239 248.856C403.589 248.921 403.949 248.912 404.295 248.828C404.641 248.744 404.965 248.588 405.246 248.371L410.047 244.628L408.362 245.035L404.806 247.806C404.605 247.961 404.374 248.073 404.126 248.132C403.879 248.192 403.622 248.199 403.372 248.152L398.946 247.311L380.228 243.754L378.544 244.162ZM378.544 244.162L397.261 247.719L403.239 248.856C403.589 248.921 403.949 248.912 404.295 248.828C404.641 248.744 404.965 248.588 405.246 248.371L410.047 244.628L408.362 245.035L404.806 247.806C404.605 247.961 404.374 248.073 404.126 248.132C403.879 248.192 403.622 248.199 403.372 248.152L398.946 247.311L380.228 243.754L378.544 244.162Z" fill="white"/>
<path d="M378.544 244.162L397.261 247.719L403.239 248.856C403.589 248.921 403.949 248.912 404.295 248.828C404.641 248.744 404.965 248.588 405.246 248.371L410.047 244.628L408.362 245.035L404.806 247.806C404.605 247.961 404.374 248.073 404.126 248.132C403.879 248.192 403.622 248.199 403.372 248.152L398.946 247.311L380.228 243.754L378.544 244.162ZM434.453 224.689L434.635 225.441L435.465 224.797L434.453 224.689ZM378.544 244.162L397.261 247.719L403.239 248.856C403.589 248.921 403.949 248.912 404.295 248.828C404.641 248.744 404.965 248.588 405.246 248.371L410.047 244.628L408.362 245.035L404.806 247.806C404.605 247.961 404.374 248.073 404.126 248.132C403.879 248.192 403.622 248.199 403.372 248.152L398.946 247.311L380.228 243.754L378.544 244.162ZM378.544 244.162L397.261 247.719L403.239 248.856C403.589 248.921 403.949 248.912 404.295 248.828C404.641 248.744 404.965 248.588 405.246 248.371L410.047 244.628L408.362 245.035L404.806 247.806C404.605 247.961 404.374 248.073 404.126 248.132C403.879 248.192 403.622 248.199 403.372 248.152L398.946 247.311L380.228 243.754L378.544 244.162ZM318.543 233.625L318.636 233.694C318.651 233.669 318.678 233.646 318.699 233.619C318.906 233.404 319.163 233.244 319.447 233.152C319.732 233.061 320.035 233.041 320.328 233.095L361.104 240.842L378.544 244.162L397.261 247.719L403.239 248.856C403.589 248.921 403.949 248.912 404.295 248.828C404.641 248.744 404.965 248.588 405.246 248.371L410.047 244.628L408.362 245.035L404.806 247.806C404.605 247.961 404.374 248.073 404.126 248.132C403.879 248.192 403.622 248.199 403.372 248.152L398.946 247.311L380.228 243.754L361.494 240.196L320.463 232.397C320.113 232.328 319.752 232.336 319.405 232.42L318.543 233.625ZM317.562 235.437L338.683 322.574C338.84 323.218 339.246 323.773 339.812 324.118C340.378 324.463 341.059 324.57 341.704 324.415L494.57 287.456C495.215 287.3 495.771 286.894 496.117 286.328C496.462 285.763 496.569 285.083 496.414 284.439L475.293 197.302C475.195 196.896 474.997 196.52 474.715 196.21C474.433 195.901 474.078 195.667 473.682 195.532C473.39 195.429 473.08 195.383 472.771 195.395C472.41 195.405 472.056 195.498 471.736 195.666C471.589 195.736 471.45 195.823 471.321 195.924L458.776 205.708L440.555 219.922L434.451 224.684L434.453 224.689L434.447 224.691L412.063 242.143L408.362 245.035L404.806 247.806C404.605 247.961 404.374 248.073 404.126 248.132C403.879 248.192 403.622 248.199 403.372 248.152L398.946 247.311L380.228 243.754L361.494 240.196L320.463 232.397C320.113 232.328 319.752 232.336 319.405 232.42C318.939 232.534 318.515 232.779 318.184 233.127C318.057 233.263 317.944 233.412 317.847 233.571C317.51 234.131 317.407 234.802 317.562 235.437ZM318.259 235.269C318.196 235.012 318.192 234.744 318.247 234.486C318.301 234.227 318.413 233.984 318.574 233.774C318.588 233.743 318.61 233.716 318.636 233.694C318.651 233.669 318.678 233.646 318.699 233.619C318.906 233.404 319.163 233.244 319.447 233.152C319.732 233.061 320.035 233.041 320.328 233.096L361.104 240.842L378.544 244.162L397.261 247.719L403.239 248.856C403.589 248.921 403.949 248.912 404.295 248.828C404.641 248.744 404.965 248.588 405.246 248.371L410.047 244.628L413.083 242.259L434.635 225.441L435.465 224.797L440.552 220.827L458.669 206.697L471.766 196.482C471.965 196.327 472.195 196.216 472.44 196.157C472.509 196.14 472.579 196.129 472.649 196.123C472.71 196.111 472.772 196.105 472.834 196.105C473.044 196.103 473.252 196.137 473.45 196.205C473.732 196.303 473.985 196.47 474.186 196.691C474.387 196.912 474.53 197.18 474.601 197.469L495.722 284.606C495.778 284.834 495.788 285.071 495.752 285.304C495.715 285.536 495.634 285.759 495.511 285.959C495.388 286.16 495.227 286.334 495.037 286.473C494.847 286.611 494.632 286.711 494.403 286.766L341.537 323.724C341.075 323.835 340.589 323.758 340.184 323.511C339.78 323.264 339.49 322.866 339.379 322.405L318.259 235.269ZM378.544 244.162L397.261 247.719L403.239 248.856C403.589 248.921 403.949 248.912 404.295 248.828C404.641 248.744 404.965 248.588 405.246 248.371L410.047 244.628L408.362 245.035L404.806 247.806C404.605 247.961 404.374 248.073 404.126 248.132C403.879 248.192 403.622 248.199 403.372 248.152L398.946 247.311L380.228 243.754L378.544 244.162ZM378.544 244.162L397.261 247.719L403.239 248.856C403.589 248.921 403.949 248.912 404.295 248.828C404.641 248.744 404.965 248.588 405.246 248.371L410.047 244.628L408.362 245.035L404.806 247.806C404.605 247.961 404.374 248.073 404.126 248.132C403.879 248.192 403.622 248.199 403.372 248.152L398.946 247.311L380.228 243.754L378.544 244.162ZM378.544 244.162L397.261 247.719L403.239 248.856C403.589 248.921 403.949 248.912 404.295 248.828C404.641 248.744 404.965 248.588 405.246 248.371L410.047 244.628L408.362 245.035L404.806 247.806C404.605 247.961 404.374 248.073 404.126 248.132C403.879 248.192 403.622 248.199 403.372 248.152L398.946 247.311L380.228 243.754L378.544 244.162Z" fill="#3F3D56"/>
<path d="M454.728 270.337C454.384 268.909 454.621 267.403 455.386 266.149C456.152 264.895 457.385 263.996 458.814 263.649L478.108 258.984C479.535 258.645 481.04 258.884 482.291 259.649C483.543 260.415 484.439 261.645 484.785 263.07C485.13 264.494 484.896 265.998 484.134 267.25C483.371 268.503 482.143 269.403 480.718 269.753L461.424 274.417C459.994 274.761 458.487 274.525 457.231 273.76C455.976 272.995 455.076 271.764 454.728 270.337Z" fill="#00569C"/>
<path d="M241.509 254.154C244.15 254.154 246.291 252.016 246.291 249.378C246.291 246.74 244.15 244.602 241.509 244.602C238.868 244.602 236.727 246.74 236.727 249.378C236.727 252.016 238.868 254.154 241.509 254.154Z" fill="white"/>
</g>
<defs>
<clipPath id="clip0_162_33721">
<rect width="552" height="451" fill="white" transform="translate(0.845856)"/>
</clipPath>
</defs>
</svg>
