<svg width="129" height="128" viewBox="0 0 129 128" fill="none" xmlns="http://www.w3.org/2000/svg">
<g filter="url(#filter0_d_162_33993)">
<path d="M14.2684 106.667C12.0462 106.667 10.1573 105.889 8.60172 104.333C7.04617 102.778 6.26839 100.889 6.26839 98.6666V45.3333C6.26839 43.1111 7.04617 41.2222 8.60172 39.6666C10.1573 38.1111 12.0462 37.3333 14.2684 37.3333H99.6017C101.824 37.3333 103.713 38.1111 105.268 39.6666C106.824 41.2222 107.602 43.1111 107.602 45.3333V98.6666C107.602 100.889 106.824 102.778 105.268 104.333C103.713 105.889 101.824 106.667 99.6017 106.667H14.2684Z" fill="#4785B8"/>
<path d="M56.9351 88C52.4906 88 48.7128 86.4444 45.6017 83.3333C42.4906 80.2222 40.9351 76.4444 40.9351 72C40.9351 67.5555 42.4906 63.7778 45.6017 60.6666C48.7128 57.5555 52.4906 56 56.9351 56C61.3795 56 65.1573 57.5555 68.2684 60.6666C71.3795 63.7778 72.9351 67.5555 72.9351 72C72.9351 76.4444 71.3795 80.2222 68.2684 83.3333C65.1573 86.4444 61.3795 88 56.9351 88ZM14.2684 106.667C12.0462 106.667 10.1573 105.889 8.60172 104.333C7.04617 102.778 6.26839 100.889 6.26839 98.6666V45.3333C6.26839 43.1111 7.04617 41.2222 8.60172 39.6666C10.1573 38.1111 12.0462 37.3333 14.2684 37.3333H99.6017C101.824 37.3333 103.713 38.1111 105.268 39.6666C106.824 41.2222 107.602 43.1111 107.602 45.3333V98.6666C107.602 100.889 106.824 102.778 105.268 104.333C103.713 105.889 101.824 106.667 99.6017 106.667H14.2684ZM27.6017 98.6666H86.2684C86.2684 94.9333 87.5573 91.7778 90.1351 89.2C92.7128 86.6222 95.8684 85.3333 99.6017 85.3333V58.6666C95.8684 58.6666 92.7128 57.3778 90.1351 54.8C87.5573 52.2222 86.2684 49.0666 86.2684 45.3333H27.6017C27.6017 49.0666 26.3128 52.2222 23.7351 54.8C21.1573 57.3778 18.0017 58.6666 14.2684 58.6666V85.3333C18.0017 85.3333 21.1573 86.6222 23.7351 89.2C26.3128 91.7778 27.6017 94.9333 27.6017 98.6666Z" fill="#00569C"/>
<path d="M30.2684 90.6667C28.0462 90.6667 26.1573 89.8889 24.6017 88.3333C23.0462 86.7778 22.2684 84.8889 22.2684 82.6667V29.3333C22.2684 27.1111 23.0462 25.2222 24.6017 23.6667C26.1573 22.1111 28.0462 21.3333 30.2684 21.3333H115.602C117.824 21.3333 119.713 22.1111 121.268 23.6667C122.824 25.2222 123.602 27.1111 123.602 29.3333V82.6667C123.602 84.8889 122.824 86.7778 121.268 88.3333C119.713 89.8889 117.824 90.6667 115.602 90.6667H30.2684Z" fill="#4785B8"/>
<path d="M72.9351 72C68.4906 72 64.7128 70.4445 61.6017 67.3333C58.4906 64.2222 56.9351 60.4445 56.9351 56C56.9351 51.5556 58.4906 47.7778 61.6017 44.6667C64.7128 41.5556 68.4906 40 72.9351 40C77.3795 40 81.1573 41.5556 84.2684 44.6667C87.3795 47.7778 88.9351 51.5556 88.9351 56C88.9351 60.4445 87.3795 64.2222 84.2684 67.3333C81.1573 70.4445 77.3795 72 72.9351 72ZM30.2684 90.6667C28.0462 90.6667 26.1573 89.8889 24.6017 88.3333C23.0462 86.7778 22.2684 84.8889 22.2684 82.6667V29.3333C22.2684 27.1111 23.0462 25.2222 24.6017 23.6667C26.1573 22.1111 28.0462 21.3333 30.2684 21.3333H115.602C117.824 21.3333 119.713 22.1111 121.268 23.6667C122.824 25.2222 123.602 27.1111 123.602 29.3333V82.6667C123.602 84.8889 122.824 86.7778 121.268 88.3333C119.713 89.8889 117.824 90.6667 115.602 90.6667H30.2684ZM43.6017 82.6667H102.268C102.268 78.9333 103.557 75.7778 106.135 73.2C108.713 70.6222 111.868 69.3333 115.602 69.3333V42.6667C111.868 42.6667 108.713 41.3778 106.135 38.8C103.557 36.2222 102.268 33.0667 102.268 29.3333H43.6017C43.6017 33.0667 42.3128 36.2222 39.7351 38.8C37.1573 41.3778 34.0017 42.6667 30.2684 42.6667V69.3333C34.0017 69.3333 37.1573 70.6222 39.7351 73.2C42.3128 75.7778 43.6017 78.9333 43.6017 82.6667Z" fill="#00569C"/>
</g>
<defs>
<filter id="filter0_d_162_33993" x="-3.06494" y="0" width="136" height="136" filterUnits="userSpaceOnUse" color-interpolation-filters="sRGB">
<feFlood flood-opacity="0" result="BackgroundImageFix"/>
<feColorMatrix in="SourceAlpha" type="matrix" values="0 0 0 0 0 0 0 0 0 0 0 0 0 0 0 0 0 0 127 0" result="hardAlpha"/>
<feOffset dy="4"/>
<feGaussianBlur stdDeviation="2"/>
<feComposite in2="hardAlpha" operator="out"/>
<feColorMatrix type="matrix" values="0 0 0 0 0 0 0 0 0 0 0 0 0 0 0 0 0 0 0.25 0"/>
<feBlend mode="normal" in2="BackgroundImageFix" result="effect1_dropShadow_162_33993"/>
<feBlend mode="normal" in="SourceGraphic" in2="effect1_dropShadow_162_33993" result="shape"/>
</filter>
</defs>
</svg>
