<svg width="1440" height="513" viewBox="0 0 1440 513" fill="none" xmlns="http://www.w3.org/2000/svg">
<g clip-path="url(#clip0_512_39464)">
<rect width="1440" height="512" transform="translate(0 0.0869141)" fill="#2F80ED"/>
<path opacity="0.64" d="M577.45 334.239L353.894 -49.7238C348.359 -59.2309 338.328 -65.2281 327.334 -65.604L-31.4066 -77.8686C-49.4978 -78.4871 -64.5 -63.989 -64.5 -45.8873V505.81C-64.5 520.122 -54.9968 532.694 -41.2275 536.597L361.094 650.648C374.45 654.434 388.724 649.177 396.433 637.632L576.408 368.111C583.196 357.946 583.6 344.802 577.45 334.239Z" fill="url(#paint0_linear_512_39464)"/>
<path d="M22.5 422H491.5" stroke="#3F3D56"/>
<path d="M298.787 353.47V420.398H131.352C112.275 420.398 96.7539 405.385 96.7539 386.934C96.7539 368.482 112.275 353.47 131.352 353.47H298.787Z" fill="#F2F2F2"/>
<path d="M303.165 419.695C303.164 420.379 302.893 421.035 302.41 421.519C301.927 422.002 301.272 422.274 300.589 422.275H128.285C118.927 422.275 109.952 418.551 103.335 411.924C96.7175 405.296 93 396.307 93 386.934C93 377.562 96.7175 368.573 103.335 361.945C109.952 355.318 118.927 351.594 128.285 351.594H300.589C301.272 351.594 301.927 351.866 302.41 352.35C302.893 352.834 303.165 353.49 303.165 354.174C303.165 354.858 302.893 355.514 302.41 355.998C301.927 356.482 301.272 356.753 300.589 356.753H128.285C120.293 356.753 112.628 359.933 106.977 365.593C101.326 371.253 98.1511 378.93 98.1511 386.934C98.1511 394.939 101.326 402.616 106.977 408.276C112.628 413.936 120.293 417.115 128.285 417.115H300.589C301.272 417.116 301.927 417.388 302.41 417.871C302.893 418.355 303.164 419.011 303.165 419.695Z" fill="#00569C"/>
<path d="M298.896 368.482H118.535C118.398 368.482 118.267 368.449 118.17 368.391C118.074 368.332 118.02 368.253 118.02 368.17C118.02 368.087 118.074 368.007 118.17 367.949C118.267 367.89 118.398 367.857 118.535 367.857H298.896C299.033 367.857 299.164 367.89 299.261 367.949C299.357 368.007 299.412 368.087 299.412 368.17C299.412 368.253 299.357 368.332 299.261 368.391C299.164 368.449 299.033 368.482 298.896 368.482Z" fill="#CCCCCC"/>
<path d="M298.896 380.993H118.535C118.398 380.993 118.267 380.927 118.17 380.809C118.074 380.692 118.02 380.533 118.02 380.367C118.02 380.201 118.074 380.042 118.17 379.925C118.267 379.808 118.398 379.742 118.535 379.742H298.896C299.033 379.742 299.164 379.808 299.261 379.925C299.357 380.042 299.412 380.201 299.412 380.367C299.412 380.533 299.357 380.692 299.261 380.809C299.164 380.927 299.033 380.993 298.896 380.993Z" fill="#CCCCCC"/>
<path d="M298.896 393.502H118.535C118.398 393.502 118.267 393.437 118.17 393.319C118.074 393.202 118.02 393.043 118.02 392.877C118.02 392.711 118.074 392.552 118.17 392.435C118.267 392.317 118.398 392.251 118.535 392.251H298.896C299.033 392.251 299.164 392.317 299.261 392.435C299.357 392.552 299.412 392.711 299.412 392.877C299.412 393.043 299.357 393.202 299.261 393.319C299.164 393.437 299.033 393.502 298.896 393.502Z" fill="#CCCCCC"/>
<path d="M298.896 406.012H118.535C118.398 406.012 118.267 405.946 118.17 405.829C118.074 405.712 118.02 405.553 118.02 405.387C118.02 405.221 118.074 405.062 118.17 404.944C118.267 404.827 118.398 404.761 118.535 404.761H298.896C299.033 404.761 299.164 404.827 299.261 404.944C299.357 405.062 299.412 405.221 299.412 405.387C299.412 405.553 299.357 405.712 299.261 405.829C299.164 405.946 299.033 406.012 298.896 406.012Z" fill="#CCCCCC"/>
<path d="M284.26 293.752V350.123H159.182C144.931 350.123 133.336 337.479 133.336 321.938C133.336 306.397 144.931 293.752 159.182 293.752H284.26Z" fill="#F2F2F2"/>
<path d="M287.529 349.531C287.529 350.107 287.326 350.66 286.965 351.067C286.605 351.475 286.115 351.704 285.605 351.704H156.89C149.899 351.704 143.195 348.568 138.252 342.986C133.308 337.403 130.531 329.832 130.531 321.938C130.531 314.044 133.308 306.473 138.252 300.891C143.195 295.308 149.899 292.172 156.89 292.172H285.605C286.115 292.172 286.605 292.401 286.966 292.809C287.327 293.216 287.529 293.769 287.529 294.345C287.529 294.921 287.327 295.474 286.966 295.881C286.605 296.289 286.115 296.518 285.605 296.518H156.89C150.92 296.518 145.194 299.196 140.972 303.963C136.751 308.73 134.379 315.196 134.379 321.938C134.379 328.68 136.751 335.146 140.972 339.913C145.194 344.68 150.92 347.358 156.89 347.358H285.605C286.115 347.359 286.605 347.588 286.965 347.995C287.326 348.402 287.529 348.955 287.529 349.531Z" fill="#00569C"/>
<path d="M284.342 306.396H149.608C149.506 306.396 149.408 306.369 149.335 306.319C149.263 306.27 149.223 306.203 149.223 306.133C149.223 306.063 149.263 305.996 149.335 305.947C149.408 305.897 149.506 305.87 149.608 305.87H284.342C284.444 305.87 284.542 305.897 284.614 305.947C284.686 305.996 284.727 306.063 284.727 306.133C284.727 306.203 284.686 306.27 284.614 306.319C284.542 306.369 284.444 306.396 284.342 306.396Z" fill="#CCCCCC"/>
<path d="M284.342 316.933H149.608C149.506 316.933 149.408 316.878 149.335 316.779C149.263 316.68 149.223 316.546 149.223 316.406C149.223 316.266 149.263 316.133 149.335 316.034C149.408 315.935 149.506 315.879 149.608 315.879H284.342C284.444 315.879 284.542 315.935 284.614 316.034C284.686 316.133 284.727 316.266 284.727 316.406C284.727 316.546 284.686 316.68 284.614 316.779C284.542 316.878 284.444 316.933 284.342 316.933Z" fill="#CCCCCC"/>
<path d="M284.342 327.47H149.608C149.506 327.47 149.408 327.414 149.335 327.315C149.263 327.217 149.223 327.083 149.223 326.943C149.223 326.803 149.263 326.669 149.335 326.57C149.408 326.472 149.506 326.416 149.608 326.416H284.342C284.444 326.416 284.542 326.472 284.614 326.57C284.686 326.669 284.727 326.803 284.727 326.943C284.727 327.083 284.686 327.217 284.614 327.315C284.542 327.414 284.444 327.47 284.342 327.47Z" fill="#CCCCCC"/>
<path d="M284.342 338.006H149.608C149.506 338.006 149.408 337.95 149.335 337.851C149.263 337.753 149.223 337.619 149.223 337.479C149.223 337.339 149.263 337.205 149.335 337.106C149.408 337.008 149.506 336.952 149.608 336.952H284.342C284.444 336.952 284.542 337.008 284.614 337.106C284.686 337.205 284.727 337.339 284.727 337.479C284.727 337.619 284.686 337.753 284.614 337.851C284.542 337.95 284.444 338.006 284.342 338.006Z" fill="#CCCCCC"/>
<path d="M278.889 244.679V290.876H139.858C124.017 290.876 111.129 280.514 111.129 267.778C111.129 255.041 124.017 244.679 139.858 244.679H278.889Z" fill="#F2F2F2"/>
<path d="M282.523 290.391C282.523 290.864 282.298 291.316 281.897 291.65C281.496 291.984 280.952 292.172 280.385 292.172H137.311C129.54 292.172 122.088 289.602 116.593 285.027C111.099 280.452 108.012 274.248 108.012 267.778C108.012 261.308 111.099 255.103 116.593 250.529C122.088 245.954 129.54 243.384 137.311 243.384H280.385C280.952 243.384 281.496 243.571 281.897 243.905C282.298 244.239 282.523 244.692 282.523 245.164C282.523 245.637 282.298 246.09 281.897 246.423C281.496 246.757 280.952 246.945 280.385 246.945H137.311C130.675 246.945 124.31 249.14 119.618 253.047C114.925 256.954 112.289 262.253 112.289 267.778C112.289 273.303 114.925 278.602 119.618 282.509C124.31 286.416 130.675 288.611 137.311 288.611H280.385C280.952 288.611 281.496 288.799 281.897 289.133C282.298 289.466 282.523 289.919 282.523 290.391Z" fill="#00569C"/>
<path d="M278.981 255.041H129.217C129.103 255.041 128.995 255.018 128.914 254.978C128.834 254.937 128.789 254.883 128.789 254.825C128.789 254.768 128.834 254.713 128.914 254.673C128.995 254.632 129.103 254.609 129.217 254.609H278.981C279.095 254.609 279.204 254.632 279.284 254.673C279.364 254.713 279.409 254.768 279.409 254.825C279.409 254.883 279.364 254.937 279.284 254.978C279.204 255.018 279.095 255.041 278.981 255.041Z" fill="#CCCCCC"/>
<path d="M278.981 263.676H129.217C129.103 263.676 128.995 263.631 128.914 263.55C128.834 263.469 128.789 263.359 128.789 263.244C128.789 263.13 128.834 263.02 128.914 262.939C128.995 262.858 129.103 262.812 129.217 262.812H278.981C279.095 262.812 279.204 262.858 279.284 262.939C279.364 263.02 279.409 263.13 279.409 263.244C279.409 263.359 279.364 263.469 279.284 263.55C279.204 263.631 279.095 263.676 278.981 263.676Z" fill="#CCCCCC"/>
<path d="M278.981 272.312H129.217C129.103 272.312 128.995 272.266 128.914 272.185C128.834 272.104 128.789 271.995 128.789 271.88C128.789 271.765 128.834 271.656 128.914 271.575C128.995 271.494 129.103 271.448 129.217 271.448H278.981C279.095 271.448 279.204 271.494 279.284 271.575C279.364 271.656 279.409 271.765 279.409 271.88C279.409 271.995 279.364 272.104 279.284 272.185C279.204 272.266 279.095 272.312 278.981 272.312Z" fill="#CCCCCC"/>
<path d="M278.981 280.947H129.217C129.103 280.947 128.995 280.901 128.914 280.82C128.834 280.739 128.789 280.629 128.789 280.515C128.789 280.4 128.834 280.29 128.914 280.209C128.995 280.129 129.103 280.083 129.217 280.083H278.981C279.095 280.083 279.204 280.129 279.284 280.209C279.364 280.29 279.409 280.4 279.409 280.515C279.409 280.629 279.364 280.739 279.284 280.82C279.204 280.901 279.095 280.947 278.981 280.947Z" fill="#CCCCCC"/>
<path d="M424.391 387.914L364.837 418.433L288.293 269.248C279.572 252.251 285.835 231.576 302.254 223.162C318.673 214.748 339.127 221.732 347.848 238.729L424.391 387.914Z" fill="#F2F2F2"/>
<path d="M367.266 421.888C366.659 422.2 365.954 422.258 365.306 422.049C364.657 421.841 364.119 421.383 363.808 420.776L285.513 267.634C281.26 259.316 280.484 249.641 283.354 240.738C286.224 231.834 292.506 224.431 300.818 220.156C309.13 215.882 318.79 215.086 327.674 217.945C336.558 220.804 343.938 227.083 348.19 235.4L426.486 388.542C426.64 388.843 426.733 389.171 426.76 389.508C426.788 389.845 426.748 390.184 426.644 390.506C426.541 390.828 426.375 391.127 426.156 391.385C425.937 391.642 425.67 391.855 425.369 392.009C425.069 392.164 424.741 392.258 424.405 392.285C424.068 392.313 423.73 392.274 423.408 392.17C423.087 392.067 422.79 391.901 422.533 391.682C422.276 391.463 422.065 391.196 421.911 390.895L343.615 237.753C341.818 234.234 339.346 231.106 336.339 228.547C333.333 225.988 329.852 224.048 326.094 222.838C322.337 221.628 318.377 221.171 314.441 221.495C310.504 221.819 306.669 222.916 303.153 224.724C299.638 226.532 296.511 229.015 293.952 232.032C291.392 235.049 289.45 238.54 288.237 242.306C287.024 246.073 286.563 250.04 286.88 253.982C287.198 257.924 288.288 261.764 290.088 265.281L368.383 418.423C368.693 419.03 368.75 419.736 368.54 420.386C368.331 421.036 367.873 421.576 367.266 421.888Z" fill="#CCCCCC"/>
<path d="M410.767 394.933L328.433 234.807C328.402 234.747 328.383 234.682 328.377 234.614C328.372 234.547 328.38 234.479 328.4 234.415C328.421 234.351 328.454 234.292 328.498 234.24C328.542 234.189 328.595 234.146 328.655 234.116C328.715 234.085 328.781 234.066 328.848 234.061C328.916 234.056 328.983 234.063 329.048 234.084C329.112 234.105 329.172 234.138 329.223 234.182C329.275 234.226 329.317 234.279 329.348 234.339L411.682 394.465C411.713 394.525 411.732 394.59 411.738 394.657C411.743 394.725 411.736 394.793 411.715 394.857C411.694 394.921 411.661 394.981 411.617 395.032C411.574 395.084 411.52 395.126 411.46 395.157C411.4 395.187 411.334 395.206 411.267 395.211C411.199 395.217 411.131 395.209 411.067 395.188C411.003 395.167 410.943 395.134 410.891 395.09C410.84 395.046 410.798 394.993 410.767 394.933L410.767 394.933Z" fill="#CCCCCC"/>
<path d="M399.837 401.023L317.755 240.331C317.693 240.209 317.681 240.068 317.723 239.937C317.766 239.807 317.857 239.699 317.979 239.636C318.101 239.574 318.242 239.562 318.372 239.604C318.502 239.645 318.61 239.737 318.672 239.859L400.754 400.551C400.785 400.611 400.804 400.677 400.809 400.745C400.815 400.812 400.807 400.88 400.786 400.945C400.765 401.01 400.732 401.07 400.688 401.121C400.644 401.173 400.591 401.216 400.53 401.247C400.47 401.278 400.404 401.297 400.337 401.302C400.269 401.308 400.201 401.3 400.137 401.279C400.073 401.258 400.013 401.225 399.961 401.181C399.91 401.137 399.868 401.083 399.837 401.023Z" fill="#CCCCCC"/>
<path d="M388.595 406.29L306.261 246.164C306.198 246.042 306.187 245.901 306.228 245.772C306.27 245.642 306.362 245.534 306.483 245.472C306.605 245.41 306.746 245.399 306.876 245.441C307.006 245.483 307.114 245.574 307.176 245.696L389.511 405.822C389.542 405.882 389.56 405.947 389.566 406.014C389.571 406.082 389.564 406.149 389.543 406.214C389.522 406.278 389.489 406.337 389.445 406.389C389.402 406.44 389.348 406.482 389.288 406.513C389.228 406.544 389.162 406.562 389.095 406.568C389.028 406.573 388.96 406.565 388.896 406.545C388.831 406.524 388.771 406.491 388.72 406.447C388.668 406.403 388.626 406.35 388.595 406.29L388.595 406.29Z" fill="#CCCCCC"/>
<path d="M377.923 411.809L295.589 251.683C295.558 251.623 295.539 251.558 295.534 251.49C295.528 251.423 295.536 251.355 295.557 251.291C295.577 251.227 295.61 251.168 295.654 251.116C295.698 251.065 295.751 251.022 295.811 250.992C295.872 250.961 295.937 250.942 296.005 250.937C296.072 250.932 296.14 250.939 296.204 250.96C296.268 250.981 296.328 251.014 296.38 251.058C296.431 251.102 296.474 251.155 296.504 251.215L378.839 411.34C378.87 411.401 378.888 411.466 378.894 411.533C378.9 411.601 378.892 411.669 378.871 411.733C378.851 411.797 378.817 411.857 378.774 411.908C378.73 411.96 378.676 412.002 378.616 412.033C378.556 412.063 378.49 412.082 378.423 412.087C378.356 412.093 378.288 412.085 378.223 412.064C378.159 412.043 378.099 412.01 378.048 411.966C377.996 411.922 377.954 411.869 377.923 411.809Z" fill="#CCCCCC"/>
<path d="M253.365 247.603C227.24 250.613 200.775 248.117 175.681 240.277C174.188 239.82 172.861 238.939 171.861 237.741C170.862 236.544 170.232 235.082 170.05 233.533L162.134 168.568C161.877 166.439 162.477 164.295 163.801 162.607C165.125 160.918 167.065 159.822 169.197 159.56L313.928 141.925C316.06 141.668 318.207 142.266 319.898 143.587C321.589 144.908 322.685 146.845 322.947 148.973L330.863 213.939C331.058 215.486 330.798 217.056 330.115 218.459C329.432 219.861 328.356 221.035 327.016 221.838C304.539 235.474 279.448 244.251 253.365 247.603Z" fill="#00569C"/>
<path d="M247.077 194.809C246.005 194.94 244.916 194.856 243.877 194.561L123.242 160.122C121.686 159.678 120.299 158.778 119.259 157.538C118.22 156.298 117.575 154.775 117.409 153.165C117.243 151.556 117.562 149.933 118.327 148.507C119.091 147.081 120.265 145.916 121.697 145.164L231.129 87.6449C232.891 86.7152 234.935 86.4706 236.866 86.9582L355.371 116.704C356.934 117.096 358.344 117.946 359.422 119.145C360.499 120.343 361.194 121.836 361.419 123.432C361.643 125.028 361.387 126.655 360.682 128.104C359.977 129.554 358.855 130.76 357.461 131.568L250.16 193.78C249.212 194.327 248.164 194.677 247.077 194.809Z" fill="#00569C"/>
<path d="M185.104 243.317C190.934 242.607 195.084 237.305 194.373 231.476C193.663 225.646 188.361 221.496 182.532 222.207C176.702 222.917 172.552 228.218 173.263 234.048C173.973 239.877 179.275 244.027 185.104 243.317Z" fill="#3F3D56"/>
<path opacity="0.2" d="M357.157 124.561L249.879 186.649C249.043 187.133 248.118 187.444 247.158 187.564C246.199 187.683 245.226 187.608 244.296 187.343L123.715 153.02C122.203 152.603 120.873 151.695 119.935 150.439C119.536 151.376 119.341 152.387 119.363 153.405C119.386 154.423 119.624 155.424 120.064 156.342C120.504 157.261 121.134 158.075 121.913 158.731C122.693 159.388 123.603 159.871 124.584 160.149L245.165 194.473C246.095 194.737 247.068 194.812 248.027 194.693C248.986 194.574 249.912 194.263 250.748 193.779L358.025 131.691C358.906 131.182 359.668 130.493 360.262 129.669C360.856 128.845 361.268 127.905 361.472 126.911C361.675 125.916 361.665 124.89 361.441 123.9C361.218 122.91 360.787 121.978 360.176 121.167C359.572 122.6 358.51 123.793 357.157 124.561Z" fill="black"/>
<path d="M184.368 232.695C184.844 232.637 185.278 232.394 185.573 232.019C185.869 231.644 186.003 231.168 185.945 230.696L178.687 171.123L235.245 142.523C235.722 142.472 236.159 142.235 236.46 141.865C236.761 141.494 236.902 141.02 236.852 140.547C236.801 140.074 236.564 139.641 236.191 139.342C235.818 139.044 235.341 138.905 234.865 138.956L178.306 167.556C177.829 167.603 177.366 167.746 176.945 167.976C176.525 168.205 176.155 168.518 175.86 168.893C175.56 169.265 175.338 169.693 175.207 170.151C175.077 170.609 175.04 171.088 175.099 171.56L182.358 231.133C182.415 231.605 182.659 232.035 183.036 232.328C183.414 232.621 183.893 232.753 184.368 232.695Z" fill="#3F3D56"/>
<path d="M642.316 186V118.32H673.324C680.556 118.32 686.124 119.888 690.028 123.024C693.996 126.16 695.98 130.448 695.98 135.888C695.98 139.472 695.084 142.576 693.292 145.2C691.5 147.76 689.004 149.68 685.804 150.96C689.644 152.048 692.588 153.968 694.636 156.72C696.748 159.472 697.804 162.864 697.804 166.896C697.804 172.912 695.692 177.616 691.468 181.008C687.308 184.336 681.612 186 674.38 186H642.316ZM656.524 146.16H670.732C678.028 146.16 681.676 143.344 681.676 137.712C681.676 132.144 678.028 129.36 670.732 129.36H656.524V146.16ZM656.524 174.96H672.364C676.204 174.96 679.02 174.224 680.812 172.752C682.604 171.28 683.5 169.04 683.5 166.032C683.5 163.088 682.604 160.88 680.812 159.408C679.02 157.936 676.204 157.2 672.364 157.2H656.524V174.96ZM707.818 186V138.864H722.026V147.024C724.266 141.52 729.066 138.48 736.426 137.904L740.65 137.616L741.514 149.808L733.354 150.672C726.186 151.376 722.602 155.024 722.602 161.616V186H707.818ZM746.805 129.744V116.208H762.453V129.744H746.805ZM747.381 186V138.864H761.877V186H747.381ZM795.724 204.336C791.18 204.336 786.924 203.856 782.956 202.896C779.052 201.936 775.628 200.432 772.684 198.384L776.62 188.496C779.18 190.096 782.06 191.312 785.26 192.144C788.524 193.04 791.596 193.488 794.476 193.488C802.668 193.488 806.764 189.712 806.764 182.16V176.784C805.484 179.216 803.468 181.168 800.716 182.64C797.964 184.112 794.956 184.848 791.692 184.848C787.468 184.848 783.788 183.888 780.652 181.968C777.516 179.984 775.084 177.232 773.356 173.712C771.628 170.192 770.764 166.064 770.764 161.328C770.764 156.656 771.628 152.56 773.356 149.04C775.084 145.52 777.516 142.8 780.652 140.88C783.788 138.896 787.468 137.904 791.692 137.904C795.084 137.904 798.124 138.64 800.812 140.112C803.5 141.584 805.484 143.536 806.764 145.968V138.864H820.876V180.528C820.876 188.464 818.732 194.416 814.444 198.384C810.156 202.352 803.916 204.336 795.724 204.336ZM796.012 174C799.212 174 801.772 172.88 803.692 170.64C805.676 168.4 806.668 165.296 806.668 161.328C806.668 157.36 805.676 154.288 803.692 152.112C801.772 149.872 799.212 148.752 796.012 148.752C792.748 148.752 790.156 149.872 788.236 152.112C786.316 154.288 785.356 157.36 785.356 161.328C785.356 165.296 786.316 168.4 788.236 170.64C790.156 172.88 792.748 174 796.012 174ZM832.131 186V118.32H846.627V145.296C848.291 142.864 850.435 141.04 853.059 139.824C855.683 138.544 858.595 137.904 861.795 137.904C872.867 137.904 878.403 144.496 878.403 157.68V186H863.907V158.352C863.907 155.088 863.299 152.752 862.083 151.344C860.867 149.872 859.075 149.136 856.707 149.136C853.635 149.136 851.171 150.096 849.315 152.016C847.523 153.936 846.627 156.496 846.627 159.696V186H832.131ZM912.36 187.056C899.112 187.056 892.488 180.624 892.488 167.76V149.712H883.56V138.864H892.488V125.04H906.984V138.864H920.904V149.712H906.984V167.184C906.984 169.872 907.592 171.888 908.808 173.232C910.088 174.576 912.104 175.248 914.856 175.248C915.688 175.248 916.552 175.152 917.448 174.96C918.408 174.768 919.432 174.512 920.52 174.192L922.632 184.752C921.288 185.456 919.688 186 917.832 186.384C915.976 186.832 914.152 187.056 912.36 187.056ZM666.508 283.056C661.196 283.056 656.172 282.384 651.436 281.04C646.764 279.696 642.86 277.872 639.724 275.568L644.044 263.856C647.052 265.968 650.476 267.632 654.316 268.848C658.22 270.064 662.284 270.672 666.508 270.672C671.116 270.672 674.412 269.968 676.396 268.56C678.444 267.088 679.468 265.264 679.468 263.088C679.468 261.232 678.764 259.76 677.356 258.672C675.948 257.584 673.484 256.656 669.964 255.888L659.116 253.584C647.02 251.024 640.972 244.752 640.972 234.768C640.972 230.48 642.124 226.736 644.428 223.536C646.732 220.272 649.932 217.744 654.028 215.952C658.188 214.16 662.988 213.264 668.428 213.264C673.1 213.264 677.484 213.936 681.58 215.28C685.676 216.624 689.068 218.512 691.756 220.944L687.436 231.888C682.188 227.728 675.82 225.648 668.332 225.648C664.3 225.648 661.164 226.448 658.924 228.048C656.748 229.584 655.66 231.6 655.66 234.096C655.66 235.952 656.332 237.456 657.676 238.608C659.02 239.76 661.356 240.688 664.684 241.392L675.532 243.696C687.948 246.384 694.156 252.464 694.156 261.936C694.156 266.16 693.004 269.872 690.7 273.072C688.46 276.208 685.26 278.672 681.1 280.464C677.004 282.192 672.14 283.056 666.508 283.056ZM725.512 283.056C720.392 283.056 715.912 282.064 712.072 280.08C708.296 278.032 705.384 275.152 703.336 271.44C701.288 267.728 700.264 263.344 700.264 258.288C700.264 253.232 701.288 248.88 703.336 245.232C705.384 241.584 708.296 238.8 712.072 236.88C715.912 234.896 720.392 233.904 725.512 233.904C728.52 233.904 731.56 234.352 734.632 235.248C737.704 236.144 740.2 237.424 742.12 239.088L738.088 249.072C736.488 247.792 734.696 246.8 732.712 246.096C730.728 245.328 728.808 244.944 726.952 244.944C723.176 244.944 720.232 246.128 718.12 248.496C716.072 250.8 715.048 254.096 715.048 258.384C715.048 262.608 716.072 265.936 718.12 268.368C720.232 270.736 723.176 271.92 726.952 271.92C728.744 271.92 730.632 271.568 732.616 270.864C734.664 270.16 736.488 269.136 738.088 267.792L742.12 277.776C740.2 279.44 737.704 280.752 734.632 281.712C731.56 282.608 728.52 283.056 725.512 283.056ZM748.412 282V214.32H762.908V241.296C764.572 238.864 766.716 237.04 769.34 235.824C771.964 234.544 774.876 233.904 778.076 233.904C789.148 233.904 794.684 240.496 794.684 253.68V282H780.188V254.352C780.188 251.088 779.58 248.752 778.364 247.344C777.148 245.872 775.356 245.136 772.988 245.136C769.916 245.136 767.452 246.096 765.596 248.016C763.804 249.936 762.908 252.496 762.908 255.696V282H748.412ZM828.161 283.056C823.106 283.056 818.69 282.064 814.914 280.08C811.202 278.032 808.322 275.184 806.273 271.536C804.226 267.824 803.202 263.44 803.202 258.384C803.202 253.392 804.226 249.072 806.273 245.424C808.322 241.712 811.202 238.864 814.914 236.88C818.69 234.896 823.106 233.904 828.161 233.904C833.218 233.904 837.602 234.896 841.314 236.88C845.09 238.864 848.002 241.712 850.05 245.424C852.162 249.072 853.218 253.392 853.218 258.384C853.218 263.44 852.162 267.824 850.05 271.536C848.002 275.184 845.09 278.032 841.314 280.08C837.602 282.064 833.218 283.056 828.161 283.056ZM828.161 272.208C831.234 272.208 833.73 271.088 835.65 268.848C837.634 266.608 838.626 263.12 838.626 258.384C838.626 253.712 837.634 250.288 835.65 248.112C833.73 245.872 831.234 244.752 828.161 244.752C825.09 244.752 822.594 245.872 820.674 248.112C818.754 250.288 817.794 253.712 817.794 258.384C817.794 263.12 818.754 266.608 820.674 268.848C822.594 271.088 825.09 272.208 828.161 272.208ZM879.605 283.056C873.525 283.056 869.077 281.488 866.261 278.352C863.445 275.152 862.037 270.416 862.037 264.144V214.32H876.533V263.568C876.533 268.688 878.805 271.248 883.349 271.248C884.053 271.248 884.725 271.216 885.365 271.152C886.069 271.088 886.741 270.96 887.381 270.768L887.189 282C884.757 282.704 882.229 283.056 879.605 283.056ZM909.942 283.056C906.422 283.056 903.318 282.384 900.63 281.04C897.942 279.696 895.798 277.872 894.198 275.568C892.662 273.264 891.894 270.672 891.894 267.792C891.894 264.4 892.79 261.68 894.582 259.632C896.374 257.584 899.286 256.144 903.318 255.312C907.35 254.416 912.694 253.968 919.35 253.968H922.806V252.336C922.806 249.52 922.166 247.536 920.886 246.384C919.606 245.168 917.43 244.56 914.358 244.56C911.798 244.56 909.078 244.976 906.198 245.808C903.382 246.576 900.566 247.76 897.75 249.36L893.814 239.664C895.478 238.576 897.494 237.584 899.862 236.688C902.294 235.792 904.822 235.12 907.446 234.672C910.07 234.16 912.566 233.904 914.934 233.904C922.23 233.904 927.67 235.568 931.254 238.896C934.838 242.16 936.63 247.248 936.63 254.16V282H923.094V274.896C922.134 277.392 920.502 279.376 918.198 280.848C915.958 282.32 913.206 283.056 909.942 283.056ZM913.206 273.36C915.894 273.36 918.166 272.432 920.022 270.576C921.878 268.72 922.806 266.32 922.806 263.376V261.456H919.446C914.518 261.456 911.03 261.904 908.982 262.8C906.934 263.632 905.91 265.104 905.91 267.216C905.91 269.008 906.518 270.48 907.734 271.632C909.014 272.784 910.838 273.36 913.206 273.36ZM947.443 282V234.864H961.651V243.024C963.891 237.52 968.691 234.48 976.051 233.904L980.275 233.616L981.139 245.808L972.979 246.672C965.811 247.376 962.227 251.024 962.227 257.616V282H947.443ZM1004.58 283.056C1000.42 283.056 996.553 282.576 992.969 281.616C989.385 280.656 986.409 279.344 984.041 277.68L987.497 268.272C989.865 269.744 992.553 270.928 995.561 271.824C998.633 272.656 1001.67 273.072 1004.68 273.072C1007.37 273.072 1009.35 272.656 1010.63 271.824C1011.91 270.928 1012.55 269.776 1012.55 268.368C1012.55 266.128 1010.92 264.72 1007.66 264.144L997.577 262.32C993.545 261.616 990.473 260.176 988.361 258C986.249 255.824 985.193 252.976 985.193 249.456C985.193 246.256 986.089 243.504 987.881 241.2C989.673 238.896 992.137 237.104 995.273 235.824C998.409 234.544 1002.02 233.904 1006.12 233.904C1009.51 233.904 1012.81 234.352 1016.01 235.248C1019.21 236.08 1021.96 237.424 1024.26 239.28L1020.62 248.592C1018.7 247.184 1016.39 246.032 1013.7 245.136C1011.08 244.24 1008.62 243.792 1006.31 243.792C1003.43 243.792 1001.35 244.272 1000.07 245.232C998.793 246.128 998.153 247.28 998.153 248.688C998.153 250.928 999.657 252.336 1002.66 252.912L1012.74 254.736C1016.9 255.44 1020.07 256.848 1022.25 258.96C1024.42 261.008 1025.51 263.824 1025.51 267.408C1025.51 272.336 1023.59 276.176 1019.75 278.928C1015.91 281.68 1010.86 283.056 1004.58 283.056ZM1033.79 282V214.32H1048.28V241.296C1049.95 238.864 1052.09 237.04 1054.71 235.824C1057.34 234.544 1060.25 233.904 1063.45 233.904C1074.52 233.904 1080.06 240.496 1080.06 253.68V282H1065.56V254.352C1065.56 251.088 1064.95 248.752 1063.74 247.344C1062.52 245.872 1060.73 245.136 1058.36 245.136C1055.29 245.136 1052.83 246.096 1050.97 248.016C1049.18 249.936 1048.28 252.496 1048.28 255.696V282H1033.79ZM1090.3 225.744V212.208H1105.95V225.744H1090.3ZM1090.88 282V234.864H1105.38V282H1090.88ZM1116.57 299.28V234.864H1130.78V241.872C1132.06 239.44 1134.01 237.52 1136.63 236.112C1139.32 234.64 1142.33 233.904 1145.66 233.904C1149.75 233.904 1153.34 234.896 1156.41 236.88C1159.54 238.864 1161.98 241.68 1163.7 245.328C1165.43 248.976 1166.3 253.328 1166.3 258.384C1166.3 263.44 1165.43 267.824 1163.7 271.536C1161.98 275.184 1159.54 278.032 1156.41 280.08C1153.34 282.064 1149.75 283.056 1145.66 283.056C1142.52 283.056 1139.64 282.384 1137.02 281.04C1134.46 279.696 1132.47 277.904 1131.06 275.664V299.28H1116.57ZM1141.34 272.208C1144.41 272.208 1146.9 271.088 1148.82 268.848C1150.74 266.608 1151.7 263.12 1151.7 258.384C1151.7 253.712 1150.74 250.288 1148.82 248.112C1146.9 245.872 1144.41 244.752 1141.34 244.752C1138.2 244.752 1135.67 245.872 1133.75 248.112C1131.83 250.288 1130.87 253.712 1130.87 258.384C1130.87 263.12 1131.83 266.608 1133.75 268.848C1135.67 271.088 1138.2 272.208 1141.34 272.208Z" fill="white"/>
<path opacity="0.08" d="M1019.34 377.237C1015.16 379.469 1010.09 379.183 1006.2 376.496L891.219 297.203C882.702 291.329 884.462 278.268 894.232 274.86L1311.25 129.344C1322.21 125.518 1332.1 137.261 1326.47 147.416L1276.51 237.419C1275.33 239.545 1273.56 241.285 1271.42 242.432L1019.34 377.237Z" fill="white"/>
<path opacity="0.08" d="M1051.58 581.534C1052.66 584.548 1051.83 587.818 1049.41 590.009L978.137 654.681C972.857 659.471 963.701 656.619 962.473 649.801L910.053 358.754C908.674 351.101 918.339 346.18 924.926 351.182L983.304 395.514C984.683 396.561 985.712 397.941 986.267 399.49L1051.58 581.534Z" fill="white"/>
<path opacity="0.08" d="M1438.99 171.594C1450.96 164.797 1465.96 172.62 1467.23 186.327L1501.81 557.993C1502.57 566.085 1498.08 573.757 1490.66 577.068L1167.11 721.426C1157.26 725.818 1145.74 721.132 1141.76 711.114L1027.6 423.973C1024.1 415.177 1027.62 405.149 1035.85 400.476L1438.99 171.594Z" fill="white"/>
</g>
<defs>
<linearGradient id="paint0_linear_512_39464" x1="-10" y1="274.5" x2="617" y2="274.5" gradientUnits="userSpaceOnUse">
<stop stop-color="white" stop-opacity="0"/>
<stop offset="1" stop-color="white"/>
</linearGradient>
<clipPath id="clip0_512_39464">
<rect width="1440" height="512" fill="white" transform="translate(0 0.0869141)"/>
</clipPath>
</defs>
</svg>
