<svg width="1440" height="512" viewBox="0 0 1440 512" fill="none" xmlns="http://www.w3.org/2000/svg">
<g clip-path="url(#clip0_512_39691)">
<rect width="1440" height="512" fill="#6FCF97"/>
<path opacity="0.64" d="M577.45 334.152L353.894 -49.8108C348.359 -59.3178 338.328 -65.315 327.334 -65.6909L-31.4066 -77.9555C-49.4978 -78.574 -64.5 -64.0759 -64.5 -45.9742V505.724C-64.5 520.035 -54.9968 532.607 -41.2275 536.51L361.094 650.561C374.45 654.348 388.724 649.09 396.433 637.545L576.408 368.024C583.196 357.859 583.6 344.715 577.45 334.152Z" fill="url(#paint0_linear_512_39691)"/>
<path d="M642.316 185.913V118.233H688.012V129.849H657.196V146.361H685.9V157.977H657.196V185.913H642.316ZM709.879 186.969C706.359 186.969 703.255 186.297 700.567 184.953C697.879 183.609 695.735 181.785 694.135 179.481C692.599 177.177 691.831 174.585 691.831 171.705C691.831 168.313 692.727 165.593 694.519 163.545C696.311 161.497 699.223 160.057 703.255 159.225C707.287 158.329 712.631 157.881 719.287 157.881H722.743V156.249C722.743 153.433 722.103 151.449 720.823 150.297C719.543 149.081 717.367 148.473 714.295 148.473C711.735 148.473 709.015 148.889 706.135 149.721C703.319 150.489 700.503 151.673 697.687 153.273L693.751 143.577C695.415 142.489 697.431 141.497 699.799 140.601C702.231 139.705 704.759 139.033 707.383 138.585C710.007 138.073 712.503 137.817 714.871 137.817C722.167 137.817 727.607 139.481 731.191 142.809C734.775 146.073 736.567 151.161 736.567 158.073V185.913H723.031V178.809C722.071 181.305 720.439 183.289 718.135 184.761C715.895 186.233 713.143 186.969 709.879 186.969ZM713.143 177.273C715.831 177.273 718.103 176.345 719.959 174.489C721.815 172.633 722.743 170.233 722.743 167.289V165.369H719.383C714.455 165.369 710.967 165.817 708.919 166.713C706.871 167.545 705.847 169.017 705.847 171.129C705.847 172.921 706.455 174.393 707.671 175.545C708.951 176.697 710.775 177.273 713.143 177.273ZM747.573 185.913V138.777H761.781V145.593C763.189 143.161 765.109 141.273 767.541 139.929C770.037 138.521 772.917 137.817 776.181 137.817C779.509 137.817 782.325 138.553 784.629 140.025C786.997 141.497 788.789 143.737 790.005 146.745C791.477 143.929 793.589 141.753 796.341 140.217C799.157 138.617 802.261 137.817 805.653 137.817C811.029 137.817 815.029 139.449 817.653 142.713C820.277 145.913 821.589 150.873 821.589 157.593V185.913H807.093V158.073C807.093 154.937 806.581 152.665 805.557 151.257C804.597 149.785 802.933 149.049 800.565 149.049C797.813 149.049 795.669 150.009 794.133 151.929C792.597 153.849 791.829 156.569 791.829 160.089V185.913H777.333V158.073C777.333 154.937 776.821 152.665 775.797 151.257C774.773 149.785 773.109 149.049 770.805 149.049C768.053 149.049 765.909 150.009 764.373 151.929C762.837 153.849 762.069 156.569 762.069 160.089V185.913H747.573ZM832.117 129.657V116.121H847.765V129.657H832.117ZM832.693 185.913V138.777H847.189V185.913H832.693ZM875.949 186.969C869.869 186.969 865.421 185.401 862.605 182.265C859.789 179.065 858.381 174.329 858.381 168.057V118.233H872.877V167.481C872.877 172.601 875.149 175.161 879.693 175.161C880.397 175.161 881.069 175.129 881.709 175.065C882.413 175.001 883.085 174.873 883.725 174.681L883.533 185.913C881.101 186.617 878.573 186.969 875.949 186.969ZM892.685 203.193L901.709 183.321L882.317 138.777H897.581L909.389 168.729L921.581 138.777H935.981L907.469 203.193H892.685ZM666.508 282.969C661.196 282.969 656.172 282.297 651.436 280.953C646.764 279.609 642.86 277.785 639.724 275.481L644.044 263.769C647.052 265.881 650.476 267.545 654.316 268.761C658.22 269.977 662.284 270.585 666.508 270.585C671.116 270.585 674.412 269.881 676.396 268.473C678.444 267.001 679.468 265.177 679.468 263.001C679.468 261.145 678.764 259.673 677.356 258.585C675.948 257.497 673.484 256.569 669.964 255.801L659.116 253.497C647.02 250.937 640.972 244.665 640.972 234.681C640.972 230.393 642.124 226.649 644.428 223.449C646.732 220.185 649.932 217.657 654.028 215.865C658.188 214.073 662.988 213.177 668.428 213.177C673.1 213.177 677.484 213.849 681.58 215.193C685.676 216.537 689.068 218.425 691.756 220.857L687.436 231.801C682.188 227.641 675.82 225.561 668.332 225.561C664.3 225.561 661.164 226.361 658.924 227.961C656.748 229.497 655.66 231.513 655.66 234.009C655.66 235.865 656.332 237.369 657.676 238.521C659.02 239.673 661.356 240.601 664.684 241.305L675.532 243.609C687.948 246.297 694.156 252.377 694.156 261.849C694.156 266.073 693.004 269.785 690.7 272.985C688.46 276.121 685.26 278.585 681.1 280.377C677.004 282.105 672.14 282.969 666.508 282.969ZM725.048 282.969C711.8 282.969 705.176 276.537 705.176 263.673V245.625H696.248V234.777H705.176V220.953H719.672V234.777H733.592V245.625H719.672V263.097C719.672 265.785 720.28 267.801 721.496 269.145C722.776 270.489 724.792 271.161 727.544 271.161C728.376 271.161 729.24 271.065 730.136 270.873C731.096 270.681 732.12 270.425 733.208 270.105L735.32 280.665C733.976 281.369 732.376 281.913 730.52 282.297C728.664 282.745 726.84 282.969 725.048 282.969ZM740.724 281.913V234.777H754.932V242.937C757.172 237.433 761.972 234.393 769.332 233.817L773.556 233.529L774.42 245.721L766.26 246.585C759.092 247.289 755.508 250.937 755.508 257.529V281.913H740.724ZM803.923 282.969C798.355 282.969 793.555 281.977 789.523 279.993C785.555 277.945 782.483 275.097 780.307 271.449C778.195 267.737 777.139 263.385 777.139 258.393C777.139 253.529 778.163 249.273 780.211 245.625C782.323 241.913 785.171 239.033 788.755 236.985C792.403 234.873 796.595 233.817 801.331 233.817C808.179 233.817 813.619 235.993 817.651 240.345C821.683 244.633 823.699 250.457 823.699 257.817V261.465H790.963C791.475 265.177 792.819 267.897 794.995 269.625C797.235 271.289 800.307 272.121 804.211 272.121C806.771 272.121 809.363 271.737 811.987 270.969C814.611 270.201 816.979 269.017 819.091 267.417L822.931 277.113C820.563 278.905 817.651 280.345 814.195 281.433C810.803 282.457 807.379 282.969 803.923 282.969ZM801.907 243.417C798.835 243.417 796.339 244.345 794.419 246.201C792.563 248.057 791.411 250.649 790.963 253.977H811.699C811.315 246.937 808.051 243.417 801.907 243.417ZM832.131 281.913V234.777H846.339V241.689C847.939 239.129 850.083 237.177 852.771 235.833C855.459 234.489 858.467 233.817 861.795 233.817C867.363 233.817 871.523 235.449 874.275 238.713C877.027 241.913 878.403 246.873 878.403 253.593V281.913H863.907V254.265C863.907 251.001 863.299 248.665 862.083 247.257C860.867 245.785 859.075 245.049 856.707 245.049C853.635 245.049 851.171 246.009 849.315 247.929C847.523 249.849 846.627 252.409 846.627 255.609V281.913H832.131ZM911.88 300.249C907.336 300.249 903.08 299.769 899.112 298.809C895.208 297.849 891.784 296.345 888.84 294.297L892.776 284.409C895.336 286.009 898.216 287.225 901.416 288.057C904.68 288.953 907.752 289.401 910.632 289.401C918.824 289.401 922.92 285.625 922.92 278.073V272.697C921.64 275.129 919.624 277.081 916.872 278.553C914.12 280.025 911.112 280.761 907.848 280.761C903.624 280.761 899.944 279.801 896.808 277.881C893.672 275.897 891.24 273.145 889.512 269.625C887.784 266.105 886.92 261.977 886.92 257.241C886.92 252.569 887.784 248.473 889.512 244.953C891.24 241.433 893.672 238.713 896.808 236.793C899.944 234.809 903.624 233.817 907.848 233.817C911.24 233.817 914.28 234.553 916.968 236.025C919.656 237.497 921.64 239.449 922.92 241.881V234.777H937.032V276.441C937.032 284.377 934.888 290.329 930.6 294.297C926.312 298.265 920.072 300.249 911.88 300.249ZM912.168 269.913C915.368 269.913 917.928 268.793 919.848 266.553C921.832 264.313 922.824 261.209 922.824 257.241C922.824 253.273 921.832 250.201 919.848 248.025C917.928 245.785 915.368 244.665 912.168 244.665C908.904 244.665 906.312 245.785 904.392 248.025C902.472 250.201 901.512 253.273 901.512 257.241C901.512 261.209 902.472 264.313 904.392 266.553C906.312 268.793 908.904 269.913 912.168 269.913ZM971.423 282.969C958.175 282.969 951.551 276.537 951.551 263.673V245.625H942.623V234.777H951.551V220.953H966.047V234.777H979.967V245.625H966.047V263.097C966.047 265.785 966.655 267.801 967.871 269.145C969.151 270.489 971.167 271.161 973.919 271.161C974.751 271.161 975.615 271.065 976.511 270.873C977.471 270.681 978.495 270.425 979.583 270.105L981.695 280.665C980.351 281.369 978.751 281.913 976.895 282.297C975.039 282.745 973.215 282.969 971.423 282.969ZM987.099 281.913V214.233H1001.6V241.209C1003.26 238.777 1005.4 236.953 1008.03 235.737C1010.65 234.457 1013.56 233.817 1016.76 233.817C1027.84 233.817 1033.37 240.409 1033.37 253.593V281.913H1018.88V254.265C1018.88 251.001 1018.27 248.665 1017.05 247.257C1015.84 245.785 1014.04 245.049 1011.68 245.049C1008.6 245.049 1006.14 246.009 1004.28 247.929C1002.49 249.849 1001.6 252.409 1001.6 255.609V281.913H987.099ZM1068.67 282.969C1063.11 282.969 1058.31 281.977 1054.27 279.993C1050.31 277.945 1047.23 275.097 1045.06 271.449C1042.95 267.737 1041.89 263.385 1041.89 258.393C1041.89 253.529 1042.91 249.273 1044.96 245.625C1047.07 241.913 1049.92 239.033 1053.51 236.985C1057.15 234.873 1061.35 233.817 1066.08 233.817C1072.93 233.817 1078.37 235.993 1082.4 240.345C1086.43 244.633 1088.45 250.457 1088.45 257.817V261.465H1055.71C1056.23 265.177 1057.57 267.897 1059.75 269.625C1061.99 271.289 1065.06 272.121 1068.96 272.121C1071.52 272.121 1074.11 271.737 1076.74 270.969C1079.36 270.201 1081.73 269.017 1083.84 267.417L1087.68 277.113C1085.31 278.905 1082.4 280.345 1078.95 281.433C1075.55 282.457 1072.13 282.969 1068.67 282.969ZM1066.66 243.417C1063.59 243.417 1061.09 244.345 1059.17 246.201C1057.31 248.057 1056.16 250.649 1055.71 253.977H1076.45C1076.07 246.937 1072.8 243.417 1066.66 243.417ZM1096.88 281.913V234.777H1111.09V241.689C1112.69 239.129 1114.83 237.177 1117.52 235.833C1120.21 234.489 1123.22 233.817 1126.54 233.817C1132.11 233.817 1136.27 235.449 1139.02 238.713C1141.78 241.913 1143.15 246.873 1143.15 253.593V281.913H1128.66V254.265C1128.66 251.001 1128.05 248.665 1126.83 247.257C1125.62 245.785 1123.82 245.049 1121.46 245.049C1118.38 245.049 1115.92 246.009 1114.06 247.929C1112.27 249.849 1111.38 252.409 1111.38 255.609V281.913H1096.88Z" fill="white"/>
<path d="M441.912 288.686C314.984 241.105 160.178 287.492 70.7987 382.379C70.2906 382.912 69.7826 383.452 69.2906 383.992H67.9277C68.3955 383.452 68.8793 382.912 69.3551 382.379C160.589 280.275 313.339 239.581 441.912 288.686Z" fill="#3F3D56"/>
<path d="M476.598 304.468C465.378 298.485 453.794 293.213 441.912 288.686C453.825 293.139 465.414 298.412 476.598 304.468Z" fill="#3F3D56"/>
<path d="M409.096 375.291C410.462 380.341 415.141 383.469 415.141 383.469C415.141 383.469 417.606 378.409 416.24 373.359C414.873 368.309 410.194 365.182 410.194 365.182C410.194 365.182 407.73 370.241 409.096 375.291Z" fill="#3F3D56"/>
<path d="M411.105 374.206C414.853 377.855 415.311 383.464 415.311 383.464C415.311 383.464 409.691 383.158 405.943 379.509C402.194 375.859 401.736 370.25 401.736 370.25C401.736 370.25 407.356 370.557 411.105 374.206Z" fill="#219653"/>
<path d="M32.7094 305.077V312.867L32.3223 313.286V304.996C32.4513 305.02 32.5804 305.053 32.7094 305.077Z" fill="#3F3D56"/>
<path d="M57.5319 382.375C57.419 382.561 57.2981 382.746 57.1771 382.931H32.3223V305.464L32.7094 305.077L36.0078 308.827V303.343H46.4916V320.746L57.0803 332.77L57.1771 332.883C57.3061 333.286 57.4271 333.69 57.5481 334.093C57.5489 334.099 57.5517 334.105 57.5561 334.109C59.1442 339.191 60.4473 344.358 61.4594 349.585C63.7658 361.915 63.419 373.222 57.5319 382.375Z" fill="#CCCCCC"/>
<path d="M41.0479 347.897H34.375V353.458H41.0479V347.897Z" fill="#3F3D56"/>
<path d="M41.0479 357.907H34.375V363.468H41.0479V357.907Z" fill="#3F3D56"/>
<path d="M246.602 337.332L243.266 331.772L274.406 305.08C297.428 293.998 325.179 297.196 354.482 305.08V312.864L325.566 344.005L292.2 350.678L246.602 337.332Z" fill="#3F3D56"/>
<path d="M368.267 320.743C373.797 314.592 374.565 308.743 368.267 303.342H357.783V308.829L354.483 305.079L327.791 331.771L323.342 336.219L317.781 358.463L327.791 382.93H378.95V332.883L368.267 320.743Z" fill="#CCCCCC"/>
<path d="M243.266 331.771H327.79V382.93H243.266C233.041 371.867 238.353 351.702 243.266 331.771Z" fill="#F2F2F2"/>
<path d="M316.115 347.897H298.32V363.468H316.115V347.897Z" fill="#3F3D56"/>
<path d="M291.088 347.341H275.518V382.93H291.088V347.341Z" fill="#CCCCCC"/>
<path d="M257.723 352.903V347.342H251.051V352.903H257.167H257.723Z" fill="#3F3D56"/>
<path d="M257.167 357.351H251.051V362.912H257.723V357.351H257.167Z" fill="#3F3D56"/>
<path d="M268.847 347.341H262.174V352.902H268.847V347.341Z" fill="#3F3D56"/>
<path d="M268.847 357.351H262.174V362.912H268.847V357.351Z" fill="#3F3D56"/>
<path d="M351.701 353.459V347.897H345.027V353.459H351.144H351.701Z" fill="#3F3D56"/>
<path d="M351.144 357.907H345.027V363.468H351.701V357.907H351.144Z" fill="#3F3D56"/>
<path d="M362.823 347.897H356.15V353.458H362.823V347.897Z" fill="#3F3D56"/>
<path d="M362.823 357.907H356.15V363.468H362.823V357.907Z" fill="#3F3D56"/>
<path d="M96.1015 243.911L90.541 239.462L121.681 211.658H200.644V236.126L149.485 270.603L96.1015 243.911Z" fill="#3F3D56"/>
<path d="M215.041 227.255V212.214H204.557V215.898L200.644 211.658L175.064 239.462L165.055 246.136L149.535 359.525L172.941 382.931H227.336C235.67 341.005 242.279 297.935 227.336 240.574L215.041 227.255Z" fill="#CCCCCC"/>
<path d="M90.5387 239.462H175.063V382.931H90.5387C81.2894 327.194 76.7722 275.507 90.5387 239.462Z" fill="#F2F2F2"/>
<path d="M138.92 347.897H123.35V382.93H138.92V347.897Z" fill="#CCCCCC"/>
<path d="M106.669 357.908V352.347H99.9961V357.908H106.113H106.669Z" fill="#3F3D56"/>
<path d="M106.113 362.356H99.9961V367.917H106.669V362.356H106.113Z" fill="#3F3D56"/>
<path d="M117.788 352.346H111.115V357.907H117.788V352.346Z" fill="#3F3D56"/>
<path d="M151.709 362.356H145.592V367.917H152.264V362.356H151.709Z" fill="#3F3D56"/>
<path d="M163.388 352.346H156.715V357.907H163.388V352.346Z" fill="#3F3D56"/>
<path d="M163.388 362.356H156.715V367.917H163.388V362.356Z" fill="#3F3D56"/>
<path d="M198.975 246.691V241.131H192.303V246.691H198.42H198.975Z" fill="#3F3D56"/>
<path d="M198.42 251.141H192.303V256.701H198.975V251.141H198.42Z" fill="#3F3D56"/>
<path d="M210.097 241.13H203.424V246.691H210.097V241.13Z" fill="#3F3D56"/>
<path d="M210.097 251.14H203.424V256.7H210.097V251.14Z" fill="#3F3D56"/>
<path d="M198.975 277.832V272.271H192.303V277.832H198.42H198.975Z" fill="#3F3D56"/>
<path d="M198.42 282.281H192.303V287.841H198.975V282.281H198.42Z" fill="#3F3D56"/>
<path d="M210.097 272.271H203.424V277.831H210.097V272.271Z" fill="#3F3D56"/>
<path d="M210.097 282.28H203.424V287.841H210.097V282.28Z" fill="#3F3D56"/>
<path d="M198.975 308.973V303.412H192.303V308.973H198.42H198.975Z" fill="#3F3D56"/>
<path d="M198.42 313.421H192.303V318.981H198.975V313.421H198.42Z" fill="#3F3D56"/>
<path d="M210.097 303.412H203.424V308.972H210.097V303.412Z" fill="#3F3D56"/>
<path d="M210.097 313.42H203.424V318.981H210.097V313.42Z" fill="#3F3D56"/>
<path d="M198.975 340.113V334.552H192.303V340.113H198.42H198.975Z" fill="#3F3D56"/>
<path d="M198.42 344.562H192.303V350.122H198.975V344.562H198.42Z" fill="#3F3D56"/>
<path d="M210.097 334.552H203.424V340.113H210.097V334.552Z" fill="#3F3D56"/>
<path d="M210.097 344.561H203.424V350.121H210.097V344.561Z" fill="#3F3D56"/>
<path d="M99.9961 246.691H164.501V260.037C143.825 254.331 122.264 254.74 99.9961 260.037V246.691Z" fill="#3F3D56"/>
<path d="M99.9961 273.383C120.129 279.315 141.631 279.315 164.501 273.383V286.729H99.9961V273.383Z" fill="#3F3D56"/>
<path d="M99.9961 300.075H164.501V313.421C142.518 306.401 120.994 306.07 99.9961 313.421V300.075Z" fill="#3F3D56"/>
<path d="M99.9961 326.767C121.033 334.874 142.554 334.537 164.501 326.767V340.113H99.9961V326.767Z" fill="#3F3D56"/>
<path d="M446.678 303.581H492.001V325.419L487.952 326.686L474.485 330.889L453.355 325.995L432.251 321.104L421.106 318.522L415.541 316.463C420.17 310.112 428.589 305.116 446.678 303.581Z" fill="#3F3D56"/>
<path d="M492 316.463V382.931H415.541C415.516 382.89 415.5 382.853 415.476 382.812V382.808C415.458 382.762 415.436 382.717 415.412 382.674C414.218 380.271 413.148 377.875 412.202 375.485C404.178 355.26 405.049 335.57 415.541 316.463H492Z" fill="#F2F2F2"/>
<path d="M463.92 347.897H448.35V382.93H463.92V347.897Z" fill="#CCCCCC"/>
<path d="M431.669 357.908V352.347H424.996V357.908H431.113H431.669Z" fill="#3F3D56"/>
<path d="M431.113 362.356H424.996V367.917H431.669V362.356H431.113Z" fill="#3F3D56"/>
<path d="M442.788 352.346H436.115V357.907H442.788V352.346Z" fill="#3F3D56"/>
<path d="M442.788 362.356H436.115V367.917H442.788V362.356Z" fill="#3F3D56"/>
<path d="M477.264 357.908V352.347H470.592V357.908H476.709H477.264Z" fill="#3F3D56"/>
<path d="M476.709 362.356H470.592V367.917H477.264V362.356H476.709Z" fill="#3F3D56"/>
<path d="M488.388 352.346H481.715V357.907H488.388V352.346Z" fill="#3F3D56"/>
<path d="M488.388 362.356H481.715V367.917H488.388V362.356Z" fill="#3F3D56"/>
<path d="M432.252 277.774H441.837C451.291 277.774 460.358 281.53 467.043 288.215C473.728 294.9 477.484 303.967 477.484 313.421H432.252V277.774Z" fill="#3F3D56"/>
<path d="M141.932 181H151.517C160.971 181 170.038 184.756 176.723 191.441C183.408 198.126 187.163 207.192 187.163 216.646H141.932V181Z" fill="#3F3D56"/>
<path d="M295.156 270.517H304.742C314.196 270.517 323.262 274.272 329.947 280.957C336.632 287.642 340.388 296.709 340.388 306.163H295.156V270.517Z" fill="#3F3D56"/>
<path d="M477.484 326.767H432.252V340.113H477.484V326.767Z" fill="#3F3D56"/>
<path d="M492 382.379H32.3223V383.992H492V382.379Z" fill="#3F3D56"/>
<path d="M74.7164 318.665H73.1035V382.375H74.7164V318.665Z" fill="#3F3D56"/>
<path d="M89.6026 326.785C89.7052 349.062 74.0317 367.195 74.0317 367.195C74.0317 367.195 53.9597 348.822 58.089 326.93C62.2419 304.913 75.185 286.613 73.6599 286.52C73.6599 286.52 89.4999 304.507 89.6026 326.785Z" fill="#219653"/>
<path d="M236.007 318.665H234.395V382.375H236.007V318.665Z" fill="#3F3D56"/>
<path d="M250.893 326.785C252.347 349.015 235.322 367.195 235.322 367.195C235.322 367.195 219.482 349.208 219.379 326.93C219.277 304.652 234.95 286.52 234.95 286.52C233.422 292.627 249.717 308.798 250.893 326.785Z" fill="#219653"/>
<path d="M131.219 215.104L201.278 211.677L230.668 236.208L225.472 240.899L178.932 239.852L131.219 215.104Z" fill="#3F3D56"/>
<path d="M61.3145 328.948L57.5403 332.359L57.0807 332.771L56.121 333.642L32.3226 333.109V304.996C31.5484 304.827 30.7742 304.666 30 304.513L31.9274 304.416L32.3226 304.746L36.0081 307.819L46.4919 316.577L58.2016 326.351L61.3145 328.948Z" fill="#3F3D56"/>
<path d="M284.447 307.846L354.507 304.418L383.896 328.95L378.7 333.641L332.161 332.593L284.447 307.846Z" fill="#3F3D56"/>
<path opacity="0.08" d="M1096.07 311.984C1100.48 312.324 1104.23 315.297 1105.56 319.509L1187.89 578.911C1190.65 587.626 1182.09 595.729 1173.55 592.478L940.46 503.756C937.208 502.519 934.753 499.798 933.851 496.434L883.958 310.261C882.005 302.973 887.875 295.909 895.402 296.49L1096.07 311.984Z" fill="white"/>
<path opacity="0.08" d="M1359.88 229.692C1358.45 232.674 1355.75 234.85 1352.53 235.614L1133.93 287.505C1132.45 287.856 1130.92 287.895 1129.42 287.62L1030.34 269.383C1019.65 267.417 1018.05 252.77 1028.05 248.536L1406.33 88.3957C1415.61 84.4651 1424.83 94.1131 1420.47 103.206L1359.88 229.692Z" fill="white"/>
<path opacity="0.08" d="M1476.08 227.575C1488.19 224.073 1499.56 234.948 1496.61 247.198L1424.68 545.54C1423.08 552.178 1417.54 557.132 1410.76 557.984L1246.43 578.645C1238.48 579.644 1230.98 574.767 1228.66 567.103L1159.01 336.609C1156.36 327.855 1161.38 318.627 1170.16 316.085L1476.08 227.575Z" fill="white"/>
</g>
<defs>
<linearGradient id="paint0_linear_512_39691" x1="-10" y1="274.413" x2="617" y2="274.413" gradientUnits="userSpaceOnUse">
<stop stop-color="white" stop-opacity="0"/>
<stop offset="1" stop-color="white"/>
</linearGradient>
<clipPath id="clip0_512_39691">
<rect width="1440" height="512" fill="white"/>
</clipPath>
</defs>
</svg>
