<svg width="1440" height="512" viewBox="0 0 1440 512" fill="none" xmlns="http://www.w3.org/2000/svg">
<g clip-path="url(#clip0_512_39506)">
<rect width="1440" height="512" fill="#2F80ED"/>
<path opacity="0.64" d="M577.45 334.152L353.894 -49.8108C348.359 -59.3178 338.328 -65.315 327.334 -65.6909L-31.4066 -77.9555C-49.4978 -78.574 -64.5 -64.0759 -64.5 -45.9742V505.724C-64.5 520.035 -54.9968 532.607 -41.2275 536.51L361.094 650.561C374.45 654.348 388.724 649.09 396.433 637.545L576.408 368.024C583.196 357.859 583.6 344.715 577.45 334.152Z" fill="url(#paint0_linear_512_39506)"/>
<path d="M22.5 421.913H491.5" stroke="#3F3D56"/>
<path d="M298.787 353.383V420.311H131.352C112.275 420.311 96.7539 405.298 96.7539 386.847C96.7539 368.396 112.275 353.383 131.352 353.383H298.787Z" fill="#F2F2F2"/>
<path d="M303.165 419.608C303.164 420.292 302.893 420.948 302.41 421.432C301.927 421.916 301.272 422.187 300.589 422.188H128.285C118.927 422.188 109.952 418.464 103.335 411.837C96.7175 405.209 93 396.22 93 386.848C93 377.475 96.7175 368.486 103.335 361.858C109.952 355.231 118.927 351.507 128.285 351.507H300.589C301.272 351.507 301.927 351.779 302.41 352.263C302.893 352.747 303.165 353.403 303.165 354.087C303.165 354.771 302.893 355.427 302.41 355.911C301.927 356.395 301.272 356.666 300.589 356.666H128.285C120.293 356.666 112.628 359.846 106.977 365.506C101.326 371.166 98.1511 378.843 98.1511 386.848C98.1511 394.852 101.326 402.529 106.977 408.189C112.628 413.849 120.293 417.029 128.285 417.029H300.589C301.272 417.029 301.927 417.301 302.41 417.784C302.893 418.268 303.164 418.924 303.165 419.608Z" fill="#00569C"/>
<path d="M298.896 368.396H118.535C118.398 368.396 118.267 368.363 118.17 368.304C118.074 368.245 118.02 368.166 118.02 368.083C118.02 368 118.074 367.92 118.17 367.862C118.267 367.803 118.398 367.77 118.535 367.77H298.896C299.033 367.77 299.164 367.803 299.261 367.862C299.357 367.92 299.412 368 299.412 368.083C299.412 368.166 299.357 368.245 299.261 368.304C299.164 368.363 299.033 368.396 298.896 368.396Z" fill="#CCCCCC"/>
<path d="M298.896 380.906H118.535C118.398 380.906 118.267 380.84 118.17 380.723C118.074 380.605 118.02 380.446 118.02 380.28C118.02 380.114 118.074 379.955 118.17 379.838C118.267 379.721 118.398 379.655 118.535 379.655H298.896C299.033 379.655 299.164 379.721 299.261 379.838C299.357 379.955 299.412 380.114 299.412 380.28C299.412 380.446 299.357 380.605 299.261 380.723C299.164 380.84 299.033 380.906 298.896 380.906Z" fill="#CCCCCC"/>
<path d="M298.896 393.416H118.535C118.398 393.416 118.267 393.35 118.17 393.232C118.074 393.115 118.02 392.956 118.02 392.79C118.02 392.624 118.074 392.465 118.17 392.348C118.267 392.23 118.398 392.165 118.535 392.165H298.896C299.033 392.165 299.164 392.23 299.261 392.348C299.357 392.465 299.412 392.624 299.412 392.79C299.412 392.956 299.357 393.115 299.261 393.232C299.164 393.35 299.033 393.416 298.896 393.416Z" fill="#CCCCCC"/>
<path d="M298.896 405.925H118.535C118.398 405.925 118.267 405.859 118.17 405.742C118.074 405.625 118.02 405.465 118.02 405.3C118.02 405.134 118.074 404.975 118.17 404.857C118.267 404.74 118.398 404.674 118.535 404.674H298.896C299.033 404.674 299.164 404.74 299.261 404.857C299.357 404.975 299.412 405.134 299.412 405.3C299.412 405.465 299.357 405.625 299.261 405.742C299.164 405.859 299.033 405.925 298.896 405.925Z" fill="#CCCCCC"/>
<path d="M284.26 293.666V350.036H159.182C144.931 350.036 133.336 337.392 133.336 321.851C133.336 306.31 144.931 293.666 159.182 293.666H284.26Z" fill="#F2F2F2"/>
<path d="M287.529 349.444C287.529 350.021 287.326 350.573 286.965 350.98C286.605 351.388 286.115 351.617 285.605 351.617H156.89C149.899 351.617 143.195 348.481 138.252 342.899C133.308 337.317 130.531 329.746 130.531 321.851C130.531 313.957 133.308 306.386 138.252 300.804C143.195 295.222 149.899 292.086 156.89 292.086H285.605C286.115 292.086 286.605 292.315 286.966 292.722C287.327 293.13 287.529 293.682 287.529 294.258C287.529 294.835 287.327 295.387 286.966 295.795C286.605 296.202 286.115 296.431 285.605 296.431H156.89C150.92 296.431 145.194 299.109 140.972 303.877C136.751 308.644 134.379 315.109 134.379 321.851C134.379 328.593 136.751 335.059 140.972 339.826C145.194 344.593 150.92 347.272 156.89 347.272H285.605C286.115 347.272 286.605 347.501 286.965 347.908C287.326 348.316 287.529 348.868 287.529 349.444Z" fill="#00569C"/>
<path d="M284.342 306.31H149.608C149.506 306.31 149.408 306.282 149.335 306.233C149.263 306.183 149.223 306.116 149.223 306.046C149.223 305.977 149.263 305.91 149.335 305.86C149.408 305.811 149.506 305.783 149.608 305.783H284.342C284.444 305.783 284.542 305.811 284.614 305.86C284.686 305.91 284.727 305.977 284.727 306.046C284.727 306.116 284.686 306.183 284.614 306.233C284.542 306.282 284.444 306.31 284.342 306.31Z" fill="#CCCCCC"/>
<path d="M284.342 316.846H149.608C149.506 316.846 149.408 316.791 149.335 316.692C149.263 316.593 149.223 316.459 149.223 316.32C149.223 316.18 149.263 316.046 149.335 315.947C149.408 315.848 149.506 315.793 149.608 315.793H284.342C284.444 315.793 284.542 315.848 284.614 315.947C284.686 316.046 284.727 316.18 284.727 316.32C284.727 316.459 284.686 316.593 284.614 316.692C284.542 316.791 284.444 316.846 284.342 316.846Z" fill="#CCCCCC"/>
<path d="M284.342 327.383H149.608C149.506 327.383 149.408 327.327 149.335 327.229C149.263 327.13 149.223 326.996 149.223 326.856C149.223 326.716 149.263 326.582 149.335 326.484C149.408 326.385 149.506 326.329 149.608 326.329H284.342C284.444 326.329 284.542 326.385 284.614 326.484C284.686 326.582 284.727 326.716 284.727 326.856C284.727 326.996 284.686 327.13 284.614 327.229C284.542 327.327 284.444 327.383 284.342 327.383Z" fill="#CCCCCC"/>
<path d="M284.342 337.919H149.608C149.506 337.919 149.408 337.864 149.335 337.765C149.263 337.666 149.223 337.532 149.223 337.392C149.223 337.253 149.263 337.119 149.335 337.02C149.408 336.921 149.506 336.865 149.608 336.865H284.342C284.444 336.865 284.542 336.921 284.614 337.02C284.686 337.119 284.727 337.253 284.727 337.392C284.727 337.532 284.686 337.666 284.614 337.765C284.542 337.864 284.444 337.919 284.342 337.919Z" fill="#CCCCCC"/>
<path d="M278.889 244.592V290.79H139.858C124.017 290.79 111.129 280.427 111.129 267.691C111.129 254.954 124.017 244.592 139.858 244.592H278.889Z" fill="#F2F2F2"/>
<path d="M282.523 290.304C282.523 290.777 282.298 291.229 281.897 291.563C281.496 291.897 280.952 292.085 280.385 292.085H137.311C129.54 292.085 122.088 289.515 116.593 284.94C111.099 280.365 108.012 274.161 108.012 267.691C108.012 261.221 111.099 255.017 116.593 250.442C122.088 245.867 129.54 243.297 137.311 243.297H280.385C280.952 243.297 281.496 243.484 281.897 243.818C282.298 244.152 282.523 244.605 282.523 245.077C282.523 245.55 282.298 246.003 281.897 246.337C281.496 246.67 280.952 246.858 280.385 246.858H137.311C130.675 246.858 124.31 249.053 119.618 252.96C114.925 256.867 112.289 262.166 112.289 267.691C112.289 273.216 114.925 278.515 119.618 282.422C124.31 286.329 130.675 288.524 137.311 288.524H280.385C280.952 288.524 281.496 288.712 281.897 289.046C282.298 289.38 282.523 289.832 282.523 290.304Z" fill="#00569C"/>
<path d="M278.981 254.954H129.217C129.103 254.954 128.995 254.931 128.914 254.891C128.834 254.85 128.789 254.796 128.789 254.738C128.789 254.681 128.834 254.626 128.914 254.586C128.995 254.545 129.103 254.522 129.217 254.522H278.981C279.095 254.522 279.204 254.545 279.284 254.586C279.364 254.626 279.409 254.681 279.409 254.738C279.409 254.796 279.364 254.85 279.284 254.891C279.204 254.931 279.095 254.954 278.981 254.954Z" fill="#CCCCCC"/>
<path d="M278.981 263.589H129.217C129.103 263.589 128.995 263.544 128.914 263.463C128.834 263.382 128.789 263.272 128.789 263.157C128.789 263.043 128.834 262.933 128.914 262.852C128.995 262.771 129.103 262.726 129.217 262.726H278.981C279.095 262.726 279.204 262.771 279.284 262.852C279.364 262.933 279.409 263.043 279.409 263.157C279.409 263.272 279.364 263.382 279.284 263.463C279.204 263.544 279.095 263.589 278.981 263.589Z" fill="#CCCCCC"/>
<path d="M278.981 272.225H129.217C129.103 272.225 128.995 272.179 128.914 272.098C128.834 272.017 128.789 271.908 128.789 271.793C128.789 271.679 128.834 271.569 128.914 271.488C128.995 271.407 129.103 271.361 129.217 271.361H278.981C279.095 271.361 279.204 271.407 279.284 271.488C279.364 271.569 279.409 271.679 279.409 271.793C279.409 271.908 279.364 272.017 279.284 272.098C279.204 272.179 279.095 272.225 278.981 272.225Z" fill="#CCCCCC"/>
<path d="M278.981 280.86H129.217C129.103 280.86 128.995 280.814 128.914 280.733C128.834 280.652 128.789 280.542 128.789 280.428C128.789 280.313 128.834 280.204 128.914 280.123C128.995 280.042 129.103 279.996 129.217 279.996H278.981C279.095 279.996 279.204 280.042 279.284 280.123C279.364 280.204 279.409 280.313 279.409 280.428C279.409 280.542 279.364 280.652 279.284 280.733C279.204 280.814 279.095 280.86 278.981 280.86Z" fill="#CCCCCC"/>
<path d="M424.391 387.827L364.837 418.346L288.293 269.161C279.572 252.164 285.835 231.489 302.254 223.075C318.673 214.661 339.127 221.645 347.848 238.642L424.391 387.827Z" fill="#F2F2F2"/>
<path d="M367.266 421.802C366.659 422.113 365.954 422.171 365.306 421.962C364.657 421.754 364.119 421.296 363.808 420.689L285.513 267.547C281.26 259.229 280.484 249.555 283.354 240.651C286.224 231.747 292.506 224.344 300.818 220.069C309.13 215.795 318.79 215 327.674 217.858C336.558 220.717 343.938 226.996 348.19 235.313L426.486 388.456C426.64 388.756 426.733 389.084 426.76 389.421C426.788 389.758 426.748 390.097 426.644 390.419C426.541 390.741 426.375 391.04 426.156 391.298C425.937 391.556 425.67 391.768 425.369 391.922C425.069 392.077 424.741 392.171 424.405 392.198C424.068 392.226 423.73 392.187 423.408 392.084C423.087 391.98 422.79 391.814 422.533 391.595C422.276 391.377 422.065 391.109 421.911 390.808L343.615 237.666C341.818 234.148 339.346 231.019 336.339 228.46C333.333 225.901 329.852 223.961 326.094 222.751C322.337 221.541 318.377 221.084 314.441 221.408C310.504 221.732 306.669 222.829 303.153 224.637C299.638 226.445 296.511 228.928 293.952 231.945C291.392 234.962 289.45 238.453 288.237 242.22C287.024 245.986 286.563 249.953 286.88 253.895C287.198 257.837 288.288 261.677 290.088 265.194L368.383 418.336C368.693 418.943 368.75 419.649 368.54 420.299C368.331 420.949 367.873 421.489 367.266 421.802Z" fill="#CCCCCC"/>
<path d="M410.767 394.846L328.433 234.72C328.402 234.66 328.383 234.595 328.377 234.527C328.372 234.46 328.38 234.392 328.4 234.328C328.421 234.264 328.454 234.204 328.498 234.153C328.542 234.102 328.595 234.059 328.655 234.029C328.715 233.998 328.781 233.979 328.848 233.974C328.916 233.968 328.983 233.976 329.048 233.997C329.112 234.018 329.172 234.051 329.223 234.095C329.275 234.138 329.317 234.192 329.348 234.252L411.682 394.377C411.713 394.437 411.732 394.503 411.738 394.57C411.743 394.638 411.736 394.705 411.715 394.77C411.694 394.834 411.661 394.894 411.617 394.945C411.574 394.996 411.52 395.039 411.46 395.07C411.4 395.1 411.334 395.119 411.267 395.124C411.199 395.13 411.131 395.122 411.067 395.101C411.003 395.08 410.943 395.047 410.891 395.003C410.84 394.959 410.798 394.906 410.767 394.846L410.767 394.846Z" fill="#CCCCCC"/>
<path d="M399.837 400.936L317.755 240.244C317.693 240.122 317.681 239.98 317.723 239.85C317.766 239.72 317.857 239.612 317.979 239.549C318.101 239.487 318.242 239.475 318.372 239.516C318.502 239.558 318.61 239.65 318.672 239.772L400.754 400.464C400.785 400.524 400.804 400.59 400.809 400.657C400.815 400.725 400.807 400.793 400.786 400.858C400.765 400.922 400.732 400.982 400.688 401.034C400.644 401.086 400.591 401.129 400.53 401.16C400.47 401.191 400.404 401.209 400.337 401.215C400.269 401.221 400.201 401.213 400.137 401.192C400.073 401.171 400.013 401.138 399.961 401.094C399.91 401.05 399.868 400.996 399.837 400.936Z" fill="#CCCCCC"/>
<path d="M388.595 406.203L306.261 246.077C306.198 245.955 306.187 245.814 306.228 245.685C306.27 245.555 306.362 245.447 306.483 245.385C306.605 245.323 306.746 245.312 306.876 245.353C307.006 245.395 307.114 245.487 307.176 245.608L389.511 405.734C389.542 405.794 389.56 405.86 389.566 405.927C389.571 405.995 389.564 406.062 389.543 406.126C389.522 406.191 389.489 406.25 389.445 406.302C389.402 406.353 389.348 406.395 389.288 406.426C389.228 406.457 389.162 406.475 389.095 406.481C389.028 406.486 388.96 406.478 388.896 406.457C388.831 406.437 388.771 406.404 388.72 406.36C388.668 406.316 388.626 406.263 388.595 406.203L388.595 406.203Z" fill="#CCCCCC"/>
<path d="M377.923 411.722L295.589 251.596C295.558 251.536 295.539 251.471 295.534 251.403C295.528 251.336 295.536 251.268 295.557 251.204C295.577 251.14 295.61 251.08 295.654 251.029C295.698 250.978 295.751 250.935 295.811 250.905C295.872 250.874 295.937 250.855 296.005 250.85C296.072 250.844 296.14 250.852 296.204 250.873C296.268 250.894 296.328 250.927 296.38 250.971C296.431 251.014 296.474 251.068 296.504 251.128L378.839 411.253C378.87 411.313 378.888 411.379 378.894 411.446C378.9 411.514 378.892 411.581 378.871 411.646C378.851 411.71 378.817 411.77 378.774 411.821C378.73 411.872 378.676 411.915 378.616 411.945C378.556 411.976 378.49 411.995 378.423 412C378.356 412.006 378.288 411.998 378.223 411.977C378.159 411.956 378.099 411.923 378.048 411.879C377.996 411.835 377.954 411.782 377.923 411.722Z" fill="#CCCCCC"/>
<path d="M253.365 247.516C227.24 250.526 200.775 248.03 175.681 240.19C174.188 239.733 172.861 238.852 171.861 237.654C170.862 236.457 170.232 234.995 170.05 233.447L162.134 168.481C161.877 166.352 162.477 164.208 163.801 162.52C165.125 160.831 167.065 159.736 169.197 159.473L313.928 141.838C316.06 141.581 318.207 142.179 319.898 143.5C321.589 144.821 322.685 146.758 322.947 148.886L330.863 213.852C331.058 215.399 330.798 216.969 330.115 218.372C329.432 219.774 328.356 220.948 327.016 221.751C304.539 235.387 279.448 244.164 253.365 247.516Z" fill="#00569C"/>
<path d="M247.077 194.722C246.005 194.854 244.916 194.769 243.877 194.474L123.242 160.035C121.686 159.591 120.299 158.691 119.259 157.451C118.22 156.211 117.575 154.688 117.409 153.078C117.243 151.469 117.562 149.846 118.327 148.42C119.091 146.994 120.265 145.829 121.697 145.077L231.129 87.558C232.891 86.6283 234.935 86.3837 236.866 86.8713L355.371 116.617C356.934 117.009 358.344 117.859 359.422 119.058C360.499 120.256 361.194 121.749 361.419 123.345C361.643 124.941 361.387 126.568 360.682 128.017C359.977 129.467 358.855 130.673 357.461 131.481L250.16 193.693C249.212 194.24 248.164 194.59 247.077 194.722Z" fill="#00569C"/>
<path d="M185.104 243.23C190.934 242.52 195.084 237.218 194.373 231.389C193.663 225.559 188.361 221.409 182.532 222.12C176.702 222.83 172.552 228.132 173.263 233.961C173.973 239.791 179.275 243.94 185.104 243.23Z" fill="#3F3D56"/>
<path opacity="0.2" d="M357.157 124.474L249.879 186.562C249.043 187.046 248.118 187.357 247.158 187.477C246.199 187.596 245.226 187.521 244.296 187.256L123.715 152.933C122.203 152.516 120.873 151.608 119.935 150.353C119.536 151.29 119.341 152.3 119.363 153.318C119.386 154.336 119.624 155.337 120.064 156.255C120.504 157.174 121.134 157.988 121.913 158.644C122.693 159.301 123.603 159.784 124.584 160.062L245.165 194.386C246.095 194.65 247.068 194.725 248.027 194.606C248.986 194.487 249.912 194.176 250.748 193.692L358.025 131.604C358.906 131.095 359.668 130.406 360.262 129.582C360.856 128.758 361.268 127.818 361.472 126.824C361.675 125.829 361.665 124.803 361.441 123.813C361.218 122.823 360.787 121.891 360.176 121.08C359.572 122.513 358.51 123.706 357.157 124.474Z" fill="black"/>
<path d="M184.368 232.608C184.844 232.55 185.278 232.307 185.573 231.932C185.869 231.557 186.003 231.081 185.945 230.609L178.687 171.036L235.245 142.436C235.722 142.385 236.159 142.148 236.46 141.778C236.761 141.407 236.902 140.933 236.852 140.46C236.801 139.987 236.564 139.554 236.191 139.255C235.818 138.957 235.341 138.818 234.865 138.869L178.306 167.469C177.829 167.516 177.366 167.659 176.945 167.889C176.525 168.119 176.155 168.431 175.86 168.806C175.56 169.178 175.338 169.606 175.207 170.064C175.077 170.522 175.04 171.001 175.099 171.473L182.358 231.046C182.415 231.518 182.659 231.948 183.036 232.241C183.414 232.534 183.893 232.666 184.368 232.608Z" fill="#3F3D56"/>
<path d="M666.508 186.969C661.196 186.969 656.172 186.297 651.436 184.953C646.764 183.609 642.86 181.785 639.724 179.481L644.044 167.769C647.052 169.881 650.476 171.545 654.316 172.761C658.22 173.977 662.284 174.585 666.508 174.585C671.116 174.585 674.412 173.881 676.396 172.473C678.444 171.001 679.468 169.177 679.468 167.001C679.468 165.145 678.764 163.673 677.356 162.585C675.948 161.497 673.484 160.569 669.964 159.801L659.116 157.497C647.02 154.937 640.972 148.665 640.972 138.681C640.972 134.393 642.124 130.649 644.428 127.449C646.732 124.185 649.932 121.657 654.028 119.865C658.188 118.073 662.988 117.177 668.428 117.177C673.1 117.177 677.484 117.849 681.58 119.193C685.676 120.537 689.068 122.425 691.756 124.857L687.436 135.801C682.188 131.641 675.82 129.561 668.332 129.561C664.3 129.561 661.164 130.361 658.924 131.961C656.748 133.497 655.66 135.513 655.66 138.009C655.66 139.865 656.332 141.369 657.676 142.521C659.02 143.673 661.356 144.601 664.684 145.305L675.532 147.609C687.948 150.297 694.156 156.377 694.156 165.849C694.156 170.073 693.004 173.785 690.7 176.985C688.46 180.121 685.26 182.585 681.1 184.377C677.004 186.105 672.14 186.969 666.508 186.969ZM702.76 185.913V138.777H716.968V145.593C718.376 143.161 720.296 141.273 722.728 139.929C725.224 138.521 728.104 137.817 731.368 137.817C734.696 137.817 737.512 138.553 739.816 140.025C742.184 141.497 743.976 143.737 745.192 146.745C746.664 143.929 748.776 141.753 751.528 140.217C754.344 138.617 757.448 137.817 760.84 137.817C766.216 137.817 770.216 139.449 772.84 142.713C775.464 145.913 776.776 150.873 776.776 157.593V185.913H762.28V158.073C762.28 154.937 761.768 152.665 760.744 151.257C759.784 149.785 758.12 149.049 755.752 149.049C753 149.049 750.856 150.009 749.32 151.929C747.784 153.849 747.016 156.569 747.016 160.089V185.913H732.52V158.073C732.52 154.937 732.008 152.665 730.984 151.257C729.96 149.785 728.296 149.049 725.992 149.049C723.24 149.049 721.096 150.009 719.56 151.929C718.024 153.849 717.256 156.569 717.256 160.089V185.913H702.76ZM803.817 186.969C800.297 186.969 797.193 186.297 794.505 184.953C791.817 183.609 789.673 181.785 788.073 179.481C786.537 177.177 785.769 174.585 785.769 171.705C785.769 168.313 786.665 165.593 788.457 163.545C790.249 161.497 793.161 160.057 797.193 159.225C801.225 158.329 806.569 157.881 813.225 157.881H816.681V156.249C816.681 153.433 816.041 151.449 814.761 150.297C813.481 149.081 811.305 148.473 808.233 148.473C805.673 148.473 802.953 148.889 800.073 149.721C797.257 150.489 794.441 151.673 791.625 153.273L787.689 143.577C789.353 142.489 791.369 141.497 793.737 140.601C796.169 139.705 798.697 139.033 801.321 138.585C803.945 138.073 806.441 137.817 808.809 137.817C816.105 137.817 821.545 139.481 825.129 142.809C828.713 146.073 830.505 151.161 830.505 158.073V185.913H816.969V178.809C816.009 181.305 814.377 183.289 812.073 184.761C809.833 186.233 807.081 186.969 803.817 186.969ZM807.081 177.273C809.769 177.273 812.041 176.345 813.897 174.489C815.753 172.633 816.681 170.233 816.681 167.289V165.369H813.321C808.393 165.369 804.905 165.817 802.857 166.713C800.809 167.545 799.785 169.017 799.785 171.129C799.785 172.921 800.393 174.393 801.609 175.545C802.889 176.697 804.713 177.273 807.081 177.273ZM841.318 185.913V138.777H855.526V146.937C857.766 141.433 862.566 138.393 869.926 137.817L874.15 137.529L875.014 149.721L866.854 150.585C859.686 151.289 856.102 154.937 856.102 161.529V185.913H841.318ZM906.829 186.969C893.581 186.969 886.957 180.537 886.957 167.673V149.625H878.029V138.777H886.957V124.953H901.453V138.777H915.373V149.625H901.453V167.097C901.453 169.785 902.061 171.801 903.277 173.145C904.557 174.489 906.573 175.161 909.325 175.161C910.157 175.161 911.021 175.065 911.917 174.873C912.877 174.681 913.901 174.425 914.989 174.105L917.101 184.665C915.757 185.369 914.157 185.913 912.301 186.297C910.445 186.745 908.621 186.969 906.829 186.969ZM666.508 282.969C661.196 282.969 656.172 282.297 651.436 280.953C646.764 279.609 642.86 277.785 639.724 275.481L644.044 263.769C647.052 265.881 650.476 267.545 654.316 268.761C658.22 269.977 662.284 270.585 666.508 270.585C671.116 270.585 674.412 269.881 676.396 268.473C678.444 267.001 679.468 265.177 679.468 263.001C679.468 261.145 678.764 259.673 677.356 258.585C675.948 257.497 673.484 256.569 669.964 255.801L659.116 253.497C647.02 250.937 640.972 244.665 640.972 234.681C640.972 230.393 642.124 226.649 644.428 223.449C646.732 220.185 649.932 217.657 654.028 215.865C658.188 214.073 662.988 213.177 668.428 213.177C673.1 213.177 677.484 213.849 681.58 215.193C685.676 216.537 689.068 218.425 691.756 220.857L687.436 231.801C682.188 227.641 675.82 225.561 668.332 225.561C664.3 225.561 661.164 226.361 658.924 227.961C656.748 229.497 655.66 231.513 655.66 234.009C655.66 235.865 656.332 237.369 657.676 238.521C659.02 239.673 661.356 240.601 664.684 241.305L675.532 243.609C687.948 246.297 694.156 252.377 694.156 261.849C694.156 266.073 693.004 269.785 690.7 272.985C688.46 276.121 685.26 278.585 681.1 280.377C677.004 282.105 672.14 282.969 666.508 282.969ZM725.512 282.969C720.392 282.969 715.912 281.977 712.072 279.993C708.296 277.945 705.384 275.065 703.336 271.353C701.288 267.641 700.264 263.257 700.264 258.201C700.264 253.145 701.288 248.793 703.336 245.145C705.384 241.497 708.296 238.713 712.072 236.793C715.912 234.809 720.392 233.817 725.512 233.817C728.52 233.817 731.56 234.265 734.632 235.161C737.704 236.057 740.2 237.337 742.12 239.001L738.088 248.985C736.488 247.705 734.696 246.713 732.712 246.009C730.728 245.241 728.808 244.857 726.952 244.857C723.176 244.857 720.232 246.041 718.12 248.409C716.072 250.713 715.048 254.009 715.048 258.297C715.048 262.521 716.072 265.849 718.12 268.281C720.232 270.649 723.176 271.833 726.952 271.833C728.744 271.833 730.632 271.481 732.616 270.777C734.664 270.073 736.488 269.049 738.088 267.705L742.12 277.689C740.2 279.353 737.704 280.665 734.632 281.625C731.56 282.521 728.52 282.969 725.512 282.969ZM748.412 281.913V214.233H762.908V241.209C764.572 238.777 766.716 236.953 769.34 235.737C771.964 234.457 774.876 233.817 778.076 233.817C789.148 233.817 794.684 240.409 794.684 253.593V281.913H780.188V254.265C780.188 251.001 779.58 248.665 778.364 247.257C777.148 245.785 775.356 245.049 772.988 245.049C769.916 245.049 767.452 246.009 765.596 247.929C763.804 249.849 762.908 252.409 762.908 255.609V281.913H748.412ZM828.161 282.969C823.106 282.969 818.69 281.977 814.914 279.993C811.202 277.945 808.322 275.097 806.273 271.449C804.226 267.737 803.202 263.353 803.202 258.297C803.202 253.305 804.226 248.985 806.273 245.337C808.322 241.625 811.202 238.777 814.914 236.793C818.69 234.809 823.106 233.817 828.161 233.817C833.218 233.817 837.602 234.809 841.314 236.793C845.09 238.777 848.002 241.625 850.05 245.337C852.162 248.985 853.218 253.305 853.218 258.297C853.218 263.353 852.162 267.737 850.05 271.449C848.002 275.097 845.09 277.945 841.314 279.993C837.602 281.977 833.218 282.969 828.161 282.969ZM828.161 272.121C831.234 272.121 833.73 271.001 835.65 268.761C837.634 266.521 838.626 263.033 838.626 258.297C838.626 253.625 837.634 250.201 835.65 248.025C833.73 245.785 831.234 244.665 828.161 244.665C825.09 244.665 822.594 245.785 820.674 248.025C818.754 250.201 817.794 253.625 817.794 258.297C817.794 263.033 818.754 266.521 820.674 268.761C822.594 271.001 825.09 272.121 828.161 272.121ZM879.605 282.969C873.525 282.969 869.077 281.401 866.261 278.265C863.445 275.065 862.037 270.329 862.037 264.057V214.233H876.533V263.481C876.533 268.601 878.805 271.161 883.349 271.161C884.053 271.161 884.725 271.129 885.365 271.065C886.069 271.001 886.741 270.873 887.381 270.681L887.189 281.913C884.757 282.617 882.229 282.969 879.605 282.969ZM909.942 282.969C906.422 282.969 903.318 282.297 900.63 280.953C897.942 279.609 895.798 277.785 894.198 275.481C892.662 273.177 891.894 270.585 891.894 267.705C891.894 264.313 892.79 261.593 894.582 259.545C896.374 257.497 899.286 256.057 903.318 255.225C907.35 254.329 912.694 253.881 919.35 253.881H922.806V252.249C922.806 249.433 922.166 247.449 920.886 246.297C919.606 245.081 917.43 244.473 914.358 244.473C911.798 244.473 909.078 244.889 906.198 245.721C903.382 246.489 900.566 247.673 897.75 249.273L893.814 239.577C895.478 238.489 897.494 237.497 899.862 236.601C902.294 235.705 904.822 235.033 907.446 234.585C910.07 234.073 912.566 233.817 914.934 233.817C922.23 233.817 927.67 235.481 931.254 238.809C934.838 242.073 936.63 247.161 936.63 254.073V281.913H923.094V274.809C922.134 277.305 920.502 279.289 918.198 280.761C915.958 282.233 913.206 282.969 909.942 282.969ZM913.206 273.273C915.894 273.273 918.166 272.345 920.022 270.489C921.878 268.633 922.806 266.233 922.806 263.289V261.369H919.446C914.518 261.369 911.03 261.817 908.982 262.713C906.934 263.545 905.91 265.017 905.91 267.129C905.91 268.921 906.518 270.393 907.734 271.545C909.014 272.697 910.838 273.273 913.206 273.273ZM947.443 281.913V234.777H961.651V242.937C963.891 237.433 968.691 234.393 976.051 233.817L980.275 233.529L981.139 245.721L972.979 246.585C965.811 247.289 962.227 250.937 962.227 257.529V281.913H947.443ZM1004.58 282.969C1000.42 282.969 996.553 282.489 992.969 281.529C989.385 280.569 986.409 279.257 984.041 277.593L987.497 268.185C989.865 269.657 992.553 270.841 995.561 271.737C998.633 272.569 1001.67 272.985 1004.68 272.985C1007.37 272.985 1009.35 272.569 1010.63 271.737C1011.91 270.841 1012.55 269.689 1012.55 268.281C1012.55 266.041 1010.92 264.633 1007.66 264.057L997.577 262.233C993.545 261.529 990.473 260.089 988.361 257.913C986.249 255.737 985.193 252.889 985.193 249.369C985.193 246.169 986.089 243.417 987.881 241.113C989.673 238.809 992.137 237.017 995.273 235.737C998.409 234.457 1002.02 233.817 1006.12 233.817C1009.51 233.817 1012.81 234.265 1016.01 235.161C1019.21 235.993 1021.96 237.337 1024.26 239.193L1020.62 248.505C1018.7 247.097 1016.39 245.945 1013.7 245.049C1011.08 244.153 1008.62 243.705 1006.31 243.705C1003.43 243.705 1001.35 244.185 1000.07 245.145C998.793 246.041 998.153 247.193 998.153 248.601C998.153 250.841 999.657 252.249 1002.66 252.825L1012.74 254.649C1016.9 255.353 1020.07 256.761 1022.25 258.873C1024.42 260.921 1025.51 263.737 1025.51 267.321C1025.51 272.249 1023.59 276.089 1019.75 278.841C1015.91 281.593 1010.86 282.969 1004.58 282.969ZM1033.79 281.913V214.233H1048.28V241.209C1049.95 238.777 1052.09 236.953 1054.71 235.737C1057.34 234.457 1060.25 233.817 1063.45 233.817C1074.52 233.817 1080.06 240.409 1080.06 253.593V281.913H1065.56V254.265C1065.56 251.001 1064.95 248.665 1063.74 247.257C1062.52 245.785 1060.73 245.049 1058.36 245.049C1055.29 245.049 1052.83 246.009 1050.97 247.929C1049.18 249.849 1048.28 252.409 1048.28 255.609V281.913H1033.79ZM1090.3 225.657V212.121H1105.95V225.657H1090.3ZM1090.88 281.913V234.777H1105.38V281.913H1090.88ZM1116.57 299.193V234.777H1130.78V241.785C1132.06 239.353 1134.01 237.433 1136.63 236.025C1139.32 234.553 1142.33 233.817 1145.66 233.817C1149.75 233.817 1153.34 234.809 1156.41 236.793C1159.54 238.777 1161.98 241.593 1163.7 245.241C1165.43 248.889 1166.3 253.241 1166.3 258.297C1166.3 263.353 1165.43 267.737 1163.7 271.449C1161.98 275.097 1159.54 277.945 1156.41 279.993C1153.34 281.977 1149.75 282.969 1145.66 282.969C1142.52 282.969 1139.64 282.297 1137.02 280.953C1134.46 279.609 1132.47 277.817 1131.06 275.577V299.193H1116.57ZM1141.34 272.121C1144.41 272.121 1146.9 271.001 1148.82 268.761C1150.74 266.521 1151.7 263.033 1151.7 258.297C1151.7 253.625 1150.74 250.201 1148.82 248.025C1146.9 245.785 1144.41 244.665 1141.34 244.665C1138.2 244.665 1135.67 245.785 1133.75 248.025C1131.83 250.201 1130.87 253.625 1130.87 258.297C1130.87 263.033 1131.83 266.521 1133.75 268.761C1135.67 271.001 1138.2 272.121 1141.34 272.121Z" fill="white"/>
<path opacity="0.08" d="M1019.34 377.15C1015.16 379.382 1010.09 379.096 1006.2 376.409L891.219 297.116C882.702 291.242 884.462 278.182 894.232 274.773L1311.25 129.257C1322.21 125.431 1332.1 137.174 1326.47 147.329L1276.51 237.332C1275.33 239.458 1273.56 241.198 1271.42 242.345L1019.34 377.15Z" fill="white"/>
<path opacity="0.08" d="M1051.58 581.447C1052.66 584.461 1051.83 587.731 1049.41 589.922L978.137 654.594C972.857 659.385 963.701 656.532 962.473 649.714L910.053 358.667C908.674 351.014 918.339 346.094 924.926 351.095L983.304 395.427C984.683 396.474 985.712 397.854 986.267 399.403L1051.58 581.447Z" fill="white"/>
<path opacity="0.08" d="M1438.99 171.507C1450.96 164.71 1465.96 172.533 1467.23 186.24L1501.81 557.907C1502.57 565.998 1498.08 573.67 1490.66 576.981L1167.11 721.339C1157.26 725.731 1145.74 721.045 1141.76 711.028L1027.6 423.886C1024.1 415.09 1027.62 405.063 1035.85 400.389L1438.99 171.507Z" fill="white"/>
</g>
<defs>
<linearGradient id="paint0_linear_512_39506" x1="-10" y1="274.413" x2="617" y2="274.413" gradientUnits="userSpaceOnUse">
<stop stop-color="white" stop-opacity="0"/>
<stop offset="1" stop-color="white"/>
</linearGradient>
<clipPath id="clip0_512_39506">
<rect width="1440" height="512" fill="white"/>
</clipPath>
</defs>
</svg>
