<svg width="1440" height="512" viewBox="0 0 1440 512" fill="none" xmlns="http://www.w3.org/2000/svg">
<g clip-path="url(#clip0_512_39590)">
<rect width="1440" height="512" fill="#F2994A"/>
<path opacity="0.64" d="M577.45 334.152L353.894 -49.8108C348.359 -59.3178 338.328 -65.315 327.334 -65.6909L-31.4066 -77.9555C-49.4978 -78.574 -64.5 -64.0759 -64.5 -45.9742V505.724C-64.5 520.035 -54.9968 532.607 -41.2275 536.51L361.094 650.561C374.45 654.348 388.724 649.09 396.433 637.545L576.408 368.024C583.196 357.859 583.6 344.715 577.45 334.152Z" fill="url(#paint0_linear_512_39590)"/>
<path d="M642.316 185.913V118.233H657.196V185.913H642.316ZM669.474 185.913V138.777H683.682V145.689C685.282 143.129 687.426 141.177 690.114 139.833C692.802 138.489 695.81 137.817 699.138 137.817C704.706 137.817 708.866 139.449 711.618 142.713C714.37 145.913 715.746 150.873 715.746 157.593V185.913H701.25V158.265C701.25 155.001 700.642 152.665 699.426 151.257C698.21 149.785 696.418 149.049 694.05 149.049C690.978 149.049 688.514 150.009 686.658 151.929C684.866 153.849 683.97 156.409 683.97 159.609V185.913H669.474ZM749.512 186.969C744.392 186.969 739.912 185.977 736.072 183.993C732.296 181.945 729.384 179.065 727.336 175.353C725.288 171.641 724.264 167.257 724.264 162.201C724.264 157.145 725.288 152.793 727.336 149.145C729.384 145.497 732.296 142.713 736.072 140.793C739.912 138.809 744.392 137.817 749.512 137.817C752.52 137.817 755.56 138.265 758.632 139.161C761.704 140.057 764.2 141.337 766.12 143.001L762.088 152.985C760.488 151.705 758.696 150.713 756.712 150.009C754.728 149.241 752.808 148.857 750.952 148.857C747.176 148.857 744.232 150.041 742.12 152.409C740.072 154.713 739.048 158.009 739.048 162.297C739.048 166.521 740.072 169.849 742.12 172.281C744.232 174.649 747.176 175.833 750.952 175.833C752.744 175.833 754.632 175.481 756.616 174.777C758.664 174.073 760.488 173.049 762.088 171.705L766.12 181.689C764.2 183.353 761.704 184.665 758.632 185.625C755.56 186.521 752.52 186.969 749.512 186.969ZM794.13 186.969C789.074 186.969 784.658 185.977 780.882 183.993C777.17 181.945 774.29 179.097 772.242 175.449C770.194 171.737 769.17 167.353 769.17 162.297C769.17 157.305 770.194 152.985 772.242 149.337C774.29 145.625 777.17 142.777 780.882 140.793C784.658 138.809 789.074 137.817 794.13 137.817C799.186 137.817 803.57 138.809 807.282 140.793C811.058 142.777 813.97 145.625 816.018 149.337C818.13 152.985 819.186 157.305 819.186 162.297C819.186 167.353 818.13 171.737 816.018 175.449C813.97 179.097 811.058 181.945 807.282 183.993C803.57 185.977 799.186 186.969 794.13 186.969ZM794.13 176.121C797.202 176.121 799.698 175.001 801.618 172.761C803.602 170.521 804.594 167.033 804.594 162.297C804.594 157.625 803.602 154.201 801.618 152.025C799.698 149.785 797.202 148.665 794.13 148.665C791.058 148.665 788.562 149.785 786.642 152.025C784.722 154.201 783.762 157.625 783.762 162.297C783.762 167.033 784.722 170.521 786.642 172.761C788.562 175.001 791.058 176.121 794.13 176.121ZM828.198 185.913V138.777H842.406V145.593C843.814 143.161 845.734 141.273 848.166 139.929C850.662 138.521 853.542 137.817 856.806 137.817C860.134 137.817 862.95 138.553 865.254 140.025C867.622 141.497 869.414 143.737 870.63 146.745C872.102 143.929 874.214 141.753 876.966 140.217C879.782 138.617 882.886 137.817 886.278 137.817C891.654 137.817 895.654 139.449 898.278 142.713C900.902 145.913 902.214 150.873 902.214 157.593V185.913H887.718V158.073C887.718 154.937 887.206 152.665 886.182 151.257C885.222 149.785 883.558 149.049 881.19 149.049C878.438 149.049 876.294 150.009 874.758 151.929C873.222 153.849 872.454 156.569 872.454 160.089V185.913H857.958V158.073C857.958 154.937 857.446 152.665 856.422 151.257C855.398 149.785 853.734 149.049 851.43 149.049C848.678 149.049 846.534 150.009 844.998 151.929C843.462 153.849 842.694 156.569 842.694 160.089V185.913H828.198ZM937.798 186.969C932.23 186.969 927.43 185.977 923.398 183.993C919.43 181.945 916.358 179.097 914.182 175.449C912.07 171.737 911.014 167.385 911.014 162.393C911.014 157.529 912.038 153.273 914.086 149.625C916.198 145.913 919.046 143.033 922.63 140.985C926.278 138.873 930.47 137.817 935.206 137.817C942.054 137.817 947.494 139.993 951.526 144.345C955.558 148.633 957.574 154.457 957.574 161.817V165.465H924.838C925.35 169.177 926.694 171.897 928.87 173.625C931.11 175.289 934.182 176.121 938.086 176.121C940.646 176.121 943.238 175.737 945.862 174.969C948.486 174.201 950.854 173.017 952.966 171.417L956.806 181.113C954.438 182.905 951.526 184.345 948.07 185.433C944.678 186.457 941.254 186.969 937.798 186.969ZM935.782 147.417C932.71 147.417 930.214 148.345 928.294 150.201C926.438 152.057 925.286 154.649 924.838 157.977H945.574C945.19 150.937 941.926 147.417 935.782 147.417ZM675.82 282.969C668.204 282.969 661.74 281.529 656.428 278.649C651.18 275.769 647.18 271.737 644.428 266.553C641.676 261.369 640.3 255.289 640.3 248.313C640.3 241.145 641.708 234.937 644.524 229.689C647.404 224.441 651.532 220.377 656.908 217.497C662.284 214.617 668.748 213.177 676.3 213.177C681.036 213.177 685.516 213.849 689.74 215.193C694.028 216.537 697.516 218.329 700.204 220.569L695.404 232.185C692.46 230.009 689.452 228.473 686.38 227.577C683.308 226.617 679.98 226.137 676.396 226.137C669.548 226.137 664.396 228.057 660.94 231.897C657.548 235.673 655.852 241.145 655.852 248.313C655.852 255.545 657.58 261.017 661.036 264.729C664.556 268.441 669.74 270.297 676.588 270.297C680.236 270.297 684.076 269.721 688.108 268.569V255.321H673.516V244.569H700.396V277.785C697.068 279.449 693.228 280.729 688.876 281.625C684.524 282.521 680.172 282.969 675.82 282.969ZM736.798 282.969C731.23 282.969 726.43 281.977 722.398 279.993C718.43 277.945 715.358 275.097 713.182 271.449C711.07 267.737 710.014 263.385 710.014 258.393C710.014 253.529 711.038 249.273 713.086 245.625C715.198 241.913 718.046 239.033 721.63 236.985C725.278 234.873 729.47 233.817 734.206 233.817C741.054 233.817 746.494 235.993 750.526 240.345C754.558 244.633 756.574 250.457 756.574 257.817V261.465H723.838C724.35 265.177 725.694 267.897 727.87 269.625C730.11 271.289 733.182 272.121 737.086 272.121C739.646 272.121 742.238 271.737 744.862 270.969C747.486 270.201 749.854 269.017 751.966 267.417L755.806 277.113C753.438 278.905 750.526 280.345 747.07 281.433C743.678 282.457 740.254 282.969 736.798 282.969ZM734.782 243.417C731.71 243.417 729.214 244.345 727.294 246.201C725.438 248.057 724.286 250.649 723.838 253.977H744.574C744.19 246.937 740.926 243.417 734.782 243.417ZM765.006 281.913V234.777H779.214V241.689C780.814 239.129 782.958 237.177 785.646 235.833C788.334 234.489 791.342 233.817 794.67 233.817C800.238 233.817 804.398 235.449 807.15 238.713C809.902 241.913 811.278 246.873 811.278 253.593V281.913H796.782V254.265C796.782 251.001 796.174 248.665 794.958 247.257C793.742 245.785 791.95 245.049 789.582 245.049C786.51 245.049 784.046 246.009 782.19 247.929C780.398 249.849 779.502 252.409 779.502 255.609V281.913H765.006ZM846.579 282.969C841.011 282.969 836.211 281.977 832.179 279.993C828.211 277.945 825.139 275.097 822.963 271.449C820.851 267.737 819.795 263.385 819.795 258.393C819.795 253.529 820.819 249.273 822.867 245.625C824.979 241.913 827.827 239.033 831.411 236.985C835.059 234.873 839.251 233.817 843.987 233.817C850.835 233.817 856.275 235.993 860.307 240.345C864.339 244.633 866.355 250.457 866.355 257.817V261.465H833.619C834.131 265.177 835.475 267.897 837.651 269.625C839.891 271.289 842.963 272.121 846.867 272.121C849.427 272.121 852.019 271.737 854.643 270.969C857.267 270.201 859.635 269.017 861.747 267.417L865.587 277.113C863.219 278.905 860.307 280.345 856.851 281.433C853.459 282.457 850.035 282.969 846.579 282.969ZM844.563 243.417C841.491 243.417 838.995 244.345 837.075 246.201C835.219 248.057 834.067 250.649 833.619 253.977H854.355C853.971 246.937 850.707 243.417 844.563 243.417ZM874.787 281.913V234.777H888.995V242.937C891.235 237.433 896.035 234.393 903.395 233.817L907.619 233.529L908.483 245.721L900.323 246.585C893.155 247.289 889.571 250.937 889.571 257.529V281.913H874.787ZM929.817 282.969C926.297 282.969 923.193 282.297 920.505 280.953C917.817 279.609 915.673 277.785 914.073 275.481C912.537 273.177 911.769 270.585 911.769 267.705C911.769 264.313 912.665 261.593 914.457 259.545C916.249 257.497 919.161 256.057 923.193 255.225C927.225 254.329 932.569 253.881 939.225 253.881H942.681V252.249C942.681 249.433 942.041 247.449 940.761 246.297C939.481 245.081 937.305 244.473 934.233 244.473C931.673 244.473 928.953 244.889 926.073 245.721C923.257 246.489 920.441 247.673 917.625 249.273L913.689 239.577C915.353 238.489 917.369 237.497 919.737 236.601C922.169 235.705 924.697 235.033 927.321 234.585C929.945 234.073 932.441 233.817 934.809 233.817C942.105 233.817 947.545 235.481 951.129 238.809C954.713 242.073 956.505 247.161 956.505 254.073V281.913H942.969V274.809C942.009 277.305 940.377 279.289 938.073 280.761C935.833 282.233 933.081 282.969 929.817 282.969ZM933.081 273.273C935.769 273.273 938.041 272.345 939.897 270.489C941.753 268.633 942.681 266.233 942.681 263.289V261.369H939.321C934.393 261.369 930.905 261.817 928.857 262.713C926.809 263.545 925.785 265.017 925.785 267.129C925.785 268.921 926.393 270.393 927.609 271.545C928.889 272.697 930.713 273.273 933.081 273.273ZM990.454 282.969C977.206 282.969 970.582 276.537 970.582 263.673V245.625H961.654V234.777H970.582V220.953H985.078V234.777H998.998V245.625H985.078V263.097C985.078 265.785 985.686 267.801 986.902 269.145C988.182 270.489 990.198 271.161 992.95 271.161C993.782 271.161 994.646 271.065 995.542 270.873C996.502 270.681 997.526 270.425 998.614 270.105L1000.73 280.665C999.382 281.369 997.782 281.913 995.926 282.297C994.07 282.745 992.246 282.969 990.454 282.969ZM1005.55 225.657V212.121H1021.2V225.657H1005.55ZM1006.13 281.913V234.777H1020.63V281.913H1006.13ZM1031.82 281.913V234.777H1046.03V241.689C1047.63 239.129 1049.77 237.177 1052.46 235.833C1055.15 234.489 1058.15 233.817 1061.48 233.817C1067.05 233.817 1071.21 235.449 1073.96 238.713C1076.71 241.913 1078.09 246.873 1078.09 253.593V281.913H1063.59V254.265C1063.59 251.001 1062.99 248.665 1061.77 247.257C1060.55 245.785 1058.76 245.049 1056.39 245.049C1053.32 245.049 1050.86 246.009 1049 247.929C1047.21 249.849 1046.31 252.409 1046.31 255.609V281.913H1031.82ZM1111.57 300.249C1107.02 300.249 1102.77 299.769 1098.8 298.809C1094.9 297.849 1091.47 296.345 1088.53 294.297L1092.46 284.409C1095.02 286.009 1097.9 287.225 1101.1 288.057C1104.37 288.953 1107.44 289.401 1110.32 289.401C1118.51 289.401 1122.61 285.625 1122.61 278.073V272.697C1121.33 275.129 1119.31 277.081 1116.56 278.553C1113.81 280.025 1110.8 280.761 1107.54 280.761C1103.31 280.761 1099.63 279.801 1096.5 277.881C1093.36 275.897 1090.93 273.145 1089.2 269.625C1087.47 266.105 1086.61 261.977 1086.61 257.241C1086.61 252.569 1087.47 248.473 1089.2 244.953C1090.93 241.433 1093.36 238.713 1096.5 236.793C1099.63 234.809 1103.31 233.817 1107.54 233.817C1110.93 233.817 1113.97 234.553 1116.66 236.025C1119.34 237.497 1121.33 239.449 1122.61 241.881V234.777H1136.72V276.441C1136.72 284.377 1134.58 290.329 1130.29 294.297C1126 298.265 1119.76 300.249 1111.57 300.249ZM1111.86 269.913C1115.06 269.913 1117.62 268.793 1119.54 266.553C1121.52 264.313 1122.51 261.209 1122.51 257.241C1122.51 253.273 1121.52 250.201 1119.54 248.025C1117.62 245.785 1115.06 244.665 1111.86 244.665C1108.59 244.665 1106 245.785 1104.08 248.025C1102.16 250.201 1101.2 253.273 1101.2 257.241C1101.2 261.209 1102.16 264.313 1104.08 266.553C1106 268.793 1108.59 269.913 1111.86 269.913Z" fill="white"/>
<path d="M124.848 403.123H83.2915C82.1662 403.122 81.0873 402.675 80.2916 401.879C79.4959 401.083 79.0482 400.004 79.0469 398.879V261.953C79.0482 260.827 79.4959 259.748 80.2916 258.953C81.0873 258.157 82.1662 257.71 83.2915 257.708H124.848C125.974 257.71 127.052 258.157 127.848 258.953C128.644 259.748 129.092 260.827 129.093 261.953V398.879C129.092 400.004 128.644 401.083 127.848 401.879C127.052 402.675 125.974 403.122 124.848 403.123Z" fill="#F26624"/>
<path d="M200.633 403.123H159.077C157.951 403.122 156.872 402.674 156.077 401.878C155.281 401.083 154.833 400.004 154.832 398.879V207.616C154.833 206.491 155.281 205.412 156.077 204.617C156.872 203.821 157.951 203.373 159.077 203.372H200.633C201.759 203.373 202.838 203.821 203.633 204.617C204.429 205.412 204.877 206.491 204.878 207.616V398.879C204.877 400.004 204.429 401.083 203.633 401.878C202.838 402.674 201.759 403.122 200.633 403.123Z" fill="#F26624"/>
<path d="M276.417 403.123H234.86C233.735 403.122 232.656 402.674 231.86 401.879C231.064 401.083 230.617 400.004 230.615 398.879V261.952C230.617 260.827 231.064 259.748 231.86 258.952C232.656 258.157 233.735 257.709 234.86 257.708H276.417C277.542 257.709 278.621 258.157 279.416 258.952C280.212 259.748 280.66 260.827 280.661 261.952V398.879C280.66 400.004 280.212 401.083 279.416 401.879C278.621 402.674 277.542 403.122 276.417 403.123Z" fill="#F26624"/>
<path d="M352.202 403.123H310.645C309.545 403.147 308.481 402.733 307.685 401.974C306.89 401.214 306.428 400.17 306.4 399.071V185.976C306.428 184.876 306.89 183.832 307.685 183.073C308.481 182.313 309.545 181.9 310.645 181.924H352.202C353.301 181.9 354.366 182.313 355.161 183.073C355.957 183.832 356.419 184.876 356.446 185.976V399.071C356.419 400.17 355.957 401.214 355.161 401.974C354.366 402.733 353.301 403.147 352.202 403.123Z" fill="#F26624"/>
<path d="M427.983 403.123H386.426C385.301 403.122 384.222 402.675 383.426 401.879C382.631 401.083 382.183 400.004 382.182 398.879V147.562C382.183 146.436 382.631 145.358 383.426 144.562C384.222 143.766 385.301 143.319 386.426 143.317H427.983C429.108 143.319 430.187 143.766 430.983 144.562C431.779 145.358 432.226 146.436 432.228 147.562V398.879C432.226 400.004 431.779 401.083 430.983 401.879C430.187 402.675 429.108 403.122 427.983 403.123Z" fill="#F26624"/>
<path d="M104.07 240.549C108.808 240.549 112.649 236.708 112.649 231.97C112.649 227.232 108.808 223.391 104.07 223.391C99.3313 223.391 95.4902 227.232 95.4902 231.97C95.4902 236.708 99.3313 240.549 104.07 240.549Z" fill="#3F3D56"/>
<path d="M179.853 184.784C184.591 184.784 188.432 180.943 188.432 176.205C188.432 171.467 184.591 167.625 179.853 167.625C175.115 167.625 171.273 171.467 171.273 176.205C171.273 180.943 175.115 184.784 179.853 184.784Z" fill="#3F3D56"/>
<path d="M255.638 240.549C260.376 240.549 264.217 236.708 264.217 231.97C264.217 227.232 260.376 223.391 255.638 223.391C250.9 223.391 247.059 227.232 247.059 231.97C247.059 236.708 250.9 240.549 255.638 240.549Z" fill="#3F3D56"/>
<path d="M331.423 157.616C336.161 157.616 340.002 153.775 340.002 149.037C340.002 144.299 336.161 140.458 331.423 140.458C326.685 140.458 322.844 144.299 322.844 149.037C322.844 153.775 326.685 157.616 331.423 157.616Z" fill="#3F3D56"/>
<path d="M407.206 126.159C411.944 126.159 415.786 122.318 415.786 117.579C415.786 112.841 411.944 109 407.206 109C402.468 109 398.627 112.841 398.627 117.579C398.627 122.318 402.468 126.159 407.206 126.159Z" fill="#3F3D56"/>
<path d="M103.614 232.507L102.814 231.433L179.856 174.077L255.394 230.421L331.967 147.284L332.104 147.228L406.417 116.557L406.928 117.795L332.751 148.409L255.561 232.215L179.855 175.746L103.614 232.507Z" fill="#3F3D56"/>
<path d="M57 403.488L457 403.488" stroke="#3F3D56"/>
<path opacity="0.08" d="M1128.26 193.666C1135.53 187.252 1146.86 193.263 1145.64 202.88L1131.4 314.4C1131.04 317.21 1129.56 319.757 1127.3 321.462L882.656 505.878C874.901 511.724 864.045 504.827 866.042 495.323L883.475 412.387C883.94 410.171 885.109 408.165 886.807 406.667L1128.26 193.666Z" fill="white"/>
<path opacity="0.08" d="M1391.38 307.984C1389.84 309.129 1388.02 309.832 1386.11 310.016L1173.92 330.455C1167.47 331.076 1162 325.761 1162.43 319.291L1175.39 125.497C1175.84 118.842 1182.29 114.279 1188.71 116.076L1502.73 203.954C1511.14 206.307 1513.18 217.292 1506.18 222.507L1391.38 307.984Z" fill="white"/>
<path opacity="0.08" d="M1470.35 336.882C1483.88 335.68 1492.5 351.01 1484.44 361.944L1305.99 603.946C1302.25 609.021 1295.84 611.378 1289.7 609.939L928.033 525.164C914.678 522.034 911.414 504.522 922.745 496.79L1106.79 371.202C1109.02 369.682 1111.6 368.759 1114.28 368.521L1470.35 336.882Z" fill="white"/>
</g>
<defs>
<linearGradient id="paint0_linear_512_39590" x1="-10" y1="274.413" x2="617" y2="274.413" gradientUnits="userSpaceOnUse">
<stop stop-color="white" stop-opacity="0"/>
<stop offset="1" stop-color="white"/>
</linearGradient>
<clipPath id="clip0_512_39590">
<rect width="1440" height="512" fill="white"/>
</clipPath>
</defs>
</svg>
